<?xml version="1.0" encoding="UTF-8" standalone="no"?>
<svg width="560px" height="561px" viewBox="0 0 560 561" version="1.1" xmlns="http://www.w3.org/2000/svg" xmlns:xlink="http://www.w3.org/1999/xlink">
    <!-- Generator: Sketch 39.1 (31720) - http://www.bohemiancoding.com/sketch -->
    <title>lob_icons</title>
    <desc>Created with Sketch.</desc>
    <defs>
        <polyline id="path-1" points="0 0.417080437 559.890447 0.417080437 559.890447 560.556107 0 560.556107"></polyline>
        <polygon id="path-3" points="0 0.417080437 559.890447 0.417080437 559.890447 560.556107 0 560.556107"></polygon>
    </defs>
    <g id="Page-1" stroke="none" stroke-width="1" fill="none" fill-rule="evenodd">
        <g id="Desktop-HD" transform="translate(-750.000000, -1213.000000)">
            <g id="lob_icons" transform="translate(750.000000, 1213.000000)">
                <path d="M46.9908401,50.5711142 L39.8337398,38.1576882 L37.1749911,39.6925442 L44.3298669,52.1015214 C42.5442066,52.8856326 40.576143,53.3277378 38.5040874,53.3277378 C30.4833525,53.3277378 23.957434,46.8023754 23.957434,38.7810844 C23.957434,30.7597934 30.4833525,24.234431 38.5040874,24.234431 C46.5248222,24.234431 53.0507408,30.7597934 53.0507408,38.7810844 C53.0507408,43.6331202 50.6533625,47.9268242 46.9908401,50.5711142 M38.5040874,21.1652751 C28.7911182,21.1652751 20.8882781,29.0675591 20.8882781,38.7810844 C20.8882781,48.4946097 28.7911182,56.3968937 38.5040874,56.3968937 C48.2176127,56.3968937 56.1198967,48.4946097 56.1198967,38.7810844 C56.1198967,29.0675591 48.2176127,21.1652751 38.5040874,21.1652751" id="Fill-1" fill="#2F4542"></path>
                <path d="M38.5043654,60.3611043 C26.6047825,60.3611043 16.9235114,50.6798332 16.9235114,38.7813625 C16.9235114,26.8817795 26.6047825,17.2016207 38.5043654,17.2016207 C50.4033923,17.2016207 60.0841072,26.8817795 60.0841072,38.7813625 C60.0841072,50.6798332 50.4033923,60.3611043 38.5043654,60.3611043 M38.5043654,14.1324647 C24.9125482,14.1324647 13.8543555,25.1889891 13.8543555,38.7813625 C13.8543555,52.3720675 24.9125482,63.4302602 38.5043654,63.4302602 C41.836004,63.4302602 45.0119325,62.7579265 47.9137001,61.5545104 L54.6036703,66.7863674 L53.2400953,58.4936961 C59.2438292,53.9936763 63.1532632,46.8443615 63.1532632,38.7813625 C63.1532632,25.1889891 52.0961827,14.1324647 38.5043654,14.1324647" id="Fill-3" fill="#2F4542"></path>
                <path d="M23.1436822,73.4832334 C23.1436822,76.0196385 22.7677537,76.234852 22.1982999,76.234852 C21.6277339,76.234852 21.2518054,76.0196385 21.2518054,73.4832334 L21.2518054,72.5261728 C21.2518054,70.0542761 21.5954796,69.5493307 22.1982999,69.5493307 C22.8000079,69.5493307 23.1436822,70.0542761 23.1436822,72.5261728 L23.1436822,73.4832334 Z M22.1982999,69.0226971 C21.0043376,69.0226971 19.4033049,70.2483575 19.4033049,72.8920914 C19.4033049,75.5358252 21.0043376,76.7609295 22.1982999,76.7609295 C23.39115,76.7609295 24.9921827,75.5358252 24.9921827,72.8920914 C24.9921827,70.2483575 23.39115,69.0226971 22.1982999,69.0226971 L22.1982999,69.0226971 Z" id="Fill-5" fill="#2F4542"></path>
                <path d="M53.6926554,76.027146 L53.6926554,69.5679603 L53.3384151,69.5679603 C52.6288222,70.1051599 51.8335889,70.2881192 50.6301728,70.3098073 L50.6301728,70.8898272 L51.3931519,70.8898272 C51.9737279,70.8898272 52.0382363,71.0188441 52.0382363,71.4270268 L52.0382363,76.027146 C52.0382363,76.4358848 51.9737279,76.5649017 51.3931519,76.5649017 L50.6835591,76.5649017 L50.6835591,77.1449215 L55.0150785,77.1449215 L55.0150785,76.5649017 L54.3377398,76.5649017 C53.75772,76.5649017 53.6926554,76.4358848 53.6926554,76.027146" id="Fill-7" fill="#2F4542"></path>
                <path d="M59.8594399,76.027146 L59.8594399,69.5679603 L59.5040874,69.5679603 C58.7944945,70.1051599 57.9998173,70.2881192 56.7964012,70.3098073 L56.7964012,70.8898272 L57.5588242,70.8898272 C58.1388441,70.8898272 58.2044647,71.0188441 58.2044647,71.4270268 L58.2044647,76.027146 C58.2044647,76.4358848 58.1388441,76.5649017 57.5588242,76.5649017 L56.8492314,76.5649017 L56.8492314,77.1449215 L61.1813069,77.1449215 L61.1813069,76.5649017 L60.5039682,76.5649017 C59.9239484,76.5649017 59.8594399,76.4358848 59.8594399,76.027146" id="Fill-9" fill="#2F4542"></path>
                <g id="Group-13">
                    <mask id="mask-2" fill="white">
                        <use xlink:href="#path-1"></use>
                    </mask>
                    <g id="Clip-12"></g>
                    <path d="M40.0388878,9.60647468 L40.0388878,0.416802383 L36.9697319,0.416802383 L36.9697319,9.60647468 C37.4813505,9.57922542 37.9862959,9.52861966 38.5045879,9.52861966 C39.0223237,9.52861966 39.5272691,9.57922542 40.0388878,9.60647468" id="Fill-11" fill="#2F4542" mask="url(#mask-2)"></path>
                </g>
                <path d="M25.1769215,12.7722264 L20.5795829,4.80877061 L17.9208342,6.34307051 L22.5209533,14.3115313 C23.3756902,13.7515313 24.2637934,13.242137 25.1769215,12.7722264" id="Fill-14" fill="#2F4542"></path>
                <path d="M62.9471142,54.8087627 L71.0851877,59.5067567 L72.6200437,56.8496763 L64.4903118,52.155575 C64.0187329,53.068147 63.5087825,53.955138 62.9471142,54.8087627" id="Fill-16" fill="#2F4542"></path>
                <path d="M13.9319325,22.9657279 L5.92231976,18.3416961 L4.38801986,20.9993327 L12.4093108,25.63115 C12.8731043,24.7146852 13.3774935,23.8243575 13.9319325,22.9657279" id="Fill-18" fill="#2F4542"></path>
                <path d="M67.6865938,37.3905382 C67.708282,37.8548878 67.7572195,38.3120079 67.7572195,38.7813625 C67.7572195,39.3474796 67.7038332,39.9013625 67.6721351,40.4596941 L77.0147368,40.4596941 L77.0147368,37.3905382 L67.6865938,37.3905382 Z" id="Fill-20" fill="#2F4542"></path>
                <path d="M9.2508997,38.7812512 C9.2508997,38.3118967 9.29928103,37.8553327 9.32152532,37.390427 L5.56107249e-05,37.390427 L5.56107249e-05,40.4595829 L9.33598411,40.4595829 C9.304286,39.9012512 9.2508997,39.3479245 9.2508997,38.7812512" id="Fill-22" fill="#2F4542"></path>
                <path d="M72.6199881,20.9995551 L71.0856882,18.3419186 L63.0760755,22.9659503 C63.6305144,23.8234677 64.1343476,24.7143515 64.598141,25.6308163 L72.6199881,20.9995551 Z" id="Fill-24" fill="#2F4542"></path>
                <path d="M4.38790864,56.8498987 L5.92220854,59.5069791 L14.0608381,54.8089851 C13.4997259,53.9553605 12.9892195,53.0683694 12.5176405,52.1563535 L4.38790864,56.8498987 Z" id="Fill-26" fill="#2F4542"></path>
                <path d="M59.0868957,6.34323734 L56.428147,4.80893744 L51.8308083,12.7723932 C52.7444926,13.2423039 53.6325958,13.7516981 54.4867766,14.311142 L59.0868957,6.34323734 Z" id="Fill-28" fill="#2F4542"></path>
                <path d="M63.097708,197.176723 L60.6575094,199.005204 L61.6724052,201.879166 L58.9196743,203.192135 L59.3528818,206.211797 L56.3949474,206.962542 L56.2325641,210.01001 L53.1850963,210.172393 L52.4343515,213.129215 L49.4146892,212.696008 L48.1028322,215.448183 L45.2283138,214.433287 L43.4009454,216.872929 L40.7794558,215.313049 L38.5077577,217.352294 L36.2355035,215.311936 L33.6140139,216.873486 L31.7860894,214.433287 L28.911571,215.448183 L27.5986018,212.695452 L24.5789394,213.128659 L23.8287507,210.171281 L20.7807269,210.007786 L20.6188997,206.960874 L17.6609652,206.210129 L18.0941728,203.190467 L15.3425541,201.878054 L16.358006,199.003535 L13.9178073,197.176723 L15.4782443,194.555789 L13.438999,192.283535 L15.4782443,190.011837 L13.9178073,187.390348 L16.3585621,185.562423 L15.3431102,182.687349 L18.095285,181.373823 L17.6626336,178.354161 L20.6200119,177.604528 L20.7829513,174.557061 L23.8304191,174.395233 L24.5811639,171.436743 L27.6002701,171.870506 L28.9126832,169.118332 L31.7872016,170.13434 L33.61457,167.693029 L36.2355035,169.254578 L38.5077577,167.215333 L40.7794558,169.254578 L43.4009454,167.693029 L45.2288699,170.133784 L48.1039444,169.118332 L49.4169136,171.871063 L52.4360199,171.438411 L53.1873208,174.395789 L56.2347885,174.558173 L56.3966157,177.606753 L59.353994,178.357498 L58.9213426,181.376048 L61.6724052,182.688461 L60.6563972,185.562423 L63.097708,187.390348 L61.5361589,190.011837 L63.5765164,192.283535 L61.5361589,194.555789 L63.097708,197.176723 Z M38.5077577,226.339543 L23.659138,234.683932 L23.659138,216.361311 L25.8001509,216.053784 L27.330002,219.26141 L30.6816604,218.078014 L32.8132195,220.923059 L35.8656922,219.104032 L38.5077577,221.476385 L41.1498232,219.104032 L44.202852,220.923615 L46.3327428,218.078014 L49.6838451,219.262522 L51.21314,216.054896 L53.3558213,216.362423 L53.3558213,234.683932 L38.5077577,226.339543 Z M65.3293664,194.925601 L67.7006077,192.283535 L65.3293664,189.642026 L67.1467249,186.588441 L64.3027925,184.457994 L65.4867448,181.107448 L62.2796743,179.578153 L62.7846197,176.061331 L59.3412036,175.187686 L59.1526832,171.640834 L55.6063873,171.451758 L54.7316306,168.008898 L51.2153644,168.512731 L49.6849573,165.305104 L46.333855,166.4885 L44.202852,163.644012 L41.1498232,165.461927 L38.5077577,163.089573 L35.8656922,165.461927 L32.8126634,163.644012 L30.6827726,166.4885 L27.3311142,165.304548 L25.8018193,168.511619 L22.2855531,168.006673 L21.4113525,171.450089 L17.8656127,171.638054 L17.6759801,175.184906 L14.2331202,176.05855 L14.7369533,179.575372 L11.5298828,181.10578 L12.713279,184.457994 L9.86823436,186.588441 L11.686149,189.642026 L9.31379543,192.283535 L11.686149,194.925601 L9.86823436,197.97863 L12.7127229,200.107964 L11.5287706,203.460179 L14.7358411,204.988918 L14.2314518,208.506296 L17.6737557,209.37994 L17.8633883,212.92568 L20.5899821,213.071936 L20.5899821,239.930248 L38.5077577,229.859702 L56.4249772,239.930248 L56.4249772,213.073049 L59.1504588,212.928461 L59.3400914,209.382165 L62.7829513,208.507408 L62.278006,204.990586 L65.4867448,203.461291 L64.3016802,200.109633 L67.1467249,197.97863 L65.3293664,194.925601 Z" id="Fill-30" fill="#2F4542"></path>
                <path d="M38.5075353,207.131988 C30.3199682,207.131988 23.6589156,200.470935 23.6589156,192.283925 C23.6589156,184.095245 30.3199682,177.434749 38.5075353,177.434749 C46.6945462,177.434749 53.3561549,184.095245 53.3561549,192.283925 C53.3561549,200.470935 46.6945462,207.131988 38.5075353,207.131988 M38.5075353,174.365593 C28.6277339,174.365593 20.5897597,182.403567 20.5897597,192.283925 C20.5897597,202.16317 28.6277339,210.201144 38.5075353,210.201144 C48.3873366,210.201144 56.4253108,202.16317 56.4253108,192.283925 C56.4253108,182.403567 48.3873366,174.365593 38.5075353,174.365593" id="Fill-32" fill="#2F4542"></path>
                <path d="M34.4650248,193.507416 L32.5509037,193.507416 L32.8456405,191.335817 L34.7597617,191.335817 L34.4650248,193.507416 Z M37.2260973,186.072262 L35.4954916,186.072262 L34.9805362,189.715877 L33.0664151,189.715877 L33.5813704,186.072262 L31.8518769,186.072262 L31.3363654,189.715877 L29.5512612,189.715877 L29.5512612,191.335817 L31.1155909,191.335817 L30.8214101,193.507416 L29.0357498,193.507416 L29.0357498,195.1268 L30.6000794,195.1268 L30.0851241,198.771527 L31.8146177,198.771527 L32.3301291,195.1268 L34.2442502,195.1268 L33.7287388,198.771527 L35.4587885,198.771527 L35.9742999,195.1268 L37.7599603,195.1268 L37.7599603,193.507416 L36.1950745,193.507416 L36.4898113,191.335817 L38.2749156,191.335817 L38.2749156,189.715877 L36.7105859,189.715877 L37.2260973,186.072262 Z" id="Fill-34" fill="#2F4542"></path>
                <path d="M45.7161867,196.856794 L45.7161867,185.795821 L45.1089176,185.795821 C43.8943793,186.715623 42.5319166,187.028711 40.4709831,187.065414 L40.4709831,188.059178 L41.777279,188.059178 C42.7715988,188.059178 42.881708,188.280508 42.881708,188.980091 L42.881708,196.856794 C42.881708,197.556377 42.7715988,197.777152 41.777279,197.777152 L40.5627408,197.777152 L40.5627408,198.771472 L47.9800993,198.771472 L47.9800993,197.777152 L46.8200596,197.777152 C45.826852,197.777152 45.7161867,197.556377 45.7161867,196.856794" id="Fill-36" fill="#2F4542"></path>
                <path d="M70.2407944,378.006562 C69.9188083,381.456095 68.7226216,384.058121 66.6878252,385.739233 C64.788719,387.3069 62.5737438,387.714526 61.1261966,387.574943 C59.7131281,387.437029 57.7272691,386.892044 56.300854,385.07691 C54.5174181,382.806324 53.9718769,379.132123 54.6825819,374.152183 C55.2520357,370.153772 56.5032771,366.641398 57.1967428,364.905787 C57.5159484,364.112779 57.4653426,363.229124 57.057716,362.48116 C56.6500894,361.731527 55.9366038,361.210455 55.0629593,361.040842 L52.225144,360.560365 L58.3050645,358.719094 L60.2286395,358.877029 C60.9087587,359.029958 61.485998,359.464278 61.8185501,360.080445 C62.1588878,360.712739 62.1978153,361.456254 61.9236544,362.11969 C60.6468322,365.220544 59.0580338,369.458638 58.3045084,372.989362 C58.0258987,374.068211 57.9552731,374.961319 57.9419265,375.154844 C57.1683813,381.657406 59.9350149,383.092719 61.1984906,383.407476 C61.5549553,383.497565 61.9086395,383.54261 62.2517577,383.54261 C63.0369811,383.54261 63.7788282,383.311825 64.4350348,382.855817 C66.3847468,381.504477 66.9903476,378.561001 67.1777557,376.926046 C67.8417478,371.13252 65.6568024,368.703444 63.580854,368.384238 C63.3306058,368.345311 63.0820258,368.318062 62.8378947,368.333076 C63.1598808,367.402153 63.4996624,366.483464 63.8377756,365.60537 C64.4072294,365.44966 65.4137835,365.307297 66.5048659,365.801676 C67.085998,366.066939 68.2632771,366.605251 69.1725124,368.34976 L69.1725124,368.399253 L69.1953128,368.399253 C70.0834161,370.133196 70.7068123,373.036075 70.2407944,378.006562 L70.2407944,378.006562 Z M37.3136842,383.972481 L30.4724528,386.069005 L30.3300894,367.228647 L37.3309235,365.084298 L37.3136842,383.972481 Z M6.61823237,377.597267 L6.61823237,358.654586 L32.3960278,363.384834 L27.243138,364.96251 L27.3677061,381.406046 L6.61823237,377.597267 Z M24.0833366,352.549641 L34.4925521,354.459313 L36.602423,361.036949 L11.5125323,356.432937 L24.0833366,352.549641 Z M53.3851837,386.229164 L40.3833962,383.830117 L40.4006356,364.14114 L45.629712,362.557903 L54.2477061,364.01546 C53.4880636,365.956274 52.2318173,369.588767 51.6428997,373.718975 C50.87714,379.098201 51.4743992,383.290693 53.3851837,386.229164 L53.3851837,386.229164 Z M54.4512413,341.54261 L58.7060179,355.391349 L40.4034161,360.933513 L40.4034161,360.932957 L40.2477061,360.980783 L39.8461966,361.10257 L35.228282,346.700504 L54.4512413,341.54261 Z M62.3640914,371.59687 C62.5831976,371.420028 62.8000794,371.372203 63.1148361,371.417247 C63.5196822,371.480087 64.5534856,372.870912 64.1297319,376.575142 C63.9211917,378.396393 63.3545184,379.870634 62.6877458,380.333871 C62.5303674,380.441756 62.3373982,380.52406 61.9414499,380.43119 C61.1189672,380.224318 60.5611917,378.234566 61.0844886,374.826741 C61.1367627,374.483623 61.2029394,374.126602 61.2774578,373.761239 C61.4976763,372.900941 61.8530288,372.004497 62.3640914,371.59687 L62.3640914,371.59687 Z M69.1725124,363.820266 C68.7365243,363.516632 68.2788481,363.237466 67.775571,363.00835 C66.7912612,362.561795 65.851996,362.420544 65.0144985,362.412759 C65.3058987,361.135936 65.1529692,359.797386 64.519007,358.622332 C64.2270506,358.081239 63.8299901,357.626344 63.3912214,357.220941 L69.1725124,355.450852 L69.1725124,363.820266 Z M72.2416683,367.747496 L72.2416683,351.300068 L61.6567229,354.542173 L56.5166236,337.81113 L31.3210725,344.572838 L33.4292751,351.143801 L23.8959285,349.393732 L3.54907646,355.681637 L3.54907646,380.154248 L27.3916187,384.530256 L27.4344389,390.208111 L38.9419662,386.685172 L59.4628798,390.471706 L59.4745581,390.408866 C59.9505859,390.513414 60.4110427,390.588489 60.8297915,390.629084 C61.0828203,390.654665 61.3542006,390.6669 61.6372592,390.6669 C63.6514796,390.6669 66.3430387,390.004576 68.6419861,388.10547 C70.4893744,386.580068 72.7972195,383.63826 73.297716,378.291289 C73.7147964,373.831865 73.3499901,370.353414 72.2416683,367.747496 L72.2416683,367.747496 Z" id="Fill-38" fill="#2F4542"></path>
                <path d="M61.4898908,531.068743 L12.1153525,531.068743 C9.6428997,531.068743 7.63145978,529.057859 7.63145978,526.586518 C7.63145978,524.113509 9.6428997,522.102626 12.1153525,522.102626 L14.5761271,522.102626 L14.310864,520.07339 C14.2719364,519.786995 14.2268918,519.501156 14.2268918,519.204195 C14.2268918,514.170312 18.3226216,510.07625 23.3565045,510.07625 L32.6701887,510.07625 L32.9893942,508.965704 C34.6454816,503.212775 39.9802185,499.193231 45.9656008,499.193231 C53.4152135,499.193231 59.4773386,505.255357 59.4773386,512.704969 C59.4773386,512.971345 59.4578749,513.233827 59.4278451,513.641454 L59.3155114,515.282526 L61.4898908,515.282526 C65.8419861,515.282526 69.3832771,518.823817 69.3832771,523.175357 C69.3832771,527.527452 65.8419861,531.068743 61.4898908,531.068743 M62.5403774,512.262864 C62.305144,503.32344 54.9606356,496.124075 45.9656008,496.124075 C39.0125919,496.124075 32.7719563,500.54346 30.4029394,507.007094 L23.3565045,507.007094 C16.6665343,507.007094 11.2177954,512.418574 11.1577358,519.093529 C7.44405164,519.565664 4.56230387,522.745486 4.56230387,526.586518 C4.56230387,530.751206 7.95066534,534.137899 12.1153525,534.137899 L61.4898908,534.137899 C67.5353327,534.137899 72.452433,529.220798 72.452433,523.175357 C72.452433,517.485267 68.0942205,512.795059 62.5403774,512.262864" id="Fill-40" fill="#2F4542"></path>
                <path d="M24.7141847,548.48997 C22.4513843,548.48997 20.6095571,546.648143 20.6095571,544.385343 C20.6095571,542.122542 22.4513843,540.280715 24.7141847,540.280715 C26.9769851,540.280715 28.8188123,542.122542 28.8188123,544.385343 C28.8188123,546.648143 26.9769851,548.48997 24.7141847,548.48997 M24.7141847,537.211559 C20.7580377,537.211559 17.5404012,540.429196 17.5404012,544.385343 C17.5404012,548.34149 20.7580377,551.559126 24.7141847,551.559126 C28.6703317,551.559126 31.8879682,548.34149 31.8879682,544.385343 C31.8879682,540.429196 28.6703317,537.211559 24.7141847,537.211559" id="Fill-42" fill="#2F4542"></path>
                <path d="M11.9401231,554.742117 C10.6393883,554.742117 9.58111619,553.683845 9.58111619,552.38311 C9.58111619,551.082375 10.6393883,550.022991 11.9401231,550.022991 C13.240858,550.022991 14.3002423,551.082375 14.3002423,552.38311 C14.3002423,553.683845 13.240858,554.742117 11.9401231,554.742117 M11.9401231,546.953835 C8.94715392,546.953835 6.51196028,549.389029 6.51196028,552.38311 C6.51196028,555.376079 8.94715392,557.811273 11.9401231,557.811273 C14.9342046,557.811273 17.3693982,555.376079 17.3693982,552.38311 C17.3693982,549.389029 14.9342046,546.953835 11.9401231,546.953835" id="Fill-44" fill="#2F4542"></path>
                <path d="M32.5904985,525.633184 L29.0797934,525.633184 L37.1744906,514.492131 L37.1744906,513.477235 L26.7013227,513.477235 L26.4104786,518.322598 L27.5710745,518.322598 C27.6873009,515.478665 29.3406077,514.783531 31.3136763,514.783531 L33.8956822,514.783531 L25.8599325,525.924028 L25.8599325,526.938924 L37.0877378,526.938924 L37.3774697,521.775468 L36.2168739,521.775468 C35.9849772,523.545001 35.4911539,525.633184 32.5904985,525.633184" id="Fill-46" fill="#2F4542"></path>
                <path d="M40.2990904,513.230824 L41.0526157,513.230824 C41.4135293,511.802185 41.8534101,511.174896 42.8733108,511.174896 L44.3486634,511.174896 L40.0165879,517.092433 L40.0165879,517.861529 L46.5063595,517.861529 L46.6631817,514.879682 L45.9413545,514.879682 C45.5804409,516.197656 44.9364687,517.092433 44.1206594,517.092433 L42.3628044,517.092433 L46.6631817,511.174896 L46.6631817,510.405799 L40.4720397,510.405799 L40.2990904,513.230824 Z" id="Fill-48" fill="#2F4542"></path>
                <path d="M49.9719086,508.998959 L50.4156822,508.998959 C50.6286713,508.157013 50.8878173,507.787758 51.4884131,507.787758 L52.3581648,507.787758 L49.8056326,511.27455 L49.8056326,511.727778 L53.6299821,511.727778 L53.7222959,509.970479 L53.2968739,509.970479 C53.0838848,510.74736 52.7046197,511.27455 52.224143,511.27455 L51.1881152,511.27455 L53.7222959,507.787758 L53.7222959,507.333974 L50.0736763,507.333974 L49.9719086,508.998959 Z" id="Fill-50" fill="#2F4542"></path>
                <path d="M194.969366,53.9776604 L194.969366,46.7176802 C197.003051,47.3138272 198.505096,48.5317021 198.505096,50.5042145 C198.505096,52.6012949 196.783944,53.7279682 194.969366,53.9776604 L194.969366,53.9776604 Z M193.2788,40.8974618 C191.245116,40.3341251 190.243567,39.4265581 190.243567,37.8622284 C190.243567,35.889716 191.464222,34.7630427 193.2788,34.5111261 L193.2788,40.8974618 Z M194.969366,41.3356743 L194.969366,34.5111261 C196.564838,34.6384747 197.629784,35.0766872 197.629784,35.7951778 C197.629784,36.4836385 196.909625,36.6082066 196.909625,37.8928143 C196.909625,38.9883456 197.692068,40.3035392 199.194669,40.3035392 C200.758999,40.3035392 201.91737,39.2074518 201.91737,37.6431221 C201.91737,34.1057239 197.722653,33.0735889 194.969366,32.9796068 L194.969366,29.6924568 L193.2788,29.6924568 L193.2788,32.9796068 C189.742514,33.354423 186.487063,35.5760715 186.487063,39.6462205 C186.487063,42.900004 188.709267,44.7785343 193.2788,46.2182959 L193.2788,53.9776604 C191.494808,53.8225065 189.710816,53.2591698 189.710816,52.321573 C189.710816,51.849994 191.02601,51.5391301 191.02601,49.5972036 C191.02601,48.1574419 189.805355,47.374999 188.521859,47.374999 C186.957529,47.374999 185.861442,48.6590506 185.861442,50.1911261 C185.861442,53.9776604 190.149029,55.3562502 193.2788,55.5119603 L193.2788,59.456429 L194.969366,59.456429 L194.969366,55.5119603 C198.56738,55.2622681 202.261601,53.1034598 202.261601,48.5650685 C202.261601,44.8397061 200.289088,43.055714 194.969366,41.3356743 L194.969366,41.3356743 Z" id="Fill-52" fill="#2F4542"></path>
                <path d="M212.138177,27.462856 C212.437919,27.7625978 212.83053,27.9121907 213.223142,27.9121907 C213.615754,27.9121907 214.008365,27.7625978 214.308107,27.462856 L215.998117,25.7728461 C216.275059,26.3639881 216.434661,27.0068481 216.434661,27.6786256 C216.434661,28.8848222 215.964751,30.0181688 215.112794,30.8706812 C213.354383,32.6302046 210.489875,32.6302046 208.729795,30.8706812 C206.970272,29.1111579 206.970272,26.2477617 208.729795,24.4882383 C209.582308,23.6351698 210.715098,23.1663714 211.921851,23.1663714 C212.594185,23.1663714 213.237045,23.3259742 213.828187,23.6029156 L212.138177,25.2929255 C211.538693,25.8924091 211.538693,26.8633724 212.138177,27.462856 L212.138177,27.462856 Z M225.757243,22.4812473 L225.757243,39.4202741 L196.186796,68.9923893 L170.609756,43.4142363 L200.180203,13.8437895 L217.118673,13.8437895 L220.352993,17.0781092 L216.086538,21.3445641 C213.144731,19.410423 209.144095,19.7346336 206.559865,22.3183078 C203.603043,25.2751301 203.603043,30.0837895 206.559865,33.0406117 C208.037998,34.5181887 209.979368,35.2583674 211.921851,35.2583674 C213.863221,35.2583674 215.804592,34.5181887 217.282725,33.0406117 C219.868068,30.4558252 220.192278,26.4551897 218.257025,23.5139384 L222.52348,19.2474836 L225.757243,22.4812473 Z M234.921335,4.67969811 C234.321851,4.0802145 233.350888,4.0802145 232.751404,4.67969811 L222.52348,14.9076226 L218.389378,10.7746336 L198.909498,10.7746336 L166.269895,43.4142363 L196.186796,73.3322502 L228.826399,40.6909791 L228.826399,21.2105422 L224.69341,17.0775531 L234.921335,6.8496286 C235.520818,6.25014499 235.520818,5.27918173 234.921335,4.67969811 L234.921335,4.67969811 Z" id="Fill-54" fill="#2F4542"></path>
                <path d="M204.616326,191.326197 L211.331877,191.326197 C212.809454,191.326197 214.007865,190.168381 214.007865,188.739742 C214.007865,187.311102 212.809454,186.153287 211.331877,186.153287 L209.424985,186.153287 C209.424985,183.296564 207.028719,180.980377 204.073009,180.980377 C201.744032,180.980377 199.767627,182.421251 199.032453,184.428798 L197.626058,184.428798 C195.65577,184.428798 194.058073,185.973108 194.058073,187.877776 C194.058073,189.782443 195.65577,191.326197 197.626058,191.326197 L204.073009,191.326197 L204.616326,191.326197 Z" id="Fill-56" fill="#2F4542"></path>
                <path d="M228.926665,226.058598 L177.462276,226.058598 C177.986129,225.154924 178.285871,224.106105 178.285871,222.989442 L178.285871,176.952659 L221.254054,176.952659 L221.254054,187.694427 L231.995821,187.694427 L231.995821,222.989442 C231.995821,224.68112 230.619456,226.058598 228.926665,226.058598 L228.926665,226.058598 Z M172.359992,226.03691 C171.670975,225.96406 171.055364,225.668211 170.561541,225.178836 C169.974848,224.598816 169.65175,223.825827 169.65175,223.000008 L169.645076,187.68831 L175.216715,187.68831 L175.216715,222.989442 C175.216715,224.608826 173.952127,225.925688 172.359992,226.03691 L172.359992,226.03691 Z M224.32321,179.12259 L229.825891,184.625271 L224.32321,184.625271 L224.32321,179.12259 Z M223.423984,173.883503 L175.216715,173.883503 L175.216715,184.619154 L166.575921,184.619154 L166.582594,223.000008 C166.582594,224.649978 167.228234,226.199293 168.401621,227.361001 C169.422077,228.370892 170.737827,228.950356 172.147559,229.081597 L172.147559,229.127754 L172.625811,229.127754 C172.657509,229.12831 172.686983,229.136651 172.718681,229.136651 L172.781521,229.136651 L173.69743,229.127754 L228.926665,229.127754 C232.311134,229.127754 235.064977,226.375023 235.064977,222.989442 L235.064977,185.524497 L223.423984,173.883503 Z" id="Fill-58" fill="#2F4542"></path>
                <mask id="mask-4" fill="white">
                    <use xlink:href="#path-3"></use>
                </mask>
                <g id="Clip-61"></g>
                <polygon id="Fill-60" fill="#2F4542" mask="url(#mask-4)" points="184.454101 207.828401 196.730725 207.828401 196.730725 195.551778 184.454101 195.551778"></polygon>
                <polygon id="Fill-62" fill="#2F4542" mask="url(#mask-4)" points="184.454101 213.966713 196.730725 213.966713 196.730725 210.897557 184.454101 210.897557"></polygon>
                <polygon id="Fill-63" fill="#2F4542" mask="url(#mask-4)" points="199.774856 220.105025 225.862403 220.105025 225.862403 207.828401 199.774856 207.828401"></polygon>
                <polygon id="Fill-64" fill="#2F4542" mask="url(#mask-4)" points="199.774856 204.759245 225.862403 204.759245 225.862403 201.690089 199.774856 201.690089"></polygon>
                <polygon id="Fill-65" fill="#2F4542" mask="url(#mask-4)" points="199.774856 198.620933 225.862403 198.620933 225.862403 195.551778 199.774856 195.551778"></polygon>
                <polygon id="Fill-66" fill="#2F4542" mask="url(#mask-4)" points="184.212195 220.105025 196.488818 220.105025 196.488818 217.035869 184.212195 217.035869"></polygon>
                <polygon id="Fill-67" fill="#2F4542" mask="url(#mask-4)" points="202.372989 368.008421 199.303833 368.008421 199.303833 333.906256 202.372989 333.906256"></polygon>
                <polygon id="Fill-68" fill="#2F4542" mask="url(#mask-4)" points="235.172862 381.133386 232.103706 381.133386 232.103706 349.336286 200.838244 335.583198 169.574451 349.336286 169.574451 381.133386 166.505295 381.133386 166.505295 347.333744 200.838244 332.229315 235.172862 347.333744"></polygon>
                <polygon id="Fill-69" fill="#2F4542" mask="url(#mask-4)" points="200.838356 396.24827 166.445347 381.117148 187.114185 372.236115 188.32483 375.056691 174.142427 381.149958 200.838356 392.894387 227.573212 381.133275 221.983778 378.674169 223.218336 375.865827 235.195217 381.133275"></polygon>
                <polyline id="Fill-70" fill="#2F4542" mask="url(#mask-4)" points="175.315702 378.795456 175.315702 352.014443 187.781402 346.652457 187.781402 372.762804"></polyline>
                <polygon id="Fill-71" fill="#2F4542" mask="url(#mask-4)" points="210.003893 369.543277 206.934737 369.543277 206.934737 364.414856 210.003893 364.414856"></polygon>
                <polygon id="Fill-72" fill="#2F4542" mask="url(#mask-4)" points="216.161557 381.846705 207.851646 378.188632 209.086761 375.38029 216.161557 378.492822 222.321001 375.783468 222.321001 364.335444 225.390157 364.335444 225.390157 377.785454"></polygon>
                <polygon id="Fill-73" fill="#2F4542" mask="url(#mask-4)" points="216.161557 361.985724 207.851646 358.329319 209.086761 355.520977 216.161557 358.631841 223.238022 355.520977 224.47258 358.329319"></polygon>
                <path d="M216.161557,357.884044 L220.691607,363.427321 L225.472461,361.324679 L222.899353,358.168771 L216.161557,355.204719 L209.42543,358.168771 L206.852322,361.324679 L211.631507,363.427321 L216.161557,357.884044 Z M212.530177,367.177152 L201.924655,362.511968 L207.512977,355.65739 L216.161557,351.850836 L224.811249,355.65739 L230.399571,362.511968 L219.792937,367.177152 L216.161557,362.733299 L212.530177,367.177152 Z" id="Fill-74" fill="#2F4542" mask="url(#mask-4)"></path>
                <polygon id="Fill-75" fill="#2F4542" mask="url(#mask-4)" points="217.695968 380.16993 214.626812 380.16993 214.626812 360.309116 217.695968 360.309116"></polygon>
                <path d="M207.406761,380.334594 L190.714089,380.334594 C188.167674,380.334594 186.246324,377.520135 186.246324,373.786987 C186.246324,370.054395 188.167674,367.239936 190.714089,367.239936 L207.406761,367.239936 L207.406761,370.309092 L190.714089,370.309092 C190.307575,370.309092 189.31548,371.527523 189.31548,373.786987 C189.31548,376.047007 190.307575,377.265438 190.714089,377.265438 L207.406761,377.265438 L207.406761,380.334594 Z" id="Fill-76" fill="#2F4542" mask="url(#mask-4)"></path>
                <path d="M207.406761,370.308981 C207.000802,370.308981 206.008707,371.527412 206.008707,373.787432 C206.008707,376.046896 207.000802,377.265327 207.406761,377.265327 C207.812719,377.265327 208.806483,376.046896 208.806483,373.787432 C208.806483,371.527412 207.812719,370.308981 207.406761,370.308981 M207.406761,380.334483 C204.860902,380.334483 202.939551,377.520024 202.939551,373.787432 C202.939551,370.054284 204.860902,367.239825 207.406761,367.239825 C209.954288,367.239825 211.875639,370.054284 211.875639,373.787432 C211.875639,377.520024 209.954288,380.334483 207.406761,380.334483" id="Fill-77" fill="#2F4542" mask="url(#mask-4)"></path>
                <path d="M177.573331,524.298804 C173.168405,524.298804 169.584294,527.883472 169.584294,532.289509 C169.584294,536.694991 173.168405,540.278546 177.573331,540.278546 L185.290431,540.278546 L184.980123,542.07366 C184.565823,544.469927 184.115376,546.250582 183.488087,547.812131 C185.978336,547.005776 189.325545,545.219559 190.647968,541.320135 L191.00054,540.278546 L220.891861,540.278546 C227.047968,540.278546 232.05627,535.270244 232.05627,529.113581 C232.05627,522.959142 227.047968,517.95084 220.891861,517.95084 L214.803043,517.95084 L214.440461,516.928715 C211.968008,509.943452 205.33921,505.251575 197.946876,505.251575 C188.290073,505.251575 180.43339,513.107146 180.43339,522.764504 L180.43339,524.298804 L177.573331,524.298804 Z M177.678435,551.753263 L179.343976,549.156242 C180.43339,547.458447 181.072357,545.862419 181.612338,543.347702 L177.573331,543.347702 C171.475615,543.347702 166.515138,538.387225 166.515138,532.289509 C166.515138,526.242399 171.393311,521.311952 177.420401,521.231317 C178.207849,510.595766 187.113351,502.182419 197.946876,502.182419 C206.270689,502.182419 213.769795,507.241883 216.940719,514.881684 L220.891861,514.881684 C228.740203,514.881684 235.125426,521.265795 235.125426,529.113581 C235.125426,536.961923 228.740203,543.347702 220.891861,543.347702 L193.149895,543.347702 C189.914463,550.717791 181.142983,551.485219 180.75482,551.514693 L177.678435,551.753263 Z" id="Fill-78" fill="#2F4542" mask="url(#mask-4)"></path>
                <path d="M352.473509,70.0733505 C344.725823,70.0733505 338.421791,63.7687627 338.421791,56.0210765 C338.421791,51.258574 340.813609,46.8553168 344.820918,44.2466177 L345.51772,43.7922781 L345.51772,14.4453863 C345.51772,10.6088024 348.638038,7.48848461 352.473509,7.48848461 C356.308981,7.48848461 359.429299,10.6088024 359.429299,14.4453863 L359.429299,43.7922781 L360.126101,44.2466177 C364.13341,46.8553168 366.525227,51.258574 366.525227,56.0210765 C366.525227,63.7687627 360.221196,70.0733505 352.473509,70.0733505 M362.498455,42.1528739 L362.498455,14.4453863 C362.498455,8.91712413 358.001215,4.4193287 352.473509,4.4193287 C346.945803,4.4193287 342.448564,8.91712413 342.448564,14.4453863 L342.448564,42.1528739 C337.990252,45.3749593 335.352636,50.4983754 335.352636,56.0210765 C335.352636,65.4621092 343.033033,73.1425065 352.473509,73.1425065 C361.913986,73.1425065 369.594383,65.4621092 369.594383,56.0210765 C369.594383,50.4983754 366.956767,45.3749593 362.498455,42.1528739" id="Fill-79" fill="#2F4542" mask="url(#mask-4)"></path>
                <path d="M355.316052,46.3797895 L355.316052,26.160286 L349.630967,26.160286 L349.630967,46.3797895 C345.491305,47.6054499 342.469418,51.4314677 342.469418,55.9681907 C342.469418,61.4931162 346.948306,65.972004 352.473231,65.972004 C357.998713,65.972004 362.477601,61.4931162 362.477601,55.9681907 C362.477601,51.4314677 359.455158,47.6054499 355.316052,46.3797895" id="Fill-80" fill="#2F4542" mask="url(#mask-4)"></path>
                <polygon id="Fill-81" fill="#2F4542" mask="url(#mask-4)" points="370.6972 18.428282 390.913923 18.428282 390.913923 15.3591261 370.6972 15.3591261"></polygon>
                <polygon id="Fill-82" fill="#2F4542" mask="url(#mask-4)" points="370.6972 27.766435 390.913923 27.766435 390.913923 24.697279 370.6972 24.697279"></polygon>
                <polygon id="Fill-83" fill="#2F4542" mask="url(#mask-4)" points="370.6972 37.1057001 390.913923 37.1057001 390.913923 34.0365442 370.6972 34.0365442"></polygon>
                <path d="M362.061855,226.79088 L361.440683,224.55088 L363.306423,223.750085 L363.927595,225.990085 L362.061855,226.79088 Z M367.13967,224.612052 L365.614268,225.26659 L364.993096,223.02659 L366.733156,222.279738 L366.055817,220.700393 L364.530971,221.354931 L363.508846,217.587305 L361.822173,218.3108 L362.844298,222.078427 L360.978558,222.879221 L359.956433,219.111595 L358.270316,219.83509 L359.291885,223.602717 L357.551825,224.349569 L358.229164,225.928914 L359.754566,225.274375 L360.375738,227.514375 L358.635122,228.261227 L359.312461,229.840016 L360.837307,229.185478 L361.859988,232.95366 L363.546105,232.230165 L362.52398,228.461426 L364.38972,227.661188 L365.411845,231.42937 L367.098518,230.705875 L366.076393,226.937136 L367.817009,226.19084 L367.13967,224.612052 Z" id="Fill-84" fill="#2F4542" mask="url(#mask-4)"></path>
                <path d="M377.757871,224.98431 C376.789132,225.399722 376.58949,225.231221 376.296421,224.549434 L371.670165,213.766514 L371.077911,214.020655 C370.278785,215.425382 369.082042,216.300695 367.087841,217.198808 L367.503253,218.166991 L368.777295,217.620338 C369.746034,217.204926 369.946232,217.373982 370.239301,218.056326 L373.53368,225.734499 C373.826193,226.416842 373.811178,226.677656 372.841883,227.093625 L371.65793,227.601351 L372.073899,228.570645 L379.304405,225.468679 L378.888437,224.499384 L377.757871,224.98431 Z" id="Fill-85" fill="#2F4542" mask="url(#mask-4)"></path>
                <path d="M353.563535,230.199873 C352.760516,228.236814 351.05994,226.63745 349.416087,225.092584 C348.58137,224.309029 347.793366,223.567182 347.151063,222.811988 C345.693505,221.097509 345.074558,219.747281 343.239404,215.736636 C342.795074,214.767341 342.283456,213.649565 341.677299,212.347162 C339.288818,207.21596 341.960357,205.574888 342.250645,205.415841 L342.271778,205.405275 C342.826216,205.232882 345.118491,205.617708 349.234796,209.466526 C349.78423,209.980926 350.314757,210.461958 350.815809,210.919078 C354.442741,214.215682 354.932671,214.975325 354.092393,215.991889 C353.67142,216.501283 353.341648,216.574689 353.130328,216.586367 C352.412393,216.595265 351.600477,215.971869 351.373585,215.750538 L347.282304,212.502872 L345.378749,214.909704 L349.269831,217.986089 C349.653545,218.35034 351.163376,219.657192 353.073605,219.657192 C353.135889,219.657192 353.197617,219.655523 353.261013,219.652743 C354.10852,219.613815 355.35142,219.286824 356.45863,217.94605 C357.23996,217.000667 357.560834,216.102554 357.564171,215.233358 C357.823317,215.263388 358.078014,215.309545 358.343833,215.309545 C359.958769,215.309545 361.671579,214.7045 363.080199,212.916616 C363.631857,212.215364 363.936048,211.538026 364.096207,210.912405 C365.044926,211.698185 366.137676,212.505652 367.397815,213.276417 L368.998292,210.656596 C364.442105,207.872167 362.18709,204.482137 362.167071,204.452663 L361.46137,203.362693 L360.269633,203.878205 C360.158967,203.926586 360.056087,203.962733 359.947646,204.007221 C359.892592,203.977192 359.820854,203.937152 359.794161,203.923249 L359.699623,204.106209 C357.216048,205.087182 355.279126,205.213418 354.086276,204.447658 C353.124211,203.830379 352.709911,202.700369 352.532512,201.882336 L362.129811,197.86168 C363.135253,197.43737 364.286951,197.439039 365.290725,197.860012 L375.535889,202.142594 C377.057954,204.401501 379.325204,208.73747 380.053704,212.153637 C380.337319,213.484401 380.413505,214.798483 380.487468,216.070856 C380.588123,217.810916 380.682105,219.454769 381.367786,220.835027 L384.37855,226.382753 L357.043098,238.920191 C356.106614,236.555623 354.319841,232.047817 353.563535,230.199873 L353.563535,230.199873 Z M346.591619,197.781045 C347.207229,197.834431 348.891678,198.118602 350.529414,199.3932 L349.320437,199.899813 L349.329891,200.931948 C349.331559,201.099893 349.403297,205.063825 352.401271,207.013537 C354.224747,208.199714 356.625462,208.325394 359.543357,207.413934 C360.256842,207.977827 360.982562,208.736914 361.145501,209.487658 C361.213347,209.799635 361.237259,210.295682 360.668918,211.016397 C358.87714,213.296437 356.235631,211.738781 355.701768,211.388989 C354.889295,210.476417 353.894975,209.569962 352.881192,208.648493 C352.389593,208.20027 351.869633,207.728135 351.331321,207.224858 C347.54423,203.683567 344.899384,202.553557 343.170447,202.335007 C343.637021,199.379297 345.849215,198.123607 346.591619,197.781045 L346.591619,197.781045 Z M350.280834,192.014213 C350.990427,191.475901 351.792334,191.284044 352.573664,191.284044 C353.582999,191.284044 354.55007,191.602137 355.251321,191.906328 C356.069355,192.357331 357.730447,193.482892 359.355392,195.696199 L353.652512,198.085235 C351.751738,196.061561 349.541212,195.241303 348.045839,194.915424 C348.299424,194.140767 348.885561,193.072485 350.280834,192.014213 L350.280834,192.014213 Z M352.555869,169.352286 C352.286713,168.665494 351.695571,166.357648 352.472453,164.820568 C352.877299,164.02033 353.620258,163.485355 354.745819,163.182276 C358.369414,162.199078 359.999364,166.697986 360.08,166.92599 C360.115591,167.01886 363.632413,176.392604 367.851043,188.393398 C369.296922,191.862395 371.10427,195.130081 372.582959,197.580846 L366.474677,195.027758 C365.171718,194.48166 363.724727,194.345414 362.346693,194.611233 C361.062085,192.678761 359.694062,191.331869 358.540139,190.427082 L352.555869,169.352286 Z M384.091599,219.423627 C383.710109,218.652862 383.636703,217.374928 383.551063,215.894014 C383.474876,214.572147 383.388123,213.073994 383.055015,211.512445 C382.144667,207.244322 379.419742,202.300528 377.809255,200.021045 C377.362701,199.387082 373.363178,193.641382 370.714995,187.295086 C366.517498,175.343786 362.988441,165.940012 362.967865,165.887182 C362.086991,163.32464 359.065104,158.839635 353.949474,160.218224 C351.989196,160.744302 350.531639,161.857629 349.733625,163.436973 C348.181529,166.507797 349.634081,170.309903 349.650209,170.329366 L354.807547,188.510181 C352.948481,188.023031 350.559444,187.948512 348.42566,189.568453 C345.764687,191.588234 345.032294,193.860489 344.84711,195.213498 C342.791738,196.311809 340.093505,198.891035 340.014538,203.27594 C338.575333,204.492703 336.103992,207.6475 338.894538,213.64178 C339.498471,214.938066 340.007309,216.05028 340.449414,217.015126 C342.309593,221.079158 343.079801,222.760826 344.812632,224.798959 C345.565601,225.684282 346.45426,226.520667 347.314558,227.328691 C348.719285,228.650558 350.171281,230.015801 350.722939,231.362693 C351.767309,233.914669 354.784191,241.55169 354.784191,241.553358 L355.379225,243.059297 L388.642224,227.803607 L384.091599,219.423627 Z" id="Fill-86" fill="#2F4542" mask="url(#mask-4)"></path>
                <path d="M341.485386,383.946677 C341.765664,384.33484 342.165505,384.600103 342.738296,384.600103 C344.356568,384.600103 371.951722,384.375436 380.063658,384.153549 C386.449438,383.979488 388.52483,382.253331 389.764393,381.22064 C390.005744,381.021553 390.219845,380.845823 390.417819,380.705128 C391.342626,379.758077 399.016906,371.238514 390.978375,357.521573 C380.854999,342.796409 360.292933,343.896389 360.09051,343.910292 C359.829696,343.904175 349.766935,343.710649 340.508306,348.996449 C334.344413,352.514939 331.714582,356.568961 331.714582,362.551007 C331.714582,370.798077 338.363956,375.088445 342.553668,375.855873 C346.815674,376.63053 359.227432,375.280302 365.888485,374.357164 C367.829299,374.087452 376.191484,368.692655 379.942427,365.994979 C382.668465,364.036369 384.029259,363.910133 386.01345,365.425525 C386.924354,366.123996 387.450431,367.219527 387.45488,368.434622 C387.459329,369.608008 386.996647,370.700759 386.247015,371.281891 C385.448445,371.902506 373.303619,379.760858 370.204433,381.664413 L369.885227,381.859051 L341.485386,383.946677 Z M342.738296,387.669259 C340.73631,387.669259 338.409001,386.38632 337.882924,382.783857 L337.644354,381.151682 L368.914264,378.852735 C372.650193,376.53766 383.714502,369.347194 384.369597,368.854483 C384.381275,368.788306 384.508624,368.139329 384.149378,367.865168 C383.705605,367.52483 383.56769,367.472556 383.530431,367.466439 C383.449239,367.489239 383.100004,367.504254 381.734761,368.486896 C381.617978,368.572536 369.901911,376.898574 366.311126,377.39629 C364.423142,377.657104 347.713787,379.921573 342.002566,378.873867 C336.837998,377.929597 328.645426,372.662149 328.645426,362.551007 C328.645426,355.416151 331.834145,350.413966 338.985684,346.331583 C349.021752,340.602566 359.57778,340.839468 360.038236,340.843917 C360.814562,340.792755 382.410987,339.642169 393.567611,355.876608 C403.244433,372.385208 392.572735,382.894522 392.463182,382.999627 L392.240183,383.176469 C392.085585,383.276568 391.922089,383.418931 391.727452,383.580759 C390.282685,384.781394 387.596131,387.017501 380.147631,387.222705 C372.015118,387.442924 344.359905,387.669259 342.738296,387.669259 L342.738296,387.669259 Z" id="Fill-87" fill="#2F4542" mask="url(#mask-4)"></path>
                <polygon id="Fill-88" fill="#2F4542" mask="url(#mask-4)" points="378.478363 534.950093 375.302991 534.950093 375.302991 538.019249 378.478363 538.019249 378.478363 545.489994 366.494252 545.489994 366.494252 548.55915 378.478363 548.55915 378.478363 552.50195 381.547519 552.50195 381.547519 548.55915 389.444242 548.55915 389.444242 545.489994 381.547519 545.489994 381.547519 538.019249 389.444242 538.019249 389.444242 534.950093 381.547519 534.950093 381.547519 527.478236 389.444242 527.478236 389.444242 524.40908 381.547519 524.40908 381.547519 520.467392 378.478363 520.467392 378.478363 524.40908 370.582197 524.40908 370.582197 527.478236 378.478363 527.478236"></polygon>
                <path d="M394.332091,513.692393 L331.934634,513.692393 L331.934634,509.928103 C331.934634,505.856286 335.247364,502.542999 339.319738,502.542999 L342.160334,502.542999 L342.160334,506.73716 C342.160334,507.58578 342.847682,508.272016 343.69519,508.272016 C344.542697,508.272016 345.22949,507.58578 345.22949,506.73716 L345.22949,502.542999 L351.87942,502.542999 L351.87942,506.73716 C351.87942,507.58578 352.566769,508.272016 353.414276,508.272016 C354.261784,508.272016 354.948576,507.58578 354.948576,506.73716 L354.948576,502.542999 L361.599063,502.542999 L361.599063,506.73716 C361.599063,507.58578 362.285855,508.272016 363.133362,508.272016 C363.98087,508.272016 364.668218,507.58578 364.668218,506.73716 L364.668218,502.542999 L371.318149,502.542999 L371.318149,506.73716 C371.318149,507.58578 372.004941,508.272016 372.852449,508.272016 C373.699956,508.272016 374.387305,507.58578 374.387305,506.73716 L374.387305,502.542999 L381.037235,502.542999 L381.037235,506.73716 C381.037235,507.58578 381.724584,508.272016 382.571535,508.272016 C383.419043,508.272016 384.106391,507.58578 384.106391,506.73716 L384.106391,502.542999 L386.946987,502.542999 C391.01936,502.542999 394.332091,505.856286 394.332091,509.928103 L394.332091,513.692393 Z M394.332091,549.737041 C394.332091,553.808302 391.01936,557.122145 386.946987,557.122145 L339.319738,557.122145 C335.247364,557.122145 331.934634,553.808302 331.934634,549.737041 L331.934634,516.761549 L394.332091,516.761549 L394.332091,549.737041 Z M386.946987,499.473843 L384.106391,499.473843 L384.106391,495.279126 C384.106391,494.431063 383.419043,493.74427 382.571535,493.74427 C381.724584,493.74427 381.037235,494.431063 381.037235,495.279126 L381.037235,499.473843 L374.387305,499.473843 L374.387305,495.279126 C374.387305,494.431063 373.699956,493.74427 372.852449,493.74427 C372.004941,493.74427 371.318149,494.431063 371.318149,495.279126 L371.318149,499.473843 L364.668218,499.473843 L364.668218,495.279126 C364.668218,494.431063 363.98087,493.74427 363.133362,493.74427 C362.285855,493.74427 361.599063,494.431063 361.599063,495.279126 L361.599063,499.473843 L354.948576,499.473843 L354.948576,495.279126 C354.948576,494.431063 354.261784,493.74427 353.414276,493.74427 C352.566769,493.74427 351.87942,494.431063 351.87942,495.279126 L351.87942,499.473843 L345.22949,499.473843 L345.22949,495.279126 C345.22949,494.431063 344.542697,493.74427 343.69519,493.74427 C342.847682,493.74427 342.160334,494.431063 342.160334,495.279126 L342.160334,499.473843 L339.319738,499.473843 C333.555686,499.473843 328.865478,504.162939 328.865478,509.928103 L328.865478,549.737041 C328.865478,555.501648 333.555686,560.191301 339.319738,560.191301 L386.946987,560.191301 C392.711595,560.191301 397.401247,555.501648 397.401247,549.737041 L397.401247,509.928103 C397.401247,504.162939 392.711595,499.473843 386.946987,499.473843 L386.946987,499.473843 Z" id="Fill-89" fill="#2F4542" mask="url(#mask-4)"></path>
                <path d="M352.098193,552.26516 C356.621569,552.26516 360.669474,550.267067 363.438888,547.118387 C363.045164,547.148973 362.65144,547.177891 362.24993,547.177891 C353.904429,547.177891 347.138828,540.412846 347.138828,532.067345 C347.138828,528.244663 348.569692,524.764544 350.909791,522.103015 C343.121509,522.71084 336.98709,529.209509 336.98709,537.154058 C336.98709,545.499559 343.752691,552.26516 352.098193,552.26516" id="Fill-90" fill="#2F4542" mask="url(#mask-4)"></path>
                <polygon id="Fill-91" fill="#2F4542" mask="url(#mask-4)" points="357.105049 527.955766 359.776032 526.551595 362.447015 527.955766 361.937065 524.981704 364.097541 522.87517 361.111245 522.441406 359.776032 519.735388 358.440262 522.441406 355.454522 522.87517 357.614999 524.981704"></polygon>
                <polygon id="Fill-92" fill="#2F4542" mask="url(#mask-4)" points="353.335976 540.594193 356.006959 539.190022 358.677942 540.594193 358.167992 537.620131 360.328469 535.514153 357.342173 535.079833 356.006959 532.373815 354.67119 535.079833 351.684894 535.514153 353.845927 537.620131"></polygon>
                <polygon id="Fill-93" fill="#2F4542" mask="url(#mask-4)" points="365.998316 535.07861 365.488365 538.052671 368.159349 536.6485 370.830332 538.052671 370.319825 535.07861 372.480858 532.972075 369.494562 532.538312 368.159349 529.832294 366.823579 532.538312 363.837283 532.972075"></polygon>
                <path d="M546.315424,29.0978669 L545.809923,26.5770328 L545.763766,26.324004 L556.025057,29.2241033 L554.642018,31.5781053 L546.315424,29.0978669 Z M502.828949,67.0872214 L501.607182,61.0673605 L549.285037,61.0673605 L548.063269,67.0872214 L502.828949,67.0872214 Z M496.250201,31.5781053 L494.870499,29.2296643 L505.120667,26.3668242 L505.082296,26.5770328 L504.576794,29.0978669 L496.250201,31.5781053 Z M531.632524,25.339138 L531.632524,18.0441231 L534.195067,18.2287507 L535.047579,25.339138 L531.632524,25.339138 Z M512.385652,28.4082939 L522.32885,28.4082939 L528.563368,28.4082939 L538.506566,28.4082939 L543.047182,28.4082939 L548.98029,57.9982046 L501.911929,57.9982046 L507.845037,28.4082939 L512.385652,28.4082939 Z M512.753795,25.339138 L508.429505,25.339138 L508.569088,24.5794955 C508.573537,24.5483535 509.151889,21.4908759 511.559833,20.9141927 C512.05032,20.7957418 512.646467,20.6884131 513.323249,20.5905382 L512.753795,25.339138 Z M519.259694,25.339138 L515.84464,25.339138 L516.697152,18.2287507 L519.259694,18.0441231 L519.259694,25.339138 Z M537.568969,20.5916504 C538.24464,20.6895253 538.841343,20.7962979 539.333498,20.9141927 C541.74033,21.4908759 542.318681,24.5483535 542.326467,24.5928421 L542.463269,25.339138 L538.138423,25.339138 L537.568969,20.5916504 Z M522.32885,20.0038451 C524.361978,19.9749275 527.025732,19.9715909 528.563368,19.9727031 L528.563368,25.339138 L522.32885,25.339138 L522.32885,20.0038451 Z M496.911412,18.5507368 C501.490955,15.533855 511.285672,10.4749474 525.445831,10.4749474 C539.606546,10.4749474 549.401263,15.533855 553.980806,18.5507368 C555.222038,19.3676584 556.022276,20.6967547 556.177986,22.1982443 L556.59451,26.1966554 L545.046943,22.932862 C544.523646,21.3763178 543.187321,18.681422 540.049764,17.9290089 C539.272326,17.7421569 538.311372,17.5803297 537.191929,17.4435273 L536.940568,15.3481152 L528.563368,14.7475194 L528.563368,16.9046594 C527.029625,16.9035472 524.387003,16.9052155 522.32885,16.9346892 L522.32885,14.7475194 L513.95165,15.3481152 L513.700846,17.4429712 C512.578066,17.5797736 511.618224,17.7421569 510.842455,17.9290089 C507.664858,18.6908759 506.334649,21.4452751 505.82748,22.9834677 L494.297708,26.2038848 L494.712564,22.1982443 C494.869942,20.6967547 495.670181,19.3676584 496.911412,18.5507368 L496.911412,18.5507368 Z M559.725394,26.6254141 L559.230459,21.8807071 C558.978542,19.4605283 557.681144,17.3128421 555.668592,15.9881946 C550.803766,12.7827925 540.406785,7.40579146 525.445831,7.40579146 C510.485434,7.40579146 500.088453,12.7827925 495.223627,15.9881946 C493.211074,17.3128421 491.91312,19.4605283 491.660091,21.8807071 L491.168493,26.6254141 C491.030578,27.9394955 491.312524,29.2341132 491.980965,30.3719086 L494.823786,35.2044806 L503.893895,32.5023555 L498.833875,57.7390586 C498.615325,58.8284727 498.504103,59.945136 498.504103,61.0567944 L500.32035,70.1563774 L550.571869,70.1563774 L552.358085,61.3626534 L552.388115,61.0567944 C552.388115,59.945136 552.276894,58.8284727 552.058344,57.7390586 L546.997768,32.5023555 L556.068433,35.2044806 L558.911253,30.3719086 C559.579694,29.2341132 559.861641,27.9394955 559.725394,26.6254141 L559.725394,26.6254141 Z" id="Fill-94" fill="#2F4542" mask="url(#mask-4)"></path>
                <path d="M530.039277,43.0108361 C530.039277,45.281422 527.9789,47.1288103 525.445831,47.1288103 C522.913319,47.1288103 520.852941,45.281422 520.852941,43.0108361 C520.852941,40.7402502 522.913319,38.8939742 525.445831,38.8939742 C527.9789,38.8939742 530.039277,40.7402502 530.039277,43.0108361 M525.445831,33.5069633 C531.200429,33.5069633 535.882296,37.7700814 535.882296,43.0108361 C535.882296,43.6414618 535.811114,44.2570725 535.681541,44.8537756 C534.36746,44.6858312 533.4788,44.3527229 532.989982,44.1113724 C533.049486,43.7499027 533.108433,43.3878769 533.108433,43.0108361 C533.108433,39.048572 529.670578,35.8248183 525.445831,35.8248183 C521.221641,35.8248183 517.783786,39.048572 517.783786,43.0108361 C517.783786,46.9747686 521.221641,50.1979662 525.445831,50.1979662 C528.114034,50.1979662 530.461919,48.9089096 531.834947,46.9630904 C532.461124,47.2539345 533.329208,47.562574 534.462554,47.7755631 C532.652425,50.6055929 529.293537,52.5163774 525.445831,52.5163774 C519.691233,52.5163774 515.009923,48.2527031 515.009923,43.0108361 C515.009923,37.7700814 519.691233,33.5069633 525.445831,33.5069633 M525.445831,55.5855333 C529.718403,55.5855333 533.527182,53.7231301 536.003527,50.8308163 L538.951452,50.8308163 L538.951452,44.9499821 L538.773498,44.9516504 C538.879714,44.3171321 538.951452,43.6726038 538.951452,43.0108361 C538.951452,36.0784032 532.892663,30.4378073 525.445831,30.4378073 C517.999555,30.4378073 511.940767,36.0784032 511.940767,43.0108361 C511.940767,49.9449374 517.999555,55.5855333 525.445831,55.5855333" id="Fill-95" fill="#2F4542" mask="url(#mask-4)"></path>
                <path d="M552.217501,220.267964 L551.922765,220.267964 L555.908941,214.724687 L556.79204,215.952572 C556.640222,218.354399 554.6577,220.267964 552.217501,220.267964 L552.217501,220.267964 Z M536.691543,220.267964 L540.678276,214.724687 L544.664453,220.267964 L536.691543,220.267964 Z M521.459766,220.267964 L525.446499,214.724687 L529.433231,220.267964 L521.459766,220.267964 Z M506.228544,220.267964 L510.215277,214.724687 L514.201454,220.267964 L506.228544,220.267964 Z M498.675496,220.267964 C496.235297,220.267964 494.252775,218.354399 494.100957,215.952572 L494.9835,214.724687 L498.970232,220.267964 L498.675496,220.267964 Z M498.675496,182.742959 L498.970232,182.742959 L494.9835,188.286236 L494.100957,187.058352 C494.252775,184.656524 496.235297,182.742959 498.675496,182.742959 L498.675496,182.742959 Z M556.79204,187.058352 L555.909498,188.286236 L551.922765,182.742959 L552.217501,182.742959 C554.6577,182.742959 556.640222,184.656524 556.79204,187.058352 L556.79204,187.058352 Z M550.183817,201.505462 L550.183817,201.505462 L550.183817,201.505462 L555.908941,193.54423 L556.820957,194.813267 L556.820957,208.199325 L555.909498,209.467249 L550.183817,201.505462 Z M545.431325,208.114796 L548.293609,204.134181 L554.018733,212.095968 L548.293609,220.056643 L542.568485,212.095968 L545.431325,208.114796 Z M530.199547,208.114796 L533.062387,204.134181 L535.925227,208.114796 L538.787511,212.095968 L533.062387,220.056643 L527.336707,212.095968 L530.199547,208.114796 Z M517.83061,204.134181 L520.69345,208.114796 L523.555734,212.095968 L517.83061,220.056643 L512.106042,212.095968 L517.83061,204.134181 Z M502.599388,204.134181 L505.462228,208.114796 L508.325069,212.095968 L502.599388,220.056643 L496.874264,212.095968 L502.599388,204.134181 Z M508.325069,190.914955 L505.462228,194.896127 L502.599388,198.876743 L496.874264,190.914955 L502.599388,182.952612 L508.325069,190.914955 Z M510.215277,188.286236 L506.2291,182.742959 L514.20201,182.742959 L510.215277,188.286236 Z M525.446499,188.286236 L521.459766,182.742959 L529.433231,182.742959 L525.446499,188.286236 Z M540.677164,188.286236 L536.691543,182.742959 L544.663897,182.742959 L540.677164,188.286236 Z M545.430769,194.896127 L542.567929,190.914955 L548.293609,182.952612 L554.018733,190.914955 L548.293609,198.876743 L545.430769,194.896127 Z M520.69345,194.896127 L517.83061,198.876743 L512.106042,190.914955 L517.83061,182.95428 L523.555734,190.914955 L520.69345,194.896127 Z M538.786955,190.914955 L533.062387,198.876743 L530.199547,194.896127 L527.336707,190.914955 L533.062387,182.952612 L538.787511,190.914399 L538.786955,190.914955 L538.786955,190.914955 Z M504.490153,201.505462 L507.352993,197.52429 L510.215277,193.543674 L515.940401,201.504906 L515.939845,201.505462 L515.940401,201.506018 L510.215277,209.467249 L507.352993,205.486634 L504.490153,201.505462 Z M525.446499,209.467249 L522.583658,205.486634 L519.720818,201.505462 L522.583658,197.52429 L525.446499,193.543674 L528.309339,197.52429 L531.171623,201.505462 L528.309339,205.486634 L525.446499,209.467249 Z M540.678276,209.467249 L537.815436,205.486634 L534.952596,201.505462 L540.677164,193.543674 L543.540004,197.52429 L546.402844,201.505462 L543.54056,205.486634 L540.678276,209.467249 Z M494.071484,208.199325 L494.071484,194.813267 L494.984056,193.54423 L500.70918,201.505462 L500.70918,201.505462 L500.70918,201.505462 L494.9835,209.467249 L494.071484,208.199325 Z M552.217501,179.673803 L498.675496,179.673803 C494.444632,179.673803 491.002328,183.116107 491.002328,187.346415 L491.002328,215.664508 C491.002328,219.894816 494.444632,223.33712 498.675496,223.33712 L501.177422,223.33712 L501.184095,223.346018 L504.015237,223.346018 L504.021355,223.33712 L516.408643,223.33712 L516.415317,223.346018 L519.245903,223.346018 L519.252576,223.33712 L531.640421,223.33712 L531.647094,223.346018 L534.47768,223.346018 L534.484354,223.33712 L546.871643,223.33712 L546.87776,223.346018 L549.708902,223.346018 L549.715575,223.33712 L552.217501,223.33712 C556.447809,223.33712 559.890113,219.894816 559.890113,215.664508 L559.890113,187.346415 C559.890113,183.116107 556.447809,179.673803 552.217501,179.673803 L552.217501,179.673803 Z" id="Fill-96" fill="#2F4542" mask="url(#mask-4)"></path>
                <path d="M545.331448,398.001287 L505.561438,398.001287 L505.561438,360.109251 C505.561438,359.376302 506.084735,358.74234 506.804894,358.601644 L512.097923,357.576739 L538.796632,357.576739 L544.089104,358.601644 C544.809263,358.74234 545.331448,359.376302 545.331448,360.109251 L545.331448,398.001287 Z M508.679531,342.131972 L508.679531,340.092171 C508.679531,339.245776 509.367992,338.557871 510.213831,338.557871 L540.679055,338.557871 C541.524894,338.557871 542.213355,339.245776 542.213355,340.092171 L542.213355,342.131972 C542.213355,342.803194 541.785152,343.390443 541.147297,343.594534 L538.70543,344.375309 L512.18968,344.375309 L509.746145,343.594534 C509.107734,343.390443 508.679531,342.801525 508.679531,342.131972 L508.679531,342.131972 Z M513.483742,347.444465 L537.4097,347.444465 L537.4097,354.507583 L513.483742,354.507583 L513.483742,347.444465 Z M544.673573,355.589212 L540.478856,354.776739 L540.478856,347.030165 L542.081557,346.516878 C543.99679,345.90516 545.28251,344.142856 545.28251,342.131972 L545.28251,340.092171 C545.28251,337.553541 543.217684,335.488715 540.679055,335.488715 L537.829005,335.488715 L539.559055,327.407364 L511.949442,327.407364 L513.679492,335.488715 L510.213831,335.488715 C507.675202,335.488715 505.610375,337.553541 505.610375,340.092171 L505.610375,342.131972 C505.610375,344.142856 506.897764,345.90516 508.811885,346.516878 L510.414586,347.029609 L510.414586,354.797315 L506.220425,355.589212 C504.059948,356.009072 502.492282,357.909291 502.492282,360.109251 L502.492282,401.070443 L548.400604,401.070443 L548.400604,360.109251 C548.400604,357.909291 546.832937,356.009072 544.673573,355.589212 L544.673573,355.589212 Z" id="Fill-97" fill="#2F4542" mask="url(#mask-4)"></path>
                <path d="M515.839579,376.292306 C515.839579,372.441263 519.25797,367.947917 522.187543,367.947917 C519.25797,367.947917 515.839579,363.45457 515.839579,359.603527 C515.839579,363.45457 512.421744,367.947917 509.491615,367.947917 C512.421744,367.947917 515.839579,372.441263 515.839579,376.292306" id="Fill-98" fill="#2F4542" mask="url(#mask-4)"></path>
                <path d="M537.499845,363.35397 C537.499845,366.754566 534.481851,370.721835 531.89484,370.721835 C534.481851,370.721835 537.499845,374.68966 537.499845,378.090256 C537.499845,374.68966 540.517839,370.721835 543.10485,370.721835 C540.517839,370.721835 537.499845,366.754566 537.499845,363.35397" id="Fill-99" fill="#2F4542" mask="url(#mask-4)"></path>
                <path d="M525.984143,380.891702 C525.984143,384.292298 522.966149,388.259567 520.379138,388.259567 C522.966149,388.259567 525.984143,392.227392 525.984143,395.627432 C525.984143,392.227392 529.002137,388.259567 531.589148,388.259567 C529.002137,388.259567 525.984143,384.292298 525.984143,380.891702" id="Fill-100" fill="#2F4542" mask="url(#mask-4)"></path>
                <path d="M521.776302,373.024064 C523.718228,373.024064 525.984365,376.002018 525.984365,378.555106 C525.984365,376.002018 528.249946,373.024064 530.191873,373.024064 C528.249946,373.024064 525.984365,370.045553 525.984365,367.492465 C525.984365,370.045553 523.718228,373.024064 521.776302,373.024064" id="Fill-101" fill="#2F4542" mask="url(#mask-4)"></path>
                <path d="M512.836655,379.769255 C512.836655,382.322344 510.571074,385.300854 508.629148,385.300854 C510.571074,385.300854 512.836655,388.278808 512.836655,390.831897 C512.836655,388.278808 515.102236,385.300854 517.044719,385.300854 C515.102236,385.300854 512.836655,382.322344 512.836655,379.769255" id="Fill-102" fill="#2F4542" mask="url(#mask-4)"></path>
                <path d="M533.367913,386.577065 C533.367913,384.023976 535.633494,381.045466 537.575976,381.045466 C535.633494,381.045466 533.367913,378.067511 533.367913,375.514423 C533.367913,378.067511 531.102332,381.045466 529.159849,381.045466 C531.102332,381.045466 533.367913,384.023976 533.367913,386.577065" id="Fill-103" fill="#2F4542" mask="url(#mask-4)"></path>
                <path d="M530.959468,368.772123 C530.959468,367.136612 532.410908,365.228608 533.65492,365.228608 C532.410908,365.228608 530.959468,363.32116 530.959468,361.685648 C530.959468,363.32116 529.508028,365.228608 528.264016,365.228608 C529.508028,365.228608 530.959468,367.136612 530.959468,368.772123" id="Fill-104" fill="#2F4542" mask="url(#mask-4)"></path>
                <path d="M523.501513,366.620544 C523.501513,364.985033 524.952953,363.077029 526.196965,363.077029 C524.952953,363.077029 523.501513,361.169025 523.501513,359.53407 C523.501513,361.169025 522.050073,363.077029 520.806062,363.077029 C522.050073,363.077029 523.501513,364.985033 523.501513,366.620544" id="Fill-105" fill="#2F4542" mask="url(#mask-4)"></path>
                <path d="M519.730606,376.323059 C519.730606,377.95857 518.279166,379.866574 517.035154,379.866574 C518.279166,379.866574 519.730606,381.774022 519.730606,383.409533 C519.730606,381.774022 521.182046,379.866574 522.426058,379.866574 C521.182046,379.866574 519.730606,377.95857 519.730606,376.323059" id="Fill-106" fill="#2F4542" mask="url(#mask-4)"></path>
                <path d="M518.197307,388.737652 C518.197307,390.373164 516.745867,392.281168 515.501855,392.281168 C516.745867,392.281168 518.197307,394.188616 518.197307,395.824127 C518.197307,394.188616 519.648747,392.281168 520.892759,392.281168 C519.648747,392.281168 518.197307,390.373164 518.197307,388.737652" id="Fill-107" fill="#2F4542" mask="url(#mask-4)"></path>
                <path d="M511.67339,379.445768 C511.67339,377.810256 513.12483,375.902252 514.368842,375.902252 C513.12483,375.902252 511.67339,373.994248 511.67339,372.359293 C511.67339,373.994248 510.22195,375.902252 508.977938,375.902252 C510.22195,375.902252 511.67339,377.810256 511.67339,379.445768" id="Fill-108" fill="#2F4542" mask="url(#mask-4)"></path>
                <path d="M535.441414,387.790546 C535.441414,389.426058 533.989974,391.334062 532.745962,391.334062 C533.989974,391.334062 535.441414,393.241509 535.441414,394.877021 C535.441414,393.241509 536.892854,391.334062 538.136866,391.334062 C536.892854,391.334062 535.441414,389.426058 535.441414,387.790546" id="Fill-109" fill="#2F4542" mask="url(#mask-4)"></path>
                <path d="M538.944222,381.098908 C538.944222,382.734419 537.492783,384.641867 536.248771,384.641867 C537.492783,384.641867 538.944222,386.549871 538.944222,388.185382 C538.944222,386.549871 540.395662,384.641867 541.639674,384.641867 C540.395662,384.641867 538.944222,382.734419 538.944222,381.098908" id="Fill-110" fill="#2F4542" mask="url(#mask-4)"></path>
                <path d="M545.476536,550.749267 C540.438205,557.916933 530.509466,559.646427 523.342912,554.609764 L509.669347,544.996894 L527.940806,519.004997 L541.61604,528.617867 C545.07169,531.046943 547.377311,534.695007 548.109704,538.888056 C548.840985,543.081104 547.905613,547.293617 545.476536,550.749267 M499.166705,531.90891 C498.524401,528.226367 499.168373,524.531035 500.978502,521.345096 L515.412266,531.491829 L507.159078,543.232365 L505.660369,542.178542 C502.204163,539.749466 499.897986,536.101958 499.166705,531.90891 M512.070618,513.552365 C513.002097,513.390538 513.933021,513.309903 514.857827,513.309903 C518.097152,513.309903 521.244163,514.295881 523.932385,516.187202 L525.430538,517.239913 L517.177907,528.979893 L502.744143,518.833716 C505.129843,516.051511 508.389188,514.194669 512.070618,513.552365 M543.38168,526.106487 L528.454649,515.613299 C528.453537,515.612187 528.452981,515.611074 528.451869,515.609962 C528.450201,515.609406 528.449088,515.60885 528.44742,515.608294 L525.698026,513.675265 C521.570598,510.775722 516.545057,509.65739 511.542872,510.529923 C506.542356,511.401899 502.19026,514.15463 499.289049,518.280389 C493.278085,526.83165 495.34458,538.679515 503.894729,544.690479 L506.64746,546.625732 C506.648016,546.625732 506.648016,546.626288 506.648016,546.626288 L506.65024,546.6274 L521.577827,557.121144 C524.789903,559.378383 528.545851,560.556218 532.411909,560.556218 C533.513001,560.556218 534.623547,560.460012 535.732425,560.267043 C540.734054,559.39451 545.086149,556.64178 547.986804,552.514352 C550.888016,548.389148 552.005235,543.361382 551.133259,538.36031 C550.260727,533.359237 547.507996,529.007698 543.38168,526.106487" id="Fill-111" fill="#2F4542" mask="url(#mask-4)"></path>
                <path d="M543.30883,503.867702 L541.842375,503.867702 C541.549307,506.104922 540.924798,508.74365 537.258383,508.74365 L532.820647,508.74365 L543.052465,494.661903 L543.052465,493.379519 L529.814332,493.379519 L529.447301,499.503929 L530.913756,499.503929 C531.060568,495.908695 533.150975,495.030046 535.64456,495.030046 L538.908354,495.030046 L528.750499,509.111793 L528.750499,510.394733 L542.942356,510.394733 L543.30883,503.867702 Z" id="Fill-112" fill="#2F4542" mask="url(#mask-4)"></path>
                <path d="M555.045863,493.379464 L547.220322,493.379464 L547.001772,496.950228 L547.953827,496.950228 C548.409835,495.144548 548.965942,494.352095 550.254999,494.352095 L552.120183,494.352095 L546.644751,501.831182 L546.644751,502.803257 L554.847889,502.803257 L555.045863,499.034518 L554.133291,499.034518 C553.677283,500.700616 552.863698,501.831182 551.832119,501.831182 L549.609915,501.831182 L555.045863,494.352095 L555.045863,493.379464 Z" id="Fill-113" fill="#2F4542" mask="url(#mask-4)"></path>
            </g>
        </g>
    </g>
</svg>