<svg width="36" height="53" viewBox="0 0 36 53" fill="none" xmlns="http://www.w3.org/2000/svg">
<path fill-rule="evenodd" clip-rule="evenodd" d="M17.9997 0C34.5303 0 35.9994 9.7821 35.9994 18.9782L36 49.9315C36 51.5356 35.2652 52.4102 33.7961 52.4102H25.5673C24.1713 52.4102 23.3622 51.6808 23.3622 50.2207V46.3875C23.3623 46.0999 23.3053 45.8152 23.1946 45.5494C23.0839 45.2837 22.9215 45.0423 22.7169 44.8389C22.5122 44.6355 22.2692 44.4742 22.0018 44.3641C21.7344 44.254 21.4477 44.1974 21.1583 44.1974H14.8394C13.4445 44.1974 12.6354 44.9274 12.6354 46.3875V50.2177C12.6354 50.7984 12.4032 51.3554 11.9899 51.766C11.5766 52.1766 11.016 52.4073 10.4315 52.4073H2.20392C0.809096 52.4073 0 51.5356 0 49.9285V18.9782C0 9.7821 1.46909 0 17.9997 0ZM28.2628 11.2342C28.2631 10.4599 27.8356 10.0728 26.9802 10.0728H9.02029C8.20763 10.0728 7.73774 10.4599 7.73774 11.2342V36.0102C7.73774 36.7462 8.20763 37.1717 9.02029 37.1717H26.9832C27.8382 37.1717 28.2657 36.7845 28.2657 36.0102V31.6748C28.2661 30.9005 27.8386 30.5134 26.9832 30.5134H16.6348C15.8222 30.5134 15.3523 30.0873 15.3523 29.3519V28.1126C15.3523 27.3382 15.8222 26.9511 16.6348 26.9511H26.9832C27.838 26.9511 28.2657 26.5256 28.2657 25.7902V21.4548C28.2653 20.6805 27.8378 20.2934 26.9832 20.2934H16.6348C15.8222 20.2934 15.3523 19.8678 15.3523 19.1319V17.8925C15.3523 17.1182 15.8222 16.7311 16.6348 16.7311H26.9802C27.8356 16.7311 28.2628 16.3056 28.2628 15.5696V11.2342Z" fill="#1169FE"/>
</svg>
