<svg width="1300" height="671" viewBox="0 0 1300 671" fill="none" xmlns="http://www.w3.org/2000/svg">
<path d="M1136.88 355.86C1144.66 355.86 1149.69 359.04 1152.9 366.195L1215.07 515.657C1216.9 519.711 1220.54 518.837 1220.54 514.305V369.359C1220.54 360.376 1225.58 355.86 1234.27 355.86H1285.46C1294.61 355.86 1299.19 360.376 1299.19 369.359V656.723C1299.19 665.245 1294.61 670.174 1285.46 670.174H1218.27C1210.49 670.174 1205.47 666.994 1202.26 659.839L1140.09 510.378C1138.26 506.339 1134.59 507.198 1134.59 511.729V656.771C1134.59 665.293 1130.04 670.222 1120.89 670.222H1069.68C1060.98 670.222 1055.96 665.293 1055.96 656.771V369.359C1055.96 360.376 1060.98 355.86 1069.68 355.86H1136.88Z" fill="#1169FE"/>
<path d="M1012.63 654.913C1012.63 664.787 1008.08 670.177 998.912 670.177H947.718C939.023 670.177 934.004 665.677 934.004 656.725V617.643C934.004 608.659 929.422 604.191 920.291 604.191H880.964C872.269 604.191 867.25 608.659 867.25 617.643V656.725C867.25 665.677 862.668 670.177 853.537 670.177H802.326C793.648 670.177 788.613 664.787 788.613 654.913V464.524C788.613 407.967 797.744 347.801 900.635 347.801C1003.53 347.801 1012.63 407.967 1012.63 464.524V654.913ZM934.004 464.524C934.004 442.995 930.766 432.199 900.635 432.199C870.505 432.199 867.25 442.995 867.25 464.524V513.465C867.25 522.003 872.269 526.932 880.964 526.932H920.291C929.422 526.503 934.004 522.003 934.004 513.035V464.524Z" fill="#1169FE"/>
<path d="M593.654 355.86C602.818 355.86 607.367 360.376 607.367 369.359V579.464C607.367 588.018 612.419 592.963 621.097 592.963H723.097C732.245 592.963 736.811 597.431 736.811 606.415V656.723C736.811 665.675 732.245 670.175 723.097 670.175H542.459C533.765 670.175 528.746 665.245 528.746 656.723V369.359C528.746 360.376 533.765 355.86 542.459 355.86H593.654Z" fill="#1169FE"/>
<path d="M341.288 355.86C350.435 355.86 355.001 360.376 355.001 369.359V579.464C355.001 588.018 360.036 592.963 368.714 592.963H470.715C479.846 592.963 484.428 597.431 484.428 606.415V656.723C484.428 665.675 479.846 670.174 470.715 670.174H290.077C281.399 670.174 276.363 665.245 276.363 656.723V369.359C276.363 360.376 281.399 355.86 290.077 355.86H341.288Z" fill="#1169FE"/>
<path d="M224.484 654.913C224.484 664.787 219.918 670.177 210.77 670.177H159.609C150.898 670.177 145.879 665.677 145.879 656.725V617.643C145.879 608.659 141.297 604.191 132.166 604.191H92.8071C84.129 604.191 79.0939 608.659 79.0939 617.643V656.725C79.0939 665.677 74.5281 670.177 65.3805 670.177H14.1703C5.4922 670.177 0.457031 664.787 0.457031 654.913V464.524C0.457031 407.967 9.60462 347.801 112.478 347.801C215.352 347.801 224.484 407.967 224.484 464.524V654.913ZM145.847 464.524C145.847 442.995 142.609 432.199 112.478 432.199C82.3481 432.199 79.0939 442.995 79.0939 464.524V513.465C79.0939 522.003 84.129 526.932 92.8071 526.932H132.085C141.216 526.503 145.798 522.003 145.798 513.035L145.847 464.524Z" fill="#1169FE"/>
<path d="M1297.09 298.37C1303.56 310.056 1296.18 322.617 1282.01 322.617H1229.9C1227.71 322.7 1225.54 322.149 1223.67 321.032C1221.8 319.916 1220.31 318.283 1219.37 316.337L1171.82 226.024C1171.44 225.387 1170.91 224.85 1170.27 224.459C1169.64 224.068 1168.91 223.836 1168.16 223.782H1149.88C1148 223.713 1146.13 224.025 1144.38 224.7C1142.63 225.375 1141.04 226.397 1139.7 227.702C1138.37 229.008 1137.33 230.569 1136.64 232.289C1135.95 234.008 1135.63 235.848 1135.7 237.695V308.705C1135.77 310.549 1135.44 312.387 1134.76 314.104C1134.07 315.821 1133.03 317.381 1131.7 318.686C1130.37 319.991 1128.78 321.013 1127.03 321.689C1125.28 322.366 1123.41 322.682 1121.53 322.617H1070.32C1068.45 322.682 1066.57 322.366 1064.83 321.689C1063.08 321.013 1061.49 319.991 1060.16 318.686C1058.83 317.381 1057.79 315.821 1057.1 314.104C1056.41 312.387 1056.09 310.549 1056.16 308.705V22.2313C1056.09 20.3863 1056.41 18.5477 1057.1 16.8298C1057.79 15.1119 1058.83 13.5513 1060.16 12.2451C1061.49 10.9389 1063.08 9.91492 1064.82 9.23673C1066.57 8.55854 1068.44 8.24065 1070.32 8.3028H1170.45C1251.83 8.3028 1284.75 42.4405 1284.75 116.074C1284.75 157.844 1274.23 187.005 1250.01 204.097C1249.14 204.769 1248.52 205.711 1248.27 206.769C1248.02 207.828 1248.15 208.938 1248.63 209.917L1297.09 298.37ZM1149.88 85.5617C1148 85.4929 1146.13 85.805 1144.38 86.4785C1142.63 87.1521 1141.04 88.1728 1139.71 89.4767C1138.38 90.7807 1137.34 92.34 1136.65 94.0574C1135.96 95.7748 1135.63 97.6134 1135.7 99.4585V132.69C1135.63 134.536 1135.96 136.376 1136.65 138.095C1137.34 139.814 1138.38 141.376 1139.71 142.682C1141.04 143.988 1142.63 145.012 1144.38 145.689C1146.13 146.367 1148 146.683 1149.88 146.618H1173.2C1195.15 146.618 1206.11 143.915 1206.11 116.074C1206.11 88.2329 1195.15 85.5617 1173.2 85.5617H1149.88Z" fill="#1169FE"/>
<path d="M1012.83 307.354C1012.83 317.228 1008.28 322.618 999.13 322.618H947.92C939.226 322.618 934.207 318.118 934.207 309.167V270.084C934.207 261.1 929.625 256.632 920.493 256.632H881.231C872.537 256.632 867.518 261.1 867.518 270.084V309.167C867.518 318.118 862.936 322.618 853.805 322.618H802.53C793.852 322.618 788.816 317.228 788.816 307.354V116.965C788.816 60.4084 797.948 0.242188 900.838 0.242188C1003.73 0.242188 1012.83 60.4084 1012.83 116.965V307.354ZM934.207 116.965C934.207 95.4365 930.968 84.6403 900.838 84.6403C870.708 84.6403 867.453 95.4365 867.453 116.965V165.906C867.453 174.444 872.472 179.373 881.167 179.373H920.493C929.625 178.944 934.207 174.444 934.207 165.477V116.965Z" fill="#1169FE"/>
<path d="M521.426 109.333C521.426 79.743 527.821 0.242188 636.184 0.242188C732.193 0.242188 748.19 62.2528 750.472 97.2332C750.926 105.326 746.813 110.271 738.589 112.052L686.909 123.262C677.761 125.059 672.726 121.02 671.819 111.591C670.006 90.0463 662.218 77.4693 636.2 77.4693C602.362 77.4693 600.079 98.5688 600.079 133.12V197.786C600.079 232.353 602.362 253.436 636.2 253.436C670.038 253.436 672.337 232.385 672.337 210.379H645.785C637.09 210.379 632.055 205.434 632.055 196.895V160.977C632.055 151.993 637.09 147.51 645.785 147.51H737.212C746.365 147.51 750.936 151.999 750.926 160.977V221.604C750.926 251.226 744.45 330.695 636.184 330.695C527.918 330.695 521.426 251.195 521.426 221.604V109.333Z" fill="#1169FE"/>
<path d="M370.702 8.30103C456.658 8.30103 485.007 42.4387 485.007 116.072V214.399C485.007 288.033 456.658 322.616 370.702 322.616H268.703C260.008 322.616 254.989 317.686 254.989 309.164V22.2296C254.989 13.246 259.555 8.76213 268.703 8.30103H370.702ZM372.079 245.404C394.033 245.404 404.994 241.779 404.994 214.86V116.072C404.994 88.2312 394.033 85.56 372.079 85.56H347.388C338.71 85.56 333.659 90.0438 333.659 99.0274V231.905C333.659 240.459 338.71 245.404 347.388 245.404H372.079Z" fill="#1169FE"/>
<path d="M206.205 8.30103C215.337 8.30103 219.902 12.8167 219.902 21.8003V72.0607C219.902 80.5991 215.337 85.5599 206.205 85.5599H95.5598C86.8655 85.5599 81.8303 90.0438 81.8303 99.0274V113.338C81.8303 121.876 86.8655 126.805 95.5598 126.805H166.425C175.573 126.805 180.139 131.321 180.139 140.304V190.565C180.139 199.119 175.573 204.064 166.425 204.064H95.5598C86.8655 204.064 81.8303 208.532 81.8303 217.515V231.826C81.8303 240.38 86.8655 245.325 95.5598 245.325H206.205C215.337 245.325 219.902 249.793 219.902 258.776V309.085C219.902 318.036 215.337 322.536 206.205 322.536H14.1865C5.49226 322.536 0.457031 317.607 0.457031 309.085V21.8003C0.457031 12.8167 5.49226 8.30103 14.1865 8.30103H206.205Z" fill="#1169FE"/>
</svg>
