<svg width="660" height="652" viewBox="0 0 660 652" fill="none" xmlns="http://www.w3.org/2000/svg">
<path d="M-0.000211688 734.426C-0.000236092 176.134 220.369 -7.99992 695.698 -7.99994L1330.43 -7.99997C1805.76 -7.99999 2029 176.134 2029 734.426L2029 1396.93C2029 1453.4 1997.18 1486 1942.17 1486L89.913 1486C31.921 1486 2.97638 1456.35 -0.000182729 1396.93L-0.000211688 734.426ZM1530.58 725.487C1530.58 582.891 1507.17 511.698 1333.4 511.698L695.698 511.698C515.974 511.698 498.731 582.891 498.731 725.487L498.731 885.855C498.731 942.221 527.675 975.03 585.667 975.03L1443.44 975.03C1498.66 975.03 1530.58 942.221 1530.58 885.855L1530.58 725.487Z" fill="#CC91FF"/>
</svg>
