<svg width="100" height="788" viewBox="0 0 100 788" fill="none" xmlns="http://www.w3.org/2000/svg">
<path d="M-119.561 1199.94C-562.889 1199.94 -709.105 1024.83 -709.105 647.13V142.768C-709.105 -234.932 -562.889 -412.322 -119.561 -412.322L29 -412.323C73.8421 -412.323 99.7286 -387.04 99.7286 -343.324V392.584V1128.49C99.7286 1174.57 76.1802 1197.57 29 1199.94H-119.561ZM-126.659 -16.2713C-239.892 -16.2713 -296.425 2.32367 -296.425 140.403V647.13C-296.425 789.94 -239.892 803.642 -126.659 803.642H0.685669C45.4443 803.642 71.4979 780.643 71.4979 734.562V52.9724C71.4979 9.09359 45.4443 -16.2713 0.685669 -16.2713H-126.659Z" fill="#1169FE"/>
</svg>
