<svg width="498" height="501" viewBox="0 0 498 501" fill="none" xmlns="http://www.w3.org/2000/svg">
<g clip-path="url(#clip0_820_5641)">
<path d="M0.207025 516.847C0.20703 127.433 153.564 -1.00197 484.35 -1.00196L926.064 -1.00196C1256.85 -1.00195 1412.21 127.433 1412.21 516.847L1412.21 978.951C1412.21 1018.34 1390.06 1041.08 1351.78 1041.08L62.7784 1041.08C22.4213 1041.08 2.27843 1020.39 0.20702 978.951L0.207025 516.847ZM1065.35 510.613C1065.35 411.15 1049.06 361.493 928.136 361.493L484.35 361.493C359.278 361.493 347.278 411.15 347.278 510.613L347.278 622.471C347.278 661.786 367.421 684.672 407.779 684.672L1004.71 684.672C1043.14 684.672 1065.35 661.786 1065.35 622.471L1065.35 510.613Z" fill="#1169FE"/>
<ellipse cx="149.207" cy="238.476" rx="100" ry="100.2" fill="#4FE9A4"/>
</g>
<defs>
<clipPath id="clip0_820_5641">
<rect width="501" height="627" fill="white" transform="translate(0 501) rotate(-90)"/>
</clipPath>
</defs>
</svg>
