<svg width="602" height="619" viewBox="0 0 602 619" fill="none" xmlns="http://www.w3.org/2000/svg">
<path d="M8.13324e-05 709.884C0.000104919 176.326 213.201 0.349793 673.068 0.349813L1287.15 0.34984C1747.02 0.349859 1963 176.326 1963 709.884L1963 1343.04C1963 1397.01 1932.22 1428.16 1878.99 1428.16L86.9884 1428.16C30.8829 1428.16 2.87981 1399.82 5.33426e-05 1343.04L8.13324e-05 709.884ZM1480.79 701.341C1480.79 565.062 1458.15 497.024 1290.03 497.024L673.068 497.024C499.191 497.024 482.508 565.062 482.508 701.341L482.508 854.605C482.508 908.473 510.511 939.829 566.617 939.829L1396.48 939.829C1449.91 939.829 1480.79 908.473 1480.79 854.605L1480.79 701.341Z" fill="#CE91FF"/>
</svg>
