<svg width="621" height="594" viewBox="0 0 621 594" fill="none" xmlns="http://www.w3.org/2000/svg">
<path d="M717.579 594C177.972 594 0 380.799 0 -79.0682V-693.151C0 -1153.02 177.972 -1369 717.579 -1369H1357.91C1412.49 -1369 1444 -1338.22 1444 -1284.99V507.012C1444 563.117 1415.34 591.12 1357.91 594H717.579ZM708.939 -886.79C571.115 -886.79 502.305 -864.149 502.305 -696.031V-79.0682C502.305 94.8094 571.115 111.492 708.939 111.492H863.94C918.419 111.492 950.131 83.4889 950.131 27.3833V-802.483C950.131 -855.907 918.419 -886.79 863.94 -886.79H708.939Z" fill="#FFEC42"/>
</svg>
