<svg width="501" height="563" viewBox="0 0 501 563" fill="none" xmlns="http://www.w3.org/2000/svg">
<path d="M-230.618 697.494C-230.618 173.551 -23.8299 0.74568 422.205 0.74566L1017.82 0.745634C1463.85 0.745615 1673.34 173.551 1673.34 697.494L1673.34 1319.24C1673.34 1372.23 1643.48 1402.83 1591.85 1402.83L-146.246 1402.83C-200.664 1402.83 -227.825 1375 -230.618 1319.24L-230.618 697.494ZM1205.63 689.105C1205.63 555.282 1183.67 488.469 1020.61 488.469L422.205 488.469C253.557 488.469 237.376 555.282 237.376 689.105L237.376 839.607C237.376 892.504 264.537 923.296 318.955 923.296L1123.86 923.296C1175.68 923.296 1205.63 892.504 1205.63 839.607L1205.63 689.105Z" fill="#CE91FF"/>
</svg>
