<svg width="300" height="293" viewBox="0 0 300 293" fill="none" xmlns="http://www.w3.org/2000/svg">
<rect width="300" height="293" fill="#54B948"/>
<path d="M170.262 149.179C170.262 149.179 169.898 147.894 169.898 146.941V132.031H176.142V160.732L156.145 144.91C155.079 144.04 154.446 143.07 154.446 143.07C154.446 143.07 154.758 144.14 154.758 145.068L154.749 160.086H148.506V131.492L168.311 146.999C169.378 147.869 170.262 149.179 170.262 149.179Z" fill="black"/>
<path d="M226.808 132.032C236.702 132.032 239.234 135.762 239.234 141.124C239.234 145.011 236.243 148.816 230.207 149.271L229.548 149.296C229.548 149.296 230.129 149.396 230.736 149.959L241.697 160.087H233.225L217.929 145.243H225.551C232.375 145.243 232.566 141.804 232.618 140.934C232.748 138.712 232.002 136.922 226.791 136.922H218.094V160.079H211.599V132.032H226.808Z" fill="black"/>
<path d="M178.951 146.47C178.951 134.717 189.244 131.626 197.898 131.626C201.358 131.626 204.428 131.924 207.654 132.57L207.662 138.53C205.807 137.991 202.078 136.789 197.89 136.789C189.686 136.789 185.706 139.831 185.706 146.461C185.706 151.89 189.999 155.346 197.89 155.346C202.069 155.346 206.266 154.393 208.287 153.68L208.278 159.466C205.052 160.12 201.349 160.518 197.89 160.518C188.654 160.518 178.951 156.225 178.951 146.47Z" fill="black"/>
<path d="M108.678 132.761L114.766 138.247C114.601 138.322 114.41 138.405 114.185 138.513C113.838 138.687 113.413 138.919 112.91 139.25C111.904 139.913 110.595 140.966 108.921 142.69L97.0239 154.732C94.9774 156.796 92.905 158.429 90.9799 159.291L84.8926 153.804C85.0573 153.73 85.2481 153.647 85.4736 153.531C85.8291 153.365 86.2453 153.125 86.7483 152.793C87.7541 152.13 89.0635 151.086 90.7371 149.353L102.634 137.336C104.672 135.272 106.745 133.623 108.678 132.761Z" fill="black"/>
<path d="M85.101 161.859C87.7978 161.859 90.2691 161.345 91.9514 160.516C92.7145 160.135 93.8157 159.472 94.7609 158.776C95.6974 158.071 97.0242 156.985 98.1514 155.842L110.066 143.84C113.066 140.815 114.879 139.879 115.971 139.514L122.085 145.042C120.81 146.343 105.6 161.834 105.6 161.834C104.56 162.903 103.467 163.939 102.73 164.586C102.019 165.216 100.796 166.152 100.163 166.591C96.5906 169.103 91.804 171.133 85.3698 171.133C70.7931 171.133 59 159.787 59 146.725C59 130.521 72.2413 121.123 84.3119 121.123C88.0059 121.015 90.9802 121.612 93.3215 122.374C95.4893 123.079 97.1282 123.932 98.3162 124.512C96.9114 125.374 95.5587 126.543 93.3128 128.831L90.8675 131.342C90.3038 131.135 87.8064 130.306 84.598 130.397C76.8631 130.613 68.3911 136.613 68.6946 146.451C68.9721 155.643 76.9065 161.859 85.101 161.859Z" fill="black"/>
<path d="M107.628 131.609C106.857 131.99 105.764 132.653 104.819 133.349C103.882 134.046 102.556 135.14 101.428 136.283L89.5137 148.285C86.5047 151.31 84.7011 152.246 83.6085 152.611L77.4951 147.083C78.7698 145.773 93.9795 130.291 93.9795 130.291C95.0201 129.222 96.1127 128.194 96.8497 127.539C97.5608 126.909 98.7835 125.973 99.4165 125.534C102.989 123.031 107.776 121 114.21 121C128.787 121 140.58 132.338 140.58 145.4C140.58 161.604 127.338 171.002 115.268 171.002C111.574 171.11 108.599 170.513 106.258 169.751C104.082 169.046 102.443 168.193 101.255 167.613C102.738 166.659 104.012 165.607 106.267 163.303L108.712 160.791C109.276 160.999 111.773 161.827 114.973 161.736C122.708 161.512 131.18 155.512 130.876 145.682C130.59 136.482 122.656 130.266 114.461 130.266C111.773 130.266 109.311 130.772 107.628 131.609Z" fill="black"/>
</svg>
