<svg width="250" height="250" viewBox="0 0 250 250" fill="none" xmlns="http://www.w3.org/2000/svg">
<path d="M37.5 75C58.2107 75 75 58.2107 75 37.5C75 16.7893 58.2107 0 37.5 0C16.7893 0 0 16.7893 0 37.5C0 58.2107 16.7893 75 37.5 75Z" fill="#FFD469"/>
<path d="M37.5 162.5C58.2107 162.5 75 145.711 75 125C75 104.289 58.2107 87.5 37.5 87.5C16.7893 87.5 0 104.289 0 125C0 145.711 16.7893 162.5 37.5 162.5Z" fill="#FFD469"/>
<path d="M125 162.5C145.711 162.5 162.5 145.711 162.5 125C162.5 104.289 145.711 87.5 125 87.5C104.289 87.5 87.5 104.289 87.5 125C87.5 145.711 104.289 162.5 125 162.5Z" fill="#FFD469"/>
<path d="M37.5 250C58.2107 250 75 233.211 75 212.5C75 191.789 58.2107 175 37.5 175C16.7893 175 0 191.789 0 212.5C0 233.211 16.7893 250 37.5 250Z" fill="#FFD469"/>
<path d="M125 250C145.711 250 162.5 233.211 162.5 212.5C162.5 191.789 145.711 175 125 175C104.289 175 87.5 191.789 87.5 212.5C87.5 233.211 104.289 250 125 250Z" fill="#FFD469"/>
<path d="M212.5 250C233.211 250 250 233.211 250 212.5C250 191.789 233.211 175 212.5 175C191.789 175 175 191.789 175 212.5C175 233.211 191.789 250 212.5 250Z" fill="#FFD469"/>
<path d="M162.5 75H87.5L125 37.5L162.5 0V75Z" fill="#5E6591"/>
<path d="M250 162.5H175L212.5 125L250 87.5V162.5Z" fill="#FF987C"/>
</svg>
