<svg width="126" height="127" viewBox="0 0 126 127" fill="none" xmlns="http://www.w3.org/2000/svg">
<circle cx="66.4213" cy="73.0258" r="46.6439" fill="#B7EA95"/>
<path d="M32.7051 16.2115C33.0703 16.1579 33.0704 15.5311 32.7052 15.4775C28.4929 14.8588 27.3715 13.7377 26.7497 9.54359C26.6957 9.17917 26.0731 9.17913 26.019 9.54354C25.3966 13.7376 24.2746 14.8589 20.0608 15.4775C19.6956 15.5311 19.6957 16.158 20.0609 16.2115C24.2748 16.8298 25.3967 17.9546 26.0191 22.1485C26.0732 22.5129 26.6956 22.5128 26.7497 22.1484C27.3714 17.9544 28.4927 16.8297 32.7051 16.2115Z" fill="black"/>
<path d="M115.757 112.525C116.03 112.485 116.03 112.017 115.758 111.977C112.614 111.516 111.778 110.679 111.314 107.55C111.273 107.278 110.809 107.278 110.768 107.55C110.304 110.679 109.467 111.516 106.323 111.977C106.05 112.017 106.05 112.485 106.323 112.525C109.467 112.986 110.304 113.826 110.769 116.955C110.809 117.227 111.273 117.227 111.314 116.955C111.778 113.826 112.614 112.986 115.757 112.525Z" fill="black"/>
<path d="M14.8806 30.4325C15.0871 30.4022 15.0871 30.0479 14.8807 30.0176C12.4998 29.6679 11.866 29.0343 11.5145 26.6637C11.484 26.4577 11.1321 26.4577 11.1015 26.6637C10.7497 29.0342 10.1156 29.668 7.73383 30.0176C7.5274 30.0479 7.52745 30.4022 7.73389 30.4325C10.1157 30.782 10.7498 31.4177 11.1016 33.7882C11.1321 33.9942 11.484 33.9941 11.5145 33.7882C11.8659 31.4176 12.4997 30.7819 14.8806 30.4325Z" fill="black"/>
<path d="M74.4101 74.2375C74.4101 77.1114 73.3551 79.5124 71.2451 81.4404C69.1352 83.3321 66.3886 84.4235 63.0054 84.7145V90.6624H60.7136V84.7691C58.2034 84.6963 55.857 84.2052 53.6743 83.2957C51.4916 82.3499 49.5635 81.0403 47.8901 79.3668L49.0361 77.4024C50.8914 79.0758 52.7285 80.3309 54.5474 81.1676C56.4027 81.9679 58.4399 82.4226 60.659 82.5318V66.3797C58.1853 65.7613 56.1299 65.1065 54.4928 64.4153C52.8558 63.6877 51.4916 62.6509 50.4003 61.3049C49.3089 59.9225 48.7632 58.1036 48.7632 55.8481C48.7632 53.8473 49.2543 52.0466 50.2366 50.4459C51.2551 48.8453 52.6739 47.572 54.4928 46.6262C56.3118 45.6803 58.3853 45.1528 60.7136 45.0437V39.1504H63.0054V45.0983C65.1881 45.2802 67.2435 45.8077 69.1716 46.6807C71.0996 47.5538 72.773 48.7543 74.1918 50.2822L73.0459 52.1921C70.3539 49.2818 67.0252 47.663 63.06 47.3356V64.579C65.461 65.161 67.4436 65.7795 69.0079 66.4343C70.5721 67.0891 71.8636 68.0531 72.8822 69.3264C73.9008 70.5632 74.4101 72.2003 74.4101 74.2375ZM51.1096 55.9027C51.1096 57.5397 51.528 58.8857 52.3647 59.9407C53.2014 60.9593 54.2928 61.7596 55.6388 62.3417C56.9848 62.9238 58.6582 63.4694 60.659 63.9787V47.281C57.676 47.4629 55.3295 48.3178 53.6198 49.8457C51.9463 51.3372 51.1096 53.3562 51.1096 55.9027ZM63.06 82.4772C65.8611 82.2589 68.0438 81.4222 69.6081 79.9671C71.2088 78.5119 72.0091 76.5839 72.0091 74.1829C72.0091 72.1457 71.2451 70.6178 69.7172 69.5992C68.1893 68.5806 65.9703 67.7075 63.06 66.98V82.4772Z" fill="black"/>
<circle cx="60.8466" cy="66.6923" r="46.5145" stroke="black" stroke-width="2.0938"/>
</svg>
