<svg width="126" height="127" viewBox="0 0 126 127" fill="none" xmlns="http://www.w3.org/2000/svg">
<path fill-rule="evenodd" clip-rule="evenodd" d="M37.5941 47.7324L30.5229 54.8035L48.0794 72.36L48.1109 72.3285L48.1424 72.36L65.6988 54.8035L58.6277 47.7324C56.9923 46.097 54.3409 46.097 52.7055 47.7324L48.1109 52.327L43.5163 47.7324C41.8809 46.097 39.2295 46.097 37.5941 47.7324Z" fill="#B7EA95"/>
<rect x="86.6367" y="39.8057" width="10.8878" height="46.0636" fill="white"/>
<rect x="18.7975" y="13.0055" width="54.4389" height="94.6399" rx="9.21273" stroke="black" stroke-width="1.67504"/>
<line x1="18.7974" y1="94.2455" x2="74.0737" y2="94.2455" stroke="black" stroke-width="1.67504"/>
<line x1="18.7974" y1="25.5687" x2="74.0737" y2="25.5687" stroke="black" stroke-width="1.67504"/>
<g clip-path="url(#clip0_209_44610)">
<path d="M47.0186 75.141L47.1025 74.9492L47.0186 75.141C47.0979 75.1757 47.1836 75.1937 47.2703 75.1937C47.357 75.1937 47.4427 75.1757 47.5221 75.141C47.6009 75.1065 47.6718 75.0562 47.7304 74.9932C49.9514 72.661 52.1732 70.327 54.3951 67.993C56.5923 65.6848 58.7895 63.3766 60.9858 61.0703C64.21 57.6847 64.21 52.2456 60.9858 48.86C57.7563 45.4687 52.5016 45.4685 49.2718 48.8595C49.2717 48.8596 49.2715 48.8598 49.2714 48.86L47.2773 50.9392L45.2823 48.8469C43.6689 47.1527 41.5476 46.2955 39.4251 46.2955C37.3026 46.2955 35.1812 47.1527 33.5678 48.8469C30.3435 52.2326 30.3472 57.6689 33.5677 61.0571L46.809 74.9919C46.8094 74.9923 46.8098 74.9927 46.8101 74.9931C46.8687 75.0561 46.9397 75.1065 47.0186 75.141ZM34.4862 49.7115L34.4862 49.7115C35.8659 48.2626 37.6434 47.5387 39.4251 47.5387C41.2072 47.5387 42.9975 48.2629 44.377 49.7114C44.377 49.7114 44.3771 49.7114 44.3771 49.7115L46.8231 52.2883C46.8817 52.3514 46.9527 52.4018 47.0317 52.4363L47.1156 52.2445L47.0317 52.4363C47.1111 52.471 47.1968 52.489 47.2834 52.489C47.37 52.489 47.4557 52.471 47.5351 52.4363C47.6141 52.4018 47.6851 52.3514 47.7437 52.2883C47.744 52.2879 47.7443 52.2876 47.7447 52.2872L50.1766 49.7245C52.9317 46.8315 57.3125 46.8316 60.0676 49.7246C62.8281 52.6233 62.8281 57.307 60.0676 60.2058C57.9145 62.4666 55.7662 64.724 53.6179 66.9814C51.5057 69.201 49.3935 71.4204 47.277 73.6431L34.4863 60.1928C31.7278 57.2906 31.7257 52.6101 34.4862 49.7115Z" fill="black" stroke="black" stroke-width="0.41876"/>
<path d="M26.3354 61.581H42.0592C42.1109 61.581 42.1607 61.5619 42.1992 61.5273L47.1239 57.1015C47.204 57.0295 47.3257 57.0301 47.4052 57.1028L52.2386 61.5261C52.2772 61.5614 52.3276 61.581 52.3799 61.581H69.049" stroke="black" stroke-width="1.67504" stroke-linecap="round"/>
</g>
<rect x="59.8361" y="31.4303" width="47.1197" height="82.077" rx="7.90183" fill="white" stroke="black" stroke-width="1.67504"/>
<line x1="59.7266" y1="101.855" x2="107.793" y2="101.855" stroke="black" stroke-width="1.67504"/>
<line x1="59.7266" y1="42.1361" x2="107.793" y2="42.1361" stroke="black" stroke-width="1.67504"/>
<rect x="71.5615" y="67.4443" width="12.5628" height="25.1256" fill="#B7EA95"/>
<rect x="86.6367" y="55.7188" width="12.5628" height="36.8509" fill="#B7EA95"/>
<rect x="70.7238" y="65.7692" width="10.8878" height="24.2881" stroke="black" stroke-width="1.67504"/>
<rect x="85.7994" y="54.8815" width="10.8878" height="34.3384" stroke="black" stroke-width="1.67504"/>
<defs>
<clipPath id="clip0_209_44610">
<rect width="41.876" height="41.876" fill="white" transform="translate(26.3354 39.8057)"/>
</clipPath>
</defs>
</svg>
