<svg width="127" height="127" viewBox="0 0 127 127" fill="none" xmlns="http://www.w3.org/2000/svg">
<g clip-path="url(#clip0_209_44607)">
<rect x="16.506" y="16.3551" width="67.0017" height="89.6147" rx="4.1876" stroke="black" stroke-width="1.67504"/>
<circle cx="44.5626" cy="60.3248" r="16.3317" fill="#B7EA95"/>
<path d="M45.8189 60.9228C45.8189 61.8328 45.4848 62.593 44.8167 63.2036C44.1486 63.8026 43.2789 64.1481 42.2076 64.2403V66.1237H41.4819V64.2576C40.6871 64.2345 39.9441 64.079 39.2529 63.791C38.5618 63.4915 37.9513 63.0768 37.4214 62.547L37.7842 61.9249C38.3717 62.4548 38.9534 62.8522 39.5294 63.1172C40.1169 63.3706 40.762 63.5146 41.4646 63.5491V58.4346C40.6813 58.2388 40.0305 58.0314 39.5121 57.8126C38.9938 57.5822 38.5618 57.2539 38.2162 56.8277C37.8706 56.39 37.6978 55.814 37.6978 55.0998C37.6978 54.4663 37.8534 53.8961 38.1644 53.3892C38.4869 52.8824 38.9362 52.4792 39.5121 52.1797C40.0881 51.8802 40.7447 51.7132 41.4819 51.6786V49.8125H42.2076V51.6959C42.8988 51.7535 43.5496 51.9205 44.1601 52.197C44.7706 52.4734 45.3005 52.8536 45.7498 53.3374L45.3869 53.9421C44.5345 53.0206 43.4805 52.508 42.2249 52.4043V57.8644C42.9852 58.0487 43.6129 58.2445 44.1083 58.4519C44.6036 58.6592 45.0125 58.9645 45.3351 59.3677C45.6576 59.7593 45.8189 60.2777 45.8189 60.9228ZM38.4408 55.1171C38.4408 55.6354 38.5733 56.0617 38.8382 56.3957C39.1032 56.7183 39.4488 56.9717 39.875 57.156C40.3012 57.3403 40.8311 57.5131 41.4646 57.6743V52.387C40.52 52.4446 39.7771 52.7153 39.2357 53.1991C38.7058 53.6714 38.4408 54.3107 38.4408 55.1171ZM42.2249 63.5319C43.1119 63.4627 43.803 63.1978 44.2983 62.737C44.8052 62.2763 45.0586 61.6657 45.0586 60.9055C45.0586 60.2604 44.8167 59.7766 44.3329 59.4541C43.8491 59.1315 43.1464 58.8551 42.2249 58.6247V63.5319Z" fill="black"/>
<circle cx="41.6314" cy="57.3936" r="16.7504" stroke="black" stroke-width="1.67504"/>
<rect x="65.9196" y="44.8307" width="46.9012" height="67.0017" rx="4.1876" fill="white" stroke="black" stroke-width="1.67504"/>
<rect x="69.2695" y="47.3438" width="49.4137" height="68.6767" rx="5.02513" fill="#B7EA95"/>
<rect x="72.6196" y="54.8809" width="5.86265" height="1.67504" rx="0.837521" fill="black"/>
<rect x="72.6196" y="63.2559" width="5.86265" height="1.67504" rx="0.837521" fill="black"/>
<rect x="72.6196" y="71.6309" width="5.86265" height="1.67504" rx="0.837521" fill="black"/>
<rect x="72.6196" y="80.8438" width="5.86265" height="1.67504" rx="0.837521" fill="black"/>
<rect x="72.6196" y="89.2188" width="5.86265" height="1.67504" rx="0.837521" fill="black"/>
<rect x="72.6196" y="98.4316" width="5.86265" height="1.67504" rx="0.837521" fill="black"/>
<rect x="81.8325" y="54.8809" width="5.86265" height="1.67504" rx="0.837521" fill="black"/>
<rect x="81.8325" y="63.2559" width="5.86265" height="1.67504" rx="0.837521" fill="black"/>
<rect x="81.8325" y="71.6309" width="5.86265" height="1.67504" rx="0.837521" fill="black"/>
<rect x="81.8325" y="80.8438" width="5.86265" height="1.67504" rx="0.837521" fill="black"/>
<rect x="81.8325" y="89.2188" width="5.86265" height="1.67504" rx="0.837521" fill="black"/>
<rect x="81.8325" y="98.4316" width="5.86265" height="1.67504" rx="0.837521" fill="black"/>
<rect x="91.0449" y="54.8809" width="5.86265" height="1.67504" rx="0.837521" fill="black"/>
<rect x="91.0449" y="63.2559" width="5.86265" height="1.67504" rx="0.837521" fill="black"/>
<rect x="91.0449" y="71.6309" width="5.86265" height="1.67504" rx="0.837521" fill="black"/>
<rect x="91.0449" y="80.8438" width="5.86265" height="1.67504" rx="0.837521" fill="black"/>
<rect x="91.0449" y="89.2188" width="5.86265" height="1.67504" rx="0.837521" fill="black"/>
<rect x="91.0449" y="98.4316" width="5.86265" height="1.67504" rx="0.837521" fill="black"/>
<rect x="100.258" y="54.8809" width="5.86265" height="1.67504" rx="0.837521" fill="black"/>
<rect x="100.258" y="63.2559" width="5.86265" height="1.67504" rx="0.837521" fill="black"/>
<rect x="100.258" y="71.6309" width="5.86265" height="1.67504" rx="0.837521" fill="black"/>
<rect x="100.258" y="80.8438" width="5.86265" height="1.67504" rx="0.837521" fill="black"/>
<rect x="100.258" y="89.2188" width="5.86265" height="1.67504" rx="0.837521" fill="black"/>
<rect x="100.258" y="98.4316" width="5.86265" height="1.67504" rx="0.837521" fill="black"/>
<rect x="65.9196" y="44.8307" width="46.9012" height="67.0017" rx="4.1876" stroke="black" stroke-width="1.67504"/>
<path d="M19.0186 16.3555L25.5554 29.7558H73.2362L80.1576 16.7742H19.7876" stroke="black" stroke-width="1.67504" stroke-linejoin="round"/>
<rect x="24.881" y="86.7067" width="21.7755" height="10.0503" stroke="black" stroke-width="1.67504"/>
<line x1="53.3569" y1="86.7074" x2="65.0822" y2="86.7074" stroke="black" stroke-width="1.67504"/>
<line x1="53.3569" y1="92.5697" x2="65.0822" y2="92.5697" stroke="black" stroke-width="1.67504"/>
</g>
<defs>
<clipPath id="clip0_209_44607">
<rect width="125.628" height="125.628" fill="white" transform="translate(0.592773 0.442383)"/>
</clipPath>
</defs>
</svg>
