<svg width="126" height="127" viewBox="0 0 126 127" fill="none" xmlns="http://www.w3.org/2000/svg">
<circle cx="39.2678" cy="45.0857" r="11.2595" fill="#B7EA95"/>
<path d="M20.502 76.0988C20.502 66.9348 27.9309 59.5059 37.0949 59.5059H41.8358C50.9999 59.5059 58.4288 66.9348 58.4288 76.0988H20.502Z" fill="#B7EA95"/>
<path d="M104.652 54.5122V14.0723H3.11865V88.7407H59.713" stroke="black" stroke-width="1.67337" stroke-linecap="round" stroke-linejoin="round"/>
<path d="M62.5771 34.8135H91.8124" stroke="black" stroke-width="1.67337" stroke-linecap="round"/>
<path d="M62.5771 51.6045H91.8124" stroke="black" stroke-width="1.67337" stroke-linecap="round"/>
<path d="M62.5771 68.3945H68.9133" stroke="black" stroke-width="1.67337" stroke-linecap="round"/>
<circle cx="34.9221" cy="41.1345" r="11.2595" stroke="black" stroke-width="1.67337" stroke-linejoin="round"/>
<path d="M17.0148 71.311C17.4497 62.998 24.3279 56.3914 32.7492 56.3914H37.4901C45.9114 56.3914 52.7896 62.998 53.2246 71.311H17.0148Z" stroke="black" stroke-width="1.67337" stroke-linejoin="round"/>
<circle cx="97.6965" cy="87.8723" r="25.4367" fill="#B7EA95"/>
<circle cx="94.3498" cy="83.6887" r="24.6" stroke="black" stroke-width="1.67337"/>
<path fill-rule="evenodd" clip-rule="evenodd" d="M81.7505 79.2547C81.7505 78.7926 82.1251 78.418 82.5872 78.418H106.114C106.576 78.418 106.951 78.7926 106.951 79.2547V96.3769C106.951 96.839 106.576 97.2136 106.114 97.2136H82.5872C82.1251 97.2136 81.7505 96.839 81.7505 96.3769V79.2547ZM83.4239 80.0913V95.5402H105.278V80.0913H83.4239Z" fill="black"/>
<path d="M94.4513 70.165C85.6019 70.165 87.0384 79.1581 87.0384 79.1581H102.094C102.094 79.1581 103.301 70.165 94.4513 70.165Z" stroke="black" stroke-width="1.67337" stroke-linecap="round"/>
<circle cx="94.5507" cy="87.8154" r="2.68232" stroke="black" stroke-width="1.67337"/>
</svg>
