<svg width="126" height="127" viewBox="0 0 126 127" fill="none" xmlns="http://www.w3.org/2000/svg">
<circle cx="68.7312" cy="63.6101" r="29.2839" fill="#B7EA95"/>
<g clip-path="url(#clip0_209_44603)">
<path d="M63.6634 48.084C63.4465 48.084 63.2385 48.1701 63.0852 48.3235C62.9319 48.4768 62.8457 48.6848 62.8457 48.9017V50.537C62.846 50.7536 62.9323 50.9613 63.0857 51.1143C63.239 51.2674 63.4467 51.3534 63.6634 51.3534C63.88 51.3534 64.0878 51.2674 64.2411 51.1143C64.3944 50.9613 64.4807 50.7536 64.481 50.537V49.7443C67.9857 49.9492 71.2932 51.4338 73.7756 53.9163C76.258 56.3987 77.7426 59.7061 77.9476 63.2108H77.1549C76.9382 63.2111 76.7304 63.2973 76.5773 63.4506C76.4242 63.604 76.3381 63.8118 76.3381 64.0285C76.3381 64.2452 76.4242 64.453 76.5773 64.6064C76.7304 64.7597 76.9382 64.8459 77.1549 64.8462H77.9476C77.7426 68.3509 76.258 71.6583 73.7756 74.1407C71.2932 76.6232 67.9857 78.1078 64.481 78.3128V77.52C64.481 77.3032 64.3949 77.0952 64.2415 76.9418C64.0882 76.7885 63.8802 76.7024 63.6634 76.7024C63.4465 76.7024 63.2385 76.7885 63.0852 76.9418C62.9318 77.0952 62.8457 77.3032 62.8457 77.52V79.1554C62.8457 79.3722 62.9319 79.5802 63.0852 79.7335C63.2385 79.8869 63.4465 79.973 63.6634 79.973C72.4552 79.973 79.6079 72.8203 79.6079 64.0285C79.6079 55.2367 72.4552 48.084 63.6634 48.084Z" fill="black"/>
<path d="M65.5713 64.1647C65.5708 64.0065 65.5491 63.8492 65.5068 63.6968L71.9192 57.9703C72.0141 57.8855 72.0723 57.7672 72.0817 57.6403C72.0911 57.5134 72.0508 57.3879 71.9694 57.2901C71.888 57.1923 71.7718 57.1299 71.6453 57.1162C71.5188 57.1024 71.3919 57.1383 71.2914 57.2162L64.4537 62.5192C64.1016 62.3795 63.7139 62.3563 63.3476 62.4531C62.9814 62.55 62.6558 62.7617 62.4188 63.0572C62.1817 63.3527 62.0457 63.7165 62.0307 64.095C62.0157 64.4736 62.1224 64.847 62.3353 65.1603C62.5481 65.4737 62.8559 65.7106 63.2133 65.8362C63.5707 65.9617 63.959 65.9694 64.3211 65.858C64.6832 65.7466 65 65.522 65.225 65.2172C65.4501 64.9124 65.5714 64.5435 65.5713 64.1647L65.5713 64.1647ZM62.982 64.1647C62.9824 63.99 63.0389 63.8202 63.1431 63.6801C63.2474 63.54 63.3939 63.4371 63.561 63.3865C63.5963 63.3758 63.6322 63.367 63.6685 63.3602C63.7972 63.3371 63.9296 63.3457 64.0543 63.3852C64.179 63.4246 64.2922 63.4938 64.3841 63.5868C64.4761 63.6797 64.5441 63.7936 64.5823 63.9187C64.6204 64.0438 64.6276 64.1763 64.6032 64.3047C64.5949 64.3471 64.5837 64.3889 64.5696 64.4297C64.5073 64.6127 64.3819 64.7677 64.2159 64.8669C64.0499 64.9661 63.854 65.003 63.6633 64.9712C63.4725 64.9394 63.2993 64.8408 63.1745 64.6931C63.0497 64.5453 62.9815 64.3581 62.982 64.1647V64.1647Z" fill="black"/>
<path d="M58.7799 63.3477H44.289C43.9253 63.3477 43.6304 63.7138 43.6304 64.1653C43.6304 64.6169 43.9253 64.983 44.289 64.983H58.7799C59.1437 64.983 59.4386 64.6169 59.4386 64.1653C59.4386 63.7138 59.1437 63.3477 58.7799 63.3477Z" fill="black"/>
<path d="M58.8306 71.5244H47.8854C47.5496 71.5244 47.2773 71.8905 47.2773 72.3421C47.2773 72.7936 47.5496 73.1597 47.8854 73.1597H58.8306C59.1664 73.1597 59.4387 72.7936 59.4387 72.3421C59.4387 71.8905 59.1664 71.5244 58.8306 71.5244Z" fill="black"/>
<path d="M58.8306 55.1709H47.8854C47.5496 55.1709 47.2773 55.537 47.2773 55.9886C47.2773 56.4401 47.5496 56.8062 47.8854 56.8062H58.8306C59.1664 56.8062 59.4387 56.4401 59.4387 55.9886C59.4387 55.537 59.1664 55.1709 58.8306 55.1709Z" fill="black"/>
</g>
<rect x="35.2639" y="15.9187" width="54.3844" height="94.5452" rx="9.20352" stroke="black" stroke-width="1.67337"/>
<line x1="35.2637" y1="97.0774" x2="90.4848" y2="97.0774" stroke="black" stroke-width="1.67337"/>
<line x1="35.2637" y1="28.469" x2="90.4848" y2="28.469" stroke="black" stroke-width="1.67337"/>
<defs>
<clipPath id="clip0_209_44603">
<rect width="35.9774" height="35.9774" fill="white" transform="translate(43.6304 46.04)"/>
</clipPath>
</defs>
</svg>
