<svg width="126" height="127" viewBox="0 0 126 127" fill="none" xmlns="http://www.w3.org/2000/svg">
<g clip-path="url(#clip0_209_44608)">
<path fill-rule="evenodd" clip-rule="evenodd" d="M74.578 28.9189H56.4482V39.9543L45.4126 39.9543L45.4126 58.0842H56.4482V69.1199H74.578V58.0842H85.6136V39.9543L74.578 39.9543V28.9189Z" fill="#B7EA95"/>
<rect x="23.6368" y="12.1686" width="78.727" height="100.503" rx="7.53769" stroke="black" stroke-width="1.67504"/>
<rect x="35.3623" y="79.1699" width="55.2764" height="5.02513" fill="#B7EA95"/>
<rect x="35.3623" y="90.8955" width="55.2764" height="5.02513" fill="#B7EA95"/>
<mask id="path-5-inside-1_209_44608" fill="white">
<path fill-rule="evenodd" clip-rule="evenodd" d="M72.2129 26.4062H52.9499V38.1315L41.2246 38.1315L41.2246 57.3945H52.9499V69.1198H72.2129V57.3945H83.9382V38.1315L72.2129 38.1315V26.4062Z"/>
</mask>
<path d="M52.9499 26.4062V24.7312H51.2749V26.4062H52.9499ZM72.2129 26.4062H73.8879V24.7312H72.2129V26.4062ZM52.9499 38.1315V39.8066H54.6249V38.1315H52.9499ZM41.2246 38.1315L41.2246 36.4565H39.5496L39.5496 38.1315H41.2246ZM41.2246 57.3945H39.5496L39.5496 59.0696H41.2246V57.3945ZM52.9499 57.3945H54.6249V55.7195H52.9499V57.3945ZM52.9499 69.1198H51.2749V70.7949H52.9499V69.1198ZM72.2129 69.1198V70.7949H73.8879V69.1198H72.2129ZM72.2129 57.3945V55.7195H70.5378V57.3945H72.2129ZM83.9382 57.3945V59.0696H85.6132V57.3945H83.9382ZM83.9382 38.1315H85.6132V36.4565H83.9382V38.1315ZM72.2129 38.1315H70.5378V39.8066H72.2129V38.1315ZM52.9499 28.0813H72.2129V24.7312H52.9499V28.0813ZM54.6249 38.1315V26.4062H51.2749V38.1315H54.6249ZM41.2246 39.8066L52.9499 39.8066V36.4565L41.2246 36.4565L41.2246 39.8066ZM42.8997 57.3945L42.8997 38.1315H39.5496L39.5496 57.3945H42.8997ZM52.9499 55.7195H41.2246V59.0696H52.9499V55.7195ZM54.6249 69.1198V57.3945H51.2749V69.1198H54.6249ZM72.2129 67.4448H52.9499V70.7949H72.2129V67.4448ZM70.5378 57.3945V69.1198H73.8879V57.3945H70.5378ZM83.9382 55.7195H72.2129V59.0696H83.9382V55.7195ZM82.2631 38.1315V57.3945H85.6132V38.1315H82.2631ZM72.2129 39.8066L83.9382 39.8066V36.4565L72.2129 36.4565L72.2129 39.8066ZM70.5378 26.4062V38.1315H73.8879V26.4062H70.5378Z" fill="black" mask="url(#path-5-inside-1_209_44608)"/>
<line x1="37.0372" y1="81.682" x2="88.9635" y2="81.682" stroke="black" stroke-width="1.67504" stroke-linecap="round"/>
<line x1="37.0372" y1="93.4076" x2="88.9635" y2="93.4076" stroke="black" stroke-width="1.67504" stroke-linecap="round"/>
</g>
<defs>
<clipPath id="clip0_209_44608">
<rect width="125.628" height="125.628" fill="white" transform="translate(0.186035 0.442383)"/>
</clipPath>
</defs>
</svg>
