<svg width="126" height="126" viewBox="0 0 126 126" fill="none" xmlns="http://www.w3.org/2000/svg">
<rect x="35.5176" y="45.0967" width="88.7401" height="28.5238" fill="#B7EA95"/>
<rect x="35.5176" y="84.1855" width="88.7401" height="28.5238" fill="#B7EA95"/>
<path d="M95.464 39.5507V8.38574H2.23975V117.991H95.464V107.427" stroke="black" stroke-width="1.67337" stroke-linecap="round"/>
<path d="M30.561 18.1572H88.8557" stroke="black" stroke-width="1.67337" stroke-linecap="round"/>
<path d="M25.3691 18.4219H22.7729" stroke="black" stroke-width="1.67337" stroke-linecap="round"/>
<path d="M19.2328 18.4219H16.6367" stroke="black" stroke-width="1.67337" stroke-linecap="round"/>
<path d="M13.5683 18.4219H10.9722" stroke="black" stroke-width="1.67337" stroke-linecap="round"/>
<path d="M17.1084 39.8145H10.9722" stroke="black" stroke-width="1.67337" stroke-linecap="round"/>
<path d="M17.1084 49.3223H10.9722" stroke="black" stroke-width="1.67337" stroke-linecap="round"/>
<path d="M17.1084 58.8301H10.9722" stroke="black" stroke-width="1.67337" stroke-linecap="round"/>
<path d="M17.1084 68.3389H10.9722" stroke="black" stroke-width="1.67337" stroke-linecap="round"/>
<path d="M17.1084 77.8467H10.9722" stroke="black" stroke-width="1.67337" stroke-linecap="round"/>
<path d="M17.1084 87.3545H10.9722" stroke="black" stroke-width="1.67337" stroke-linecap="round"/>
<path d="M17.1084 96.8623H10.9722" stroke="black" stroke-width="1.67337" stroke-linecap="round"/>
<path d="M17.1084 106.37H10.9722" stroke="black" stroke-width="1.67337" stroke-linecap="round"/>
<rect x="30.7969" y="39.8145" width="88.7401" height="28.5238" stroke="black" stroke-width="1.67337"/>
<rect x="30.7969" y="78.9023" width="88.7401" height="28.5238" stroke="black" stroke-width="1.67337"/>
<path d="M95.4639 68.3389V78.9033" stroke="black" stroke-width="1.67337" stroke-linecap="round"/>
<path d="M40.9458 49.5869H78.2355" stroke="black" stroke-width="1.67337" stroke-linecap="round"/>
<path d="M111.041 88.4111H73.7508" stroke="black" stroke-width="1.67337" stroke-linecap="round"/>
<path d="M83.6636 49.8506H111.041" stroke="black" stroke-width="1.67337" stroke-linecap="round"/>
<path d="M68.3232 88.6748H40.946" stroke="black" stroke-width="1.67337" stroke-linecap="round"/>
<path d="M71.3906 59.3584L111.04 59.3584" stroke="black" stroke-width="1.67337" stroke-linecap="round"/>
<path d="M80.5952 98.1826L40.9454 98.1826" stroke="black" stroke-width="1.67337" stroke-linecap="round"/>
<path d="M41.1816 59.3584L59.5905 59.3584" stroke="black" stroke-width="1.67337" stroke-linecap="round"/>
<path d="M110.805 98.1826L92.3958 98.1826" stroke="black" stroke-width="1.67337" stroke-linecap="round"/>
<path d="M2.47559 28.7217H95.4639" stroke="black" stroke-width="1.67337" stroke-linecap="round"/>
</svg>
