<svg width="127" height="127" viewBox="0 0 127 127" fill="none" xmlns="http://www.w3.org/2000/svg">
<g clip-path="url(#clip0_209_44609)">
<path d="M62.8219 28.7584C63.0478 28.6503 63.3103 28.6489 63.5373 28.7548L109.006 49.9478C109.648 50.2472 109.652 51.1596 109.011 51.4635L63.5297 73.048C63.3034 73.1553 63.041 73.1558 62.8143 73.0493L17.7311 51.8563C17.0919 51.5558 17.0888 50.6478 17.7258 50.3429L62.8219 28.7584Z" fill="white" stroke="black" stroke-width="1.67504"/>
<rect x="23.3921" y="66.6064" width="10.0503" height="30.1508" fill="white"/>
<rect x="51.0303" y="90.0566" width="10.0503" height="30.9883" transform="rotate(90 51.0303 90.0566)" fill="white"/>
<path d="M28.4171 79.3061V54.8805H63.1742H97.9313V79.3061C80.4497 102.252 45.8987 102.252 28.4171 79.3061Z" stroke="black" stroke-width="1.67504" stroke-linejoin="round"/>
<path d="M62.2766 32.952C62.7297 32.7382 63.2547 32.7384 63.7076 32.9526L106.856 53.3581C108.138 53.9642 108.134 55.789 106.85 56.3896L64.0944 76.3896C63.6407 76.6018 63.1158 76.5998 62.6636 76.3842L19.8792 55.9818C18.6042 55.3738 18.6079 53.5578 19.8854 52.955L62.2766 32.952Z" fill="#B7EA95"/>
<line x1="105.469" y1="53.2061" x2="105.469" y2="97.5947" stroke="black" stroke-width="1.67504"/>
<path d="M62.8224 28.7584C63.0483 28.6503 63.3108 28.6489 63.5378 28.7548L109.006 49.9478C109.649 50.2472 109.652 51.1596 109.012 51.4635L63.5302 73.048C63.3039 73.1553 63.0415 73.1558 62.8148 73.0493L17.7316 51.8563C17.0924 51.5558 17.0892 50.6478 17.7263 50.3429L62.8224 28.7584Z" stroke="black" stroke-width="1.67504"/>
<circle cx="30.6057" cy="89.1892" r="18.0954" fill="#B7EA95"/>
<path d="M33.7049 89.6598C33.7049 90.7747 33.2956 91.7062 32.477 92.4542C31.6585 93.1881 30.5929 93.6114 29.2804 93.7243V96.0318H28.3913V93.7455C27.4175 93.7173 26.5072 93.5268 25.6605 93.1739C24.8137 92.807 24.0657 92.2989 23.4165 91.6497L23.8611 90.8876C24.5808 91.5368 25.2935 92.0237 25.9992 92.3483C26.7189 92.6588 27.5093 92.8352 28.3702 92.8776V86.6114C27.4105 86.3715 26.6131 86.1175 25.978 85.8493C25.3429 85.5671 24.8137 85.1648 24.3903 84.6427C23.9669 84.1064 23.7552 83.4007 23.7552 82.5257C23.7552 81.7495 23.9457 81.0509 24.3268 80.4299C24.722 79.809 25.2724 79.315 25.978 78.9481C26.6837 78.5811 27.4881 78.3765 28.3913 78.3342V76.0479H29.2804V78.3553C30.1272 78.4259 30.9246 78.6305 31.6726 78.9692C32.4206 79.3079 33.0698 79.7737 33.6202 80.3664L33.1756 81.1074C32.1313 79.9783 30.8399 79.3503 29.3016 79.2233V85.9128C30.2331 86.1386 31.0022 86.3785 31.6091 86.6326C32.2159 86.8866 32.717 87.2606 33.1121 87.7546C33.5073 88.2344 33.7049 88.8695 33.7049 89.6598ZM24.6655 82.5469C24.6655 83.182 24.8278 83.7041 25.1524 84.1134C25.477 84.5086 25.9004 84.8191 26.4226 85.0449C26.9447 85.2707 27.5939 85.4824 28.3702 85.68V79.2021C27.2129 79.2727 26.3026 79.6043 25.6393 80.1971C24.9901 80.7757 24.6655 81.559 24.6655 82.5469ZM29.3016 92.8564C30.3883 92.7717 31.2351 92.4471 31.8419 91.8826C32.4629 91.3181 32.7734 90.5701 32.7734 89.6386C32.7734 88.8483 32.477 88.2556 31.8843 87.8604C31.2915 87.4652 30.4306 87.1265 29.3016 86.8443V92.8564Z" fill="black"/>
<circle cx="28.443" cy="86.7326" r="17.8444" stroke="black" stroke-width="1.21383"/>
</g>
<defs>
<clipPath id="clip0_209_44609">
<rect width="125.628" height="125.628" fill="white" transform="translate(0.778809 0.442383)"/>
</clipPath>
</defs>
</svg>
