<svg width="127" height="127" viewBox="0 0 127 127" fill="none" xmlns="http://www.w3.org/2000/svg">
<circle cx="56.0087" cy="37.6679" r="21.2363" fill="#B7EA95"/>
<circle cx="53.1897" cy="33.6809" r="22.2581" stroke="black" stroke-width="1.67337" stroke-linejoin="round"/>
<path d="M16.9402 94.1522C17.3839 76.8853 31.5203 63.0242 48.8942 63.0242H58.266C75.6398 63.0242 89.7763 76.8853 90.2199 94.1522H53.5801H16.9402Z" stroke="black" stroke-width="1.67337" stroke-linejoin="round"/>
<circle cx="82.9792" cy="87.6242" r="24.6" fill="white" stroke="black" stroke-width="1.67337"/>
<circle cx="85.9612" cy="91.0105" r="24.946" fill="#B7EA95"/>
<path d="M73.6978 91.6701L72.8793 91.8436L72.8848 91.8696L72.8919 91.8952L73.6978 91.6701ZM87.7112 101.635C88.1702 101.582 88.4996 101.167 88.4469 100.708C88.3942 100.249 87.9793 99.9199 87.5203 99.9726L87.7112 101.635ZM74.5163 91.4966C73.2579 85.5602 77.0502 79.7276 82.9866 78.4692L82.6396 76.8322C75.7991 78.2823 71.4292 85.0031 72.8793 91.8436L74.5163 91.4966ZM82.9866 78.4692C88.923 77.2108 94.7525 81.0011 96.0109 86.9375L97.6479 86.5905C96.1979 79.75 89.4801 75.3822 82.6396 76.8322L82.9866 78.4692ZM73.6978 91.6701C72.8919 91.8952 72.8921 91.8956 72.8922 91.8961C72.8923 91.8963 72.8924 91.8968 72.8925 91.8972C72.8928 91.8981 72.893 91.8991 72.8934 91.9003C72.894 91.9026 72.8949 91.9056 72.8959 91.9092C72.898 91.9164 72.9008 91.926 72.9044 91.9381C72.9115 91.9622 72.9218 91.9959 72.9353 92.0386C72.9622 92.1239 73.0021 92.245 73.0564 92.3965C73.1648 92.6992 73.3308 93.1245 73.5651 93.6281C74.0325 94.6328 74.7783 95.9635 75.8926 97.2573C78.1423 99.8694 81.8809 102.305 87.7112 101.635L87.5203 99.9726C82.3368 100.568 79.1165 98.4363 77.1606 96.1653C76.1721 95.0175 75.5035 93.8276 75.0823 92.9222C74.8722 92.4707 74.7252 92.0934 74.6318 91.8324C74.5851 91.702 74.5519 91.601 74.5309 91.5346C74.5204 91.5014 74.513 91.4769 74.5085 91.4617C74.5063 91.4541 74.5047 91.4489 74.5039 91.4461C74.5035 91.4447 74.5033 91.4439 74.5033 91.4437C74.5032 91.4436 74.5032 91.4437 74.5033 91.4439C74.5033 91.444 74.5034 91.4443 74.5034 91.4444C74.5035 91.4447 74.5036 91.445 73.6978 91.6701Z" fill="black"/>
<path d="M92.8433 85.1397L97.0064 87.16L99.0064 83.1602" stroke="black" stroke-width="1.67337" stroke-linecap="round" stroke-linejoin="round"/>
<circle cx="82.9792" cy="87.6242" r="24.6" stroke="black" stroke-width="1.67337"/>
</svg>
