<svg width="126" height="126" viewBox="0 0 126 126" fill="none" xmlns="http://www.w3.org/2000/svg">
<rect x="30.6621" y="30.7676" width="12.5502" height="11.7135" fill="#B7EA95"/>
<rect x="30.6621" y="49.1748" width="12.5502" height="11.7135" fill="#B7EA95"/>
<rect x="30.6621" y="67.5811" width="12.5502" height="11.7135" fill="#B7EA95"/>
<rect x="30.6621" y="85.9883" width="12.5502" height="11.7135" fill="#B7EA95"/>
<rect x="49.9058" y="49.1748" width="11.7135" height="11.7135" fill="#B7EA95"/>
<rect x="49.9058" y="30.7676" width="11.7135" height="11.7135" fill="#B7EA95"/>
<rect x="68.3125" y="49.1748" width="12.5502" height="11.7135" fill="#B7EA95"/>
<rect x="49.9058" y="67.5811" width="11.7135" height="11.7135" fill="#B7EA95"/>
<rect x="49.9058" y="85.9883" width="11.7135" height="11.7135" fill="#B7EA95"/>
<rect x="68.3125" y="30.7676" width="12.5502" height="11.7135" fill="#B7EA95"/>
<path d="M72.9626 116.946H20.6216V9.01367H84.2094V72.2248" stroke="black" stroke-width="1.67337"/>
<path d="M20.6216 21.5635L84.2094 21.5635" stroke="black" stroke-width="1.67337" stroke-linecap="round"/>
<path d="M20.6216 101.048H73.3325" stroke="black" stroke-width="1.67337" stroke-linecap="round"/>
<rect x="27.3149" y="27.4209" width="12.5502" height="11.7135" stroke="black" stroke-width="1.67337"/>
<rect x="27.3149" y="45.8271" width="12.5502" height="11.7135" stroke="black" stroke-width="1.67337"/>
<rect x="27.3149" y="64.2344" width="12.5502" height="11.7135" stroke="black" stroke-width="1.67337"/>
<rect x="27.3149" y="82.6416" width="12.5502" height="11.7135" stroke="black" stroke-width="1.67337"/>
<rect x="46.5586" y="45.8271" width="11.7135" height="11.7135" stroke="black" stroke-width="1.67337"/>
<rect x="46.5586" y="27.4209" width="11.7135" height="11.7135" stroke="black" stroke-width="1.67337"/>
<rect x="64.9653" y="45.8271" width="12.5502" height="11.7135" stroke="black" stroke-width="1.67337"/>
<rect x="46.5586" y="64.2344" width="11.7135" height="11.7135" stroke="black" stroke-width="1.67337"/>
<rect x="46.5586" y="82.6416" width="11.7135" height="11.7135" stroke="black" stroke-width="1.67337"/>
<rect x="49.9058" y="106.905" width="5.02009" height="4.18341" stroke="black" stroke-width="1.67337"/>
<rect x="64.9653" y="27.4209" width="12.5502" height="11.7135" stroke="black" stroke-width="1.67337"/>
<path d="M89.2295 52.5205L91.3883 54.6126C100.17 63.1227 105.126 74.829 105.126 87.0575V117.363" stroke="black" stroke-width="1.67337" stroke-linecap="round"/>
<path d="M96.7595 84.2574L79.2737 67.9784C76.5073 65.4029 72.2156 65.4206 69.4705 68.0189V68.0189C66.5437 70.7891 66.4779 75.4279 69.3251 78.28L80.4442 89.4186C76.3835 94.1497 69.0888 106.279 72.3953 116.945" stroke="black" stroke-width="1.67337" stroke-linecap="round"/>
</svg>
