<svg width="126" height="127" viewBox="0 0 126 127" fill="none" xmlns="http://www.w3.org/2000/svg">
<g clip-path="url(#clip0_209_44604)">
<rect x="8.02734" y="57.834" width="18.407" height="18.407" fill="#B7EA95"/>
<circle cx="108.429" cy="65.3637" r="9.20352" fill="#B7EA95"/>
<rect x="47.1094" y="53.1367" width="27.9634" height="24.284" fill="#B7EA95"/>
<path d="M42.7261 83.3246H84.608C85.1316 83.3246 85.4806 82.9756 85.4806 82.4521V78.9619C85.4806 78.4384 85.1316 78.0894 84.608 78.0894H82.863V75.4718C82.863 74.9482 82.5139 74.5992 81.9904 74.5992H80.3326V55.2288H83.6482C84.1718 55.2288 84.5208 54.8798 84.5208 54.3563V49.3828C84.5208 49.0338 84.3463 48.6847 83.9973 48.5975L64.1033 39.8721C63.8416 39.7848 63.667 39.7848 63.4053 39.8721L43.5113 48.5975C43.1623 48.772 42.9878 49.0338 42.9878 49.3828V54.3563C42.9878 54.8798 43.3368 55.2288 43.8604 55.2288H47.176V74.512H45.3437C44.8202 74.512 44.4711 74.861 44.4711 75.3845V78.0021H42.7261C42.2025 78.0021 41.8535 78.3511 41.8535 78.8747V82.3648C41.8535 82.8884 42.2898 83.3246 42.7261 83.3246ZM44.6456 53.4837V49.9936L63.667 41.7044L82.6884 49.9936V53.4837H44.6456ZM78.5875 55.2288V74.512H69.7748V55.2288H78.5875ZM68.0298 55.2288V74.512H59.3043V55.2288H68.0298ZM57.5593 55.2288V74.512H48.7466V55.2288H57.5593ZM46.2162 76.3443H81.1179V78.0894H46.2162V76.3443ZM43.5986 79.8345H45.3437H81.9904H83.7355V81.5796H43.5986V79.8345Z" fill="black"/>
<path d="M63.6667 44.9336C62.0089 44.9336 60.6128 46.3297 60.6128 47.9875C60.6128 49.6453 62.0089 51.0414 63.6667 51.0414C65.3245 51.0414 66.7206 49.6453 66.7206 47.9875C66.7206 46.3297 65.3245 44.9336 63.6667 44.9336ZM63.6667 49.2963C62.9687 49.2963 62.3579 48.6855 62.3579 47.9875C62.3579 47.2895 62.9687 46.6787 63.6667 46.6787C64.3647 46.6787 64.9755 47.2895 64.9755 47.9875C64.9755 48.6855 64.3647 49.2963 63.6667 49.2963Z" fill="black"/>
<path d="M116.796 63.6896C116.796 68.7725 112.675 72.8931 107.592 72.8931C102.509 72.8931 98.3888 68.7725 98.3888 63.6896C98.3888 58.6066 102.509 54.486 107.592 54.486C112.675 54.486 116.796 58.6066 116.796 63.6896Z" stroke="black" stroke-width="1.67337"/>
<path d="M64.9218 101.341L75.7907 120.166H54.053L64.9218 101.341Z" fill="#B7EA95"/>
<path d="M65.3401 7.63281L69.0141 15.254L76.6354 18.928L69.0141 22.602L65.3401 30.2233L61.6662 22.602L54.0449 18.928L61.6662 15.254L65.3401 7.63281Z" fill="#B7EA95"/>
<rect x="6.35377" y="56.1599" width="18.407" height="18.407" stroke="black" stroke-width="1.67337"/>
<path d="M52.3236 118.702L62.8302 100.504L73.3367 118.702H52.3236Z" stroke="black" stroke-width="1.67337"/>
<path d="M63.2485 7.88573L66.577 14.7904L66.704 15.0537L66.9674 15.1807L73.872 18.5092L66.9674 21.8378L66.704 21.9647L66.577 22.2281L63.2485 29.1327L59.92 22.2281L59.793 21.9647L59.5296 21.8378L52.625 18.5092L59.5296 15.1807L59.793 15.0537L59.92 14.7904L63.2485 7.88573Z" stroke="black" stroke-width="1.67337"/>
</g>
<defs>
<clipPath id="clip0_209_44604">
<rect width="125.502" height="125.502" fill="white" transform="translate(0.49707 0.939453)"/>
</clipPath>
</defs>
</svg>
