<svg width="126" height="126" viewBox="0 0 126 126" fill="none" xmlns="http://www.w3.org/2000/svg">
<path d="M88.6885 89.3105V120.846L120.681 89.3105H88.6885Z" fill="#B7EA95"/>
<rect x="47.5547" y="68.2871" width="34.2782" height="19.1958" fill="#B7EA95"/>
<rect x="47.5547" y="38.5791" width="34.2782" height="19.1958" fill="#B7EA95"/>
<rect x="47.5547" y="9.78516" width="34.2782" height="19.1958" fill="#B7EA95"/>
<path d="M33.8435 24.6396H4.82129V116.277H84.1182L116.111 84.9693V24.6396" stroke="black" stroke-width="1.67337" stroke-linecap="round"/>
<path d="M83.8901 115.819V84.2832H115.883" stroke="black" stroke-width="1.67337" stroke-linecap="round"/>
<rect x="15.1045" y="93.4248" width="34.2782" height="12.3401" stroke="black" stroke-width="1.67337"/>
<rect x="42.9849" y="63.7168" width="34.2782" height="19.1958" stroke="black" stroke-width="1.67337"/>
<rect x="42.9849" y="34.0088" width="34.2782" height="19.1958" stroke="black" stroke-width="1.67337"/>
<rect x="42.9849" y="5.21484" width="34.2782" height="19.1958" stroke="black" stroke-width="1.67337"/>
<path d="M84.5752 14.1279H104.685V43.3787H88.2315" stroke="black" stroke-width="1.67337" stroke-linecap="round"/>
<path d="M32.4727 43.6064H12.3628V72.8572H28.8163" stroke="black" stroke-width="1.67337" stroke-linecap="round"/>
<path d="M95.0866 34.9229L87.7739 43.3781L95.0866 52.519" stroke="black" stroke-width="1.67337" stroke-linecap="round"/>
<path d="M21.9608 64.4023L29.2734 72.8576L21.9608 81.9985" stroke="black" stroke-width="1.67337" stroke-linecap="round"/>
</svg>
