<svg width="1358" height="438" viewBox="0 0 1358 438" fill="none" xmlns="http://www.w3.org/2000/svg">
<path d="M72.6348 119.941L94.846 106.614" stroke="#73EBF2" stroke-width="10.077" stroke-miterlimit="10" stroke-linecap="round"/>
<path d="M21.5479 93.2876C30.1347 93.2876 37.0957 86.3266 37.0957 77.7398C37.0957 69.1529 30.1347 62.1919 21.5479 62.1919C12.961 62.1919 6 69.1529 6 77.7398C6 86.3266 12.961 93.2876 21.5479 93.2876Z" fill="#FF008C"/>
<path d="M58.4848 377.592C55.8686 367.654 65.927 364.879 63.3108 354.941C60.6945 345.004 50.6257 347.79 48.0095 337.842C45.3932 327.904 55.4517 325.118 52.8354 315.181C50.2192 305.243 40.1503 308.018 37.5341 298.081C34.9179 288.143 44.9763 285.357 42.3601 275.42" stroke="#82CF00" stroke-width="10.077" stroke-miterlimit="10" stroke-linecap="round"/>
<path d="M221.448 373.149C230.035 373.149 236.996 366.188 236.996 357.601C236.996 349.014 230.035 342.053 221.448 342.053C212.861 342.053 205.9 349.014 205.9 357.601C205.9 366.188 212.861 373.149 221.448 373.149Z" fill="#FF008C"/>
<path d="M151.525 217.67L150.85 197.398L134.826 186.488L152.691 179.549L157.456 159.921L169.164 175.894L188.133 174.672L177.509 191.485L184.472 210.36L166.199 204.774L151.525 217.67Z" fill="#FFBA00"/>
<path d="M179.247 35.538L161.479 17.769" stroke="#FF6900" stroke-width="10.077" stroke-miterlimit="10" stroke-linecap="round"/>
<path d="M268.092 84.4027C275.293 77.0188 283.223 84.2344 290.424 76.8505C297.625 69.4667 289.694 62.2511 296.895 54.8672C304.096 47.4834 312.026 54.6989 319.227 47.3151C326.428 39.9312 318.497 32.7156 325.709 25.3317C332.91 17.9479 340.841 25.1529 348.052 17.769" stroke="#82CF00" stroke-width="10.077" stroke-miterlimit="10" stroke-linecap="round"/>
<path d="M898.438 396.209C888.187 395.075 888.997 384.383 878.746 383.249C868.495 382.114 867.685 392.805 857.434 391.67C847.183 390.536 847.993 379.844 837.742 378.709C827.49 377.575 826.68 388.266 816.423 387.123C806.171 385.988 806.973 375.303 796.715 374.16" stroke="#82CF00" stroke-width="10.077" stroke-miterlimit="10" stroke-linecap="round"/>
<path d="M1036.25 57.7492L1025.71 40.0906L1005.51 38.9557L1018.68 23.2555L1013.5 3.26021L1032.18 11.216L1049.19 0L1047.55 20.6183L1063.26 33.6815L1043.56 38.4661L1036.25 57.7492Z" fill="#FFBA00"/>
<path d="M386.435 406.933L388.085 386.434L372.277 373.794L392.114 368.639L399.483 349.343L410.094 366.657L430.454 367.377L417.17 383.23L422.389 402.976L403.567 395.456L386.435 406.933Z" fill="#FFBA00"/>
<path d="M1212.07 79.96C1220.66 79.96 1227.62 72.999 1227.62 64.4121C1227.62 55.8253 1220.66 48.8643 1212.07 48.8643C1203.48 48.8643 1196.52 55.8253 1196.52 64.4121C1196.52 72.999 1203.48 79.96 1212.07 79.96Z" fill="#FF008C"/>
<path d="M1334.23 13.3267L1347.56 35.5379" stroke="#FF6900" stroke-width="10.077" stroke-miterlimit="10" stroke-linecap="round"/>
<path d="M845.584 39.9802L872.237 31.0957" stroke="#73EBF2" stroke-width="10.077" stroke-miterlimit="10" stroke-linecap="round"/>
<path d="M582.512 37.6893L580.021 15.6182" stroke="#FF6900" stroke-width="10.077" stroke-miterlimit="10" stroke-linecap="round"/>
<path d="M1312.02 306.515C1314.99 296.43 1325.22 299.587 1328.19 289.502C1331.17 279.417 1320.94 276.259 1323.92 266.173C1326.89 256.088 1337.11 259.246 1340.09 249.149C1343.07 239.064 1332.84 235.906 1335.82 225.81C1338.8 215.724 1349.02 218.871 1352 208.786" stroke="#82CF00" stroke-width="10.077" stroke-miterlimit="10" stroke-linecap="round"/>
<path d="M23.769 217.67L6 195.459" stroke="#FF6900" stroke-width="10.077" stroke-miterlimit="10" stroke-linecap="round"/>
<path d="M1180.97 377.591C1189.56 377.591 1196.52 370.63 1196.52 362.043C1196.52 353.457 1189.56 346.496 1180.97 346.496C1172.39 346.496 1165.43 353.457 1165.43 362.043C1165.43 370.63 1172.39 377.591 1180.97 377.591Z" fill="#FF008C"/>
<path d="M1285.64 144.885L1292.62 119.941" stroke="#73EBF2" stroke-width="10.077" stroke-miterlimit="10" stroke-linecap="round"/>
<path d="M570.164 386.476L547.953 373.149" stroke="#73EBF2" stroke-width="10.077" stroke-miterlimit="10" stroke-linecap="round"/>
</svg>
