<svg width="728" height="455" viewBox="0 0 728 455" fill="none" xmlns="http://www.w3.org/2000/svg">
<g opacity="0.3" clip-path="url(#clip0_346_43788)">
<path d="M352.842 126.467H414.966C422.228 126.467 427.875 119.206 425.455 111.944L393.989 7.86637C390.762 -2.62212 375.433 -2.62212 373.012 7.86637L342.354 111.944C339.933 119.206 344.774 126.467 352.842 126.467Z" fill="#FF9C00"/>
<path d="M228.595 176.489L282.651 145.831C289.105 141.797 289.912 132.922 285.071 128.081L206.004 53.0479C197.936 45.7867 185.027 53.0479 187.448 63.5364L212.459 169.228C213.266 176.489 222.141 179.717 228.595 176.489Z" fill="#FF9C00"/>
<path d="M169.696 211.183L64.0047 186.172C53.5162 183.752 45.4481 196.66 53.5162 204.728L128.549 283.796C133.39 289.443 142.265 287.83 146.299 281.375L176.958 227.319C180.185 221.671 176.958 212.797 169.696 211.183Z" fill="#FF9C00"/>
<path d="M126.936 413.689V351.565C126.936 344.304 119.675 338.656 112.413 341.076L8.33512 372.542C-2.15337 375.769 -2.15337 391.098 8.33512 393.519L112.413 424.178C119.675 426.598 126.936 421.757 126.936 413.689Z" fill="#FF9C00"/>
<path d="M758.665 372.543L654.587 341.884C647.326 339.464 640.064 345.111 640.064 352.373V414.497C640.064 421.758 647.326 427.406 654.587 424.985L758.665 394.326C769.154 390.292 769.154 375.77 758.665 372.543Z" fill="#FF9C00"/>
<path d="M621.509 281.375C625.543 287.83 634.418 288.636 639.259 283.796L714.292 204.728C721.553 196.66 714.292 183.752 703.804 186.172L598.112 211.183C590.851 212.797 587.623 220.865 590.851 227.319L621.509 281.375Z" fill="#FF9C00"/>
<path d="M485.157 145.023L539.214 175.681C545.668 179.715 553.736 175.681 555.35 168.42L580.361 62.7283C582.781 52.2398 569.872 44.1717 561.804 52.2398L482.737 127.273C477.896 132.921 478.703 141.795 485.157 145.023Z" fill="#FF9C00"/>
<path d="M383.501 587.154C496.235 587.154 587.623 495.765 587.623 383.031C587.623 270.298 496.235 178.909 383.501 178.909C270.768 178.909 179.379 270.298 179.379 383.031C179.379 495.765 270.768 587.154 383.501 587.154Z" fill="#FF9C00"/>
</g>
<defs>
<clipPath id="clip0_346_43788">
<rect width="728" height="455" fill="white"/>
</clipPath>
</defs>
</svg>
