<svg width="402" height="315" viewBox="0 0 402 315" fill="none" xmlns="http://www.w3.org/2000/svg">
<path d="M350.894 149.537V12.0295C350.894 5.01935 344.879 -0.539015 337.869 0.04171C261.089 6.63709 200.859 71.0561 200.859 149.537H350.894Z" fill="#FFAD0C"/>
<path d="M50.8262 149.537V12.0295C50.8262 5.01935 56.8408 -0.539015 63.851 0.04171C140.59 6.63709 200.861 71.0561 200.861 149.537H50.8262Z" fill="#FFBC00"/>
<path d="M334.427 191.1L399.551 284.099C402.869 288.869 401.459 295.465 396.398 298.368C341.354 330.267 270.132 315.251 232.924 262.156L167.8 169.157C164.482 164.387 165.892 157.791 170.953 154.888C225.997 122.989 297.26 138.005 334.427 191.1Z" fill="#FFAD0C"/>
<path d="M66.9203 191.1L1.79617 284.099C-1.52226 288.869 -0.111923 295.465 4.94868 298.368C59.9931 330.267 131.256 315.251 168.423 262.156L233.547 169.157C236.865 164.387 235.455 157.791 230.394 154.888C175.35 122.989 104.087 138.005 66.9203 191.1Z" fill="#FFBC00"/>
<path d="M200.486 215.034C237.072 215.034 266.73 185.376 266.73 148.79C266.73 112.204 237.072 82.5459 200.486 82.5459C163.901 82.5459 134.242 112.204 134.242 148.79C134.242 185.376 163.901 215.034 200.486 215.034Z" fill="#FCCD32"/>
</svg>
