<svg width="100" height="100" viewBox="0 0 100 100" fill="none" xmlns="http://www.w3.org/2000/svg">
<rect x="0.5" y="0.5" width="99" height="99" fill="white" stroke="#E0E0E0"/>
<path d="M50 87C70.4345 87 87 70.4345 87 50C87 29.5655 70.4345 13 50 13C29.5655 13 13 29.5655 13 50C13 70.4345 29.5655 87 50 87Z" fill="white"/>
<path d="M50 87C70.4345 87 87 70.4345 87 50C87 29.5655 70.4345 13 50 13C29.5655 13 13 29.5655 13 50C13 70.4345 29.5655 87 50 87Z" stroke="#5E72E4" stroke-width="6"/>
<path fill-rule="evenodd" clip-rule="evenodd" d="M29 79H71C66.4006 75.7151 62.9511 73.6282 60.6515 72.7393C58.3518 71.8504 54.9023 71.2707 50.3029 71C45.5692 71.2706 42.0188 71.8504 39.6517 72.7393C37.2847 73.6282 33.7341 75.7151 29 79Z" fill="#5E72E4" stroke="#5E72E4"/>
<path fill-rule="evenodd" clip-rule="evenodd" d="M29 79H71C66.4006 82.2849 62.9511 84.3718 60.6515 85.2607C58.3518 86.1496 54.9023 86.7293 50.3029 87C45.5692 86.7294 42.0188 86.1496 39.6517 85.2607C37.2847 84.3718 33.7341 82.2849 29 79Z" fill="#5E72E4" stroke="#5E72E4"/>
<path d="M50.5 58C54.6421 58 58 54.6421 58 50.5C58 46.3579 54.6421 43 50.5 43C46.3579 43 43 46.3579 43 50.5C43 54.6421 46.3579 58 50.5 58Z" fill="#5E72E4"/>
<path fill-rule="evenodd" clip-rule="evenodd" d="M48 45.355L66 34L56.131 53L48 45.355Z" fill="#5E72E4" stroke="#5E72E4" stroke-width="3" stroke-linejoin="round"/>
<path d="M50.5 23V27" stroke="#5E72E4" stroke-width="5" stroke-linecap="round"/>
<path d="M31.5762 31.5752L34.4245 34.5247" stroke="#5E72E4" stroke-width="5" stroke-linecap="round"/>
<path d="M22.5 50H26.5" stroke="#5E72E4" stroke-width="5" stroke-linecap="round"/>
<path d="M73.5 50H77.5" stroke="#5E72E4" stroke-width="5" stroke-linecap="round"/>
</svg>
