<?xml version="1.0" encoding="utf-8"?>
<!-- Generator: Adobe Illustrator 23.1.1, SVG Export Plug-In . SVG Version: 6.00 Build 0)  -->
<svg version="1.1" id="Layer_1" xmlns="http://www.w3.org/2000/svg" xmlns:xlink="http://www.w3.org/1999/xlink" x="0px" y="0px"
	 viewBox="0 0 673.8 421.1" style="enable-background:new 0 0 673.8 421.1;" xml:space="preserve">
<style type="text/css">
	.st0{fill:#366251;}
	.st1{opacity:5.000000e-02;}
	.st2{fill:url(#SVGID_1_);}
	.st3{opacity:0.1;fill:url(#SVGID_2_);enable-background:new    ;}
	.st4{fill:#E8E6DF;}
	.st5{fill:#282827;}
</style>
<title>barnes&amp;amp;noble</title>
<g>
	<g id="plastic_gloss">
		<g>
			<path class="st0" d="M20.2,0h632.5c11.2,0,20.2,11.3,20.2,25.2v370.1c0,14-9,25.2-20.2,25.2H20.2C9,420.5,0,409.2,0,395.3V25.2
				C0,11.3,9,0,20.2,0z"/>
		</g>
		<g id="Layer_1-2" class="st1">
			
				<linearGradient id="SVGID_1_" gradientUnits="userSpaceOnUse" x1="396" y1="-339.7" x2="396" y2="80.82" gradientTransform="matrix(1 0 0 -1 -59.58 81.37)">
				<stop  offset="0" style="stop-color:#231F20"/>
				<stop  offset="5.000000e-02" style="stop-color:#444142"/>
				<stop  offset="0.14" style="stop-color:#7C7A7B"/>
				<stop  offset="0.22" style="stop-color:#ABAAAA"/>
				<stop  offset="0.31" style="stop-color:#D0CFCF"/>
				<stop  offset="0.38" style="stop-color:#EAE9E9"/>
				<stop  offset="0.45" style="stop-color:#F9F9F9"/>
				<stop  offset="0.5" style="stop-color:#FFFFFF"/>
				<stop  offset="0.6" style="stop-color:#FCFCFC"/>
				<stop  offset="0.67" style="stop-color:#F3F3F3"/>
				<stop  offset="0.73" style="stop-color:#E4E3E4"/>
				<stop  offset="0.78" style="stop-color:#CECDCE"/>
				<stop  offset="0.83" style="stop-color:#B2B1B1"/>
				<stop  offset="0.88" style="stop-color:#908E8F"/>
				<stop  offset="0.93" style="stop-color:#676565"/>
				<stop  offset="0.97" style="stop-color:#3A3637"/>
				<stop  offset="0.99" style="stop-color:#231F20"/>
			</linearGradient>
			<path class="st2" d="M20.2,0.6h632.5c11.2,0,20.2,11.3,20.2,25.2v370.1c0,14-9,25.2-20.2,25.2H20.2C9,421.1,0,409.8,0,395.8V25.8
				C0,11.8,9,0.6,20.2,0.6z"/>
		</g>
		
			<linearGradient id="SVGID_2_" gradientUnits="userSpaceOnUse" x1="755.621" y1="590.0911" x2="278.051" y2="1067.661" gradientTransform="matrix(1 0 0 1 -59.58 -543.31)">
			<stop  offset="0" style="stop-color:#231F20"/>
			<stop  offset="0.5" style="stop-color:#FFFFFF"/>
			<stop  offset="1" style="stop-color:#231F20"/>
		</linearGradient>
		<path class="st3" d="M12.9,404.3c331.6,0,607-142.1,660.9-328.9v321.3c0,13.1-10.7,23.8-23.8,23.8c0,0,0,0,0,0H23.6
			c-10.2,0-19.3-6.5-22.6-16.3C5,404.3,8.9,404.3,12.9,404.3z"/>
	</g>
	<g id="logo">
		<path class="st4" d="M603.7,237.6v11.3h-29.6v-74.9h27.5v11.3h-14.5v20H600v10.4h-13v21.8L603.7,237.6L603.7,237.6z M536.7,173.9
			h13.9v63.7h15.7v11.3h-29.6V173.9L536.7,173.9z M527.1,227.5c0,15.7-7,21.4-19.1,21.4h-16.7v-74.9h16.9c13.4,0,16.9,7.7,16.9,20.4
			c0,9.4-3.5,14.3-9.2,14.6c6.4,0,11.5,6.4,11.5,18.5L527.1,227.5L527.1,227.5z M506.9,182.8h-2.4v21.8h3.5c3.5,0,4-3.5,4-9.8
			c0-8.7-1-12.2-5.2-12.2L506.9,182.8L506.9,182.8L506.9,182.8z M507.4,213.4h-3v26.6h3.5c4,0,5.2-2.4,5.2-13.9
			c0-8.2-1.2-12.5-5.8-12.5L507.4,213.4L507.4,213.4z M463.2,250.3c-11.7,0-17.8-4.9-17.8-38.6c0-32.7,5.2-38.3,17.9-38.3
			c13.1,0,17.9,5.6,17.9,38.3c0,32-5.2,38.6-17.9,38.6H463.2L463.2,250.3z M466.7,187.3c-0.5-5.2-1.7-6.4-3.5-6.4
			c-2.1,0-3.1,1-3.5,6.4c-0.4,5.2-0.4,12.7-0.4,24.4c0,13.9,0,19.1,0.5,24c0.4,5.8,1.4,6.3,3.5,6.3c2.3,0,3,0,3.5-6.3v-48.6
			L466.7,187.3z M416.2,221.3c-1.3-4.2-2.4-8.6-3.2-13c0.7,10.1,0.7,12.9,0.7,21.8v19.1H401v-74.9h12.5c0,0,5.6,22.1,7,26.6
			c1.2,3.9,2,7.8,2.6,11.8c-0.4-7.5-0.4-16.4-0.4-23.9v-15.1H435v74.9h-10.6l-8.4-27.9L416.2,221.3z M319.9,229.3
			c0,12.2-5.2,20.9-17.1,20.9c-10.1,0-16.9-5.2-16.9-18.3c-0.1-2.7,0.1-5.4,0.7-8h12.2c-0.6,2.6-0.9,5.2-0.9,7.8
			c0,8.4,2.1,9.8,5.2,9.8c2.3,0,4-1.2,4-9.6c0-7.3-5.2-12.7-10.5-19.1c-5.6-6.3-11.3-14.6-11.3-21.6c0-11.1,5.2-17.4,16-17.4
			c10.5,0,16.2,5.6,16.2,16.5c-0.1,2.1-0.4,4.1-1,6.1h-11.2l0.4-5.2c0-7-1-9.6-4-9.6c-3.1,0-3.5,3-3.5,8.4c0,7,5.2,12.2,9.9,17.8
			c6.3,8,11.5,14.3,11.5,22.1L319.9,229.3z M248.5,174.1h27.9v11.3h-14.5v20h12.9v10.4h-12.7v21.8h16.5V249H249v-74.9L248.5,174.1
			L248.5,174.1z M217.2,221.1c-1.3-4.2-2.3-8.5-3-12.9c0.7,10.1,0.7,12.9,0.7,21.8v19.1h-12.5v-74.9h12.5l7,26.6
			c1.4,4.7,2.4,8.4,3.1,11.8c-0.4-7.5-0.7-16.4-0.7-23.9v-15h12.2v74.9h-11l-8.2-27.9L217.2,221.1z M179.9,210.7
			c8.7,2.1,9.6,12.2,9.6,21.2c0,7,0.5,13.4,1.4,17.1h-14c0-3.1-0.9-4.4-0.9-11.5V228c0-6.1-2.1-10.4-6.4-11.7h-0.7v32.2H155v-74.8
			h20.4c9.2,0,15.7,5.2,15.7,19.1c0,11.5-5.2,16.5-11.1,17.4L179.9,210.7L179.9,210.7z M171.2,183.5h-2.4v21.4h4
			c3.5,0,4.5-2.3,4.5-8.7C177.3,184.9,175.5,183.3,171.2,183.5L171.2,183.5z M131.5,236.8h-8.7l-1,12.2h-11.7l11-75.4h13.2
			l12.7,75.2h-13.9l-1.7-12.2L131.5,236.8z M129.1,214.2c-0.4-3.5-1.7-14.4-1.7-21.6c-0.5,7.5-1.7,18.1-1.7,21.4l-1.7,14.4h7
			L129.1,214.2z M105.1,227.2c0,15.7-7,21.4-19.2,21.4H69.2v-74.9H86c13.2,0,16.7,7.7,16.7,20.4c0,9.4-3.5,14.3-9.2,14.6
			C100,208.7,105,215.2,105.1,227.2L105.1,227.2z M84.9,182.8h-2.7v21.8h3.5c3.5,0,4-3.5,4-9.8c0-8.7-0.9-12.2-5.2-12.2L84.9,182.8z
			 M85.2,213.3h-2.8v26.6h3.5c4,0,5.2-2.4,5.2-13.9c0-8.2-1.2-12.5-5.8-12.5L85.2,213.3z"/>
		<path class="st5" d="M394.4,218.1c-0.4,2.4-1.7,4.4-4.5,4.4c-5.8,0-1.2-8.7-6.6-8.7c-3.1,0-5.2,2.8-8.7,10.1l-5.2,12.5l1,2.3
			c3.5,4.7,6.6,8,10.5,8c2.1,0,4.4-1,7.8-4.5l1.7,2.4c-3.8,4.7-8.7,7.3-13.1,7.3c-5.2,0-9.8-4.7-13.1-8.4
			c-4.9,5.2-10.5,8.4-18.1,8.4c-11,0-20.9-7-18.5-22.6c2.1-9.4,9.2-15.7,17.4-20.9c-2.4-6.3-3.8-13.9-2.8-19.7
			c1.8-10.8,11-18.8,21.9-19c10.8,0,15.7,7.3,13.9,15.7c-0.9,4.8-3.5,9.1-7.3,12.2c-4.7,4.2-12.5,7.8-16.9,10.4
			c2.8,7,7,14.8,12.9,24.9c1.7-3.5,4.4-9.8,7-14.8c2.3-5.2,5.9-8.4,11.3-8.4C392.7,209.8,394.8,215,394.4,218.1z M336.1,231.2
			c-1,6.4,3,15.1,13.4,15.1c5.2,0,8.7-1.4,12.2-5.8c-6-8.6-11.1-17.8-15.1-27.5C341.3,217.6,337.5,222.6,336.1,231.2z M368.3,193.4
			c1.8-2.2,3-4.9,3.5-7.7c1.2-6.3-2.4-10.4-7.8-10.4c-7,0-12.2,5.8-12.5,11.1c-1.2,5.9-0.5,11.7,1.4,17.8
			c4.2-2.4,12.9-7.8,15.7-10.8L368.3,193.4L368.3,193.4z"/>
	</g>
</g>
</svg>
