<svg width="119" height="126" viewBox="0 0 119 126" fill="none" xmlns="http://www.w3.org/2000/svg">
<path fill-rule="evenodd" clip-rule="evenodd" d="M43.3747 0C82.6353 0 86.1244 23.2327 86.1244 45.0735L86.1258 118.588C86.1258 122.398 84.3805 124.475 80.8914 124.475H61.3479C58.0323 124.475 56.1107 122.743 56.1107 119.275V110.171C56.1109 109.488 55.9756 108.812 55.7127 108.181C55.4497 107.55 55.0642 106.976 54.5781 106.493C54.092 106.01 53.5149 105.627 52.8798 105.366C52.2446 105.104 51.5638 104.97 50.8763 104.97H35.8688C32.556 104.97 30.6344 106.704 30.6344 110.171V119.268C30.6344 120.647 30.083 121.97 29.1013 122.945C28.1197 123.921 26.7883 124.468 25.4001 124.468H5.85937C2.54662 124.468 0.625 122.398 0.625 118.581V45.0735C0.625 23.2327 4.11411 0 43.3747 0ZM67.7356 26.6813C67.7366 24.8423 66.7212 23.9229 64.6895 23.9229H22.0344C20.1043 23.9229 18.9883 24.8423 18.9883 26.6813V85.5249C18.9883 87.2728 20.1043 88.2834 22.0344 88.2834H64.6966C66.7273 88.2834 67.7427 87.3639 67.7427 85.5249V75.2283C67.7436 73.3893 66.7283 72.4698 64.6966 72.4698H40.119C38.189 72.4698 37.073 71.4578 37.073 69.7113V66.7678C37.073 64.9288 38.189 64.0093 40.119 64.0093H64.6966C66.7269 64.0093 67.7427 62.9987 67.7427 61.2522V50.9555C67.7417 49.1165 66.7264 48.197 64.6966 48.197H40.119C38.189 48.197 37.073 47.1864 37.073 45.4385V42.495C37.073 40.656 38.189 39.7365 40.119 39.7365H64.6895C66.7212 39.7365 67.7356 38.7259 67.7356 36.978V26.6813Z" fill="#1169FE"/>
<ellipse cx="105.934" cy="112.306" rx="13.0626" ry="13.058" fill="#1169FE"/>
</svg>
