<svg width="283" height="223" viewBox="0 0 283 223" fill="none" xmlns="http://www.w3.org/2000/svg">
<g clip-path="url(#clip0_931_7025)">
<path d="M0.160998 149.602C0.160998 137.633 0.879604 125.703 4.24486 114.268C9.50637 96.3905 20.8547 67.8869 43.8316 43.858C66.7967 19.8416 101.396 0.274615 153.219 0.274615C205.041 0.274615 239.641 19.8416 262.606 43.858C285.583 67.8869 296.931 96.3905 302.193 114.268C305.558 125.703 306.276 137.633 306.276 149.602V284.406H0.160998V149.602Z" stroke="white" stroke-width="0.884496"/>
<path d="M50.134 155.061C26.9262 155.061 8.12044 136.445 8.12044 113.49C8.12044 90.5352 26.9262 71.9188 50.134 71.9188C73.3419 71.9188 92.1476 90.5353 92.1476 113.49C92.1476 136.445 73.3419 155.061 50.134 155.061Z" stroke="black" stroke-width="0.884496"/>
</g>
<defs>
<clipPath id="clip0_931_7025">
<rect width="283" height="223" fill="white"/>
</clipPath>
</defs>
</svg>
