<svg width="32" height="32" viewBox="0 0 32 32" fill="none" xmlns="http://www.w3.org/2000/svg">
<rect x="0.460021" y="0.460021" width="31.08" height="31.08" rx="15.54" fill="black"/>
<path d="M13.575 10.4026C13.2963 10.4086 13.0319 10.4885 12.8 10.6276C12.3362 10.9059 12.0136 11.4257 12 12.0401C12 12.0422 12 12.0443 12 12.0463V19.9463C12 19.9484 12 19.9505 12 19.9525C12.0136 20.567 12.3304 21.0914 12.7938 21.3713C13.2571 21.6512 13.8732 21.6858 14.4125 21.3901C14.4167 21.3881 14.4209 21.3861 14.425 21.3839L21.1813 17.4214C21.6653 17.1371 22 16.6043 22 15.9964C22 15.3886 21.6653 14.862 21.1813 14.5777L14.425 10.6152C14.4209 10.6131 14.4167 10.611 14.4125 10.609C14.1432 10.4613 13.8538 10.3967 13.575 10.4027V10.4026ZM13.5938 11.1964C13.7283 11.193 13.872 11.2308 14.0188 11.3089L20.7813 15.2651C21.0336 15.4134 21.2 15.6755 21.2 15.9964C21.2 16.3173 21.0336 16.5794 20.7813 16.7276L14.0313 20.6901C14.0292 20.6921 14.027 20.6901 14.025 20.6901L14.0188 20.6963C13.7224 20.8534 13.441 20.8218 13.2125 20.6839C12.9821 20.5447 12.8099 20.2968 12.8 19.9464V19.9402V12.059V12.0466C12.8118 11.6998 12.9777 11.4525 13.2063 11.3153C13.322 11.2459 13.4555 11.2 13.5938 11.1966L13.5938 11.1964Z" fill="white"/>
<rect x="0.460021" y="0.460021" width="31.08" height="31.08" rx="15.54" stroke="black" stroke-width="0.920043"/>
</svg>
