<svg width="765" height="200" viewBox="0 0 765 200" fill="none" xmlns="http://www.w3.org/2000/svg">
<path d="M-2.12657e-05 480.58C-3.70625e-05 119.192 142.632 -0.000128305 450.283 -0.000141753L861.105 -0.00015971C1168.76 -0.000173158 1313.25 119.192 1313.25 480.58L1313.25 909.427C1313.25 945.981 1292.65 967.083 1257.05 967.083L58.1954 967.083C20.6607 967.083 1.92656 947.887 -2.52023e-06 909.427L-2.12657e-05 480.58ZM990.65 474.794C990.65 382.49 975.503 336.406 863.032 336.406L450.283 336.406C333.959 336.406 322.798 382.49 322.798 474.794L322.798 578.602C322.798 615.088 341.532 636.327 379.067 636.327L934.248 636.327C969.989 636.327 990.65 615.088 990.65 578.602L990.65 474.794Z" fill="black"/>
</svg>
