<svg width="1299" height="671" viewBox="0 0 1299 671" fill="none" xmlns="http://www.w3.org/2000/svg">
<path fill-rule="evenodd" clip-rule="evenodd" d="M520.969 110.089C520.969 80.4989 527.364 0.998047 635.727 0.998047C731.736 0.998047 747.732 63.0087 750.015 97.9891C750.469 106.082 746.356 111.027 738.132 112.808L686.452 124.018C677.304 125.814 672.269 121.776 671.362 112.347C669.549 90.8022 661.761 78.2252 635.743 78.2252C601.905 78.2252 599.622 99.3247 599.622 133.876V198.542C599.622 233.109 601.905 254.192 635.743 254.192C669.581 254.192 671.88 233.14 671.88 211.135H645.328C636.633 211.135 631.598 206.19 631.598 197.651V161.733C631.598 152.749 636.633 148.265 645.328 148.265H736.755C745.908 148.265 750.479 152.755 750.469 161.733V222.36C750.469 251.982 743.992 331.451 635.727 331.451C527.461 331.451 520.969 251.95 520.969 222.36V110.089ZM219.445 22.5562C219.445 13.5726 214.88 9.05691 205.748 9.05691H13.7295C5.03523 9.05691 0 13.5726 0 22.5562V309.84C0 318.363 5.03523 323.292 13.7295 323.292H205.748C214.88 323.292 219.445 318.792 219.445 309.84V259.532C219.445 250.549 214.88 246.081 205.748 246.081H95.1028C86.4085 246.081 81.3732 241.136 81.3732 232.581V218.271C81.3732 209.288 86.4085 204.82 95.1028 204.82H165.968C175.116 204.82 179.682 199.875 179.682 191.321V141.06C179.682 132.077 175.116 127.561 165.968 127.561H95.1028C86.4085 127.561 81.3732 122.632 81.3732 114.093V99.7833C81.3732 90.7997 86.4085 86.3158 95.1028 86.3158H205.748C214.88 86.3158 219.445 81.355 219.445 72.8166V22.5562ZM484.55 116.828C484.55 43.1946 456.201 9.05691 370.245 9.05691H268.246C259.098 9.51801 254.532 14.0019 254.532 22.9855V309.92C254.532 318.442 259.551 323.371 268.246 323.371H370.245C456.201 323.371 484.55 288.789 484.55 215.155V116.828ZM404.537 215.616C404.537 242.535 393.576 246.16 371.622 246.16H346.931C338.253 246.16 333.202 241.215 333.202 232.661V99.7833C333.202 90.7997 338.253 86.3158 346.931 86.3158H371.622C393.576 86.3158 404.537 88.9871 404.537 116.828V215.616ZM998.673 323.374C1007.82 323.374 1012.37 317.984 1012.37 308.11V117.721C1012.37 61.1643 1003.27 0.998047 900.381 0.998047C797.491 0.998047 788.359 61.1643 788.359 117.721V308.11C788.359 317.984 793.395 323.374 802.073 323.374H853.348C862.479 323.374 867.061 318.874 867.061 309.922V270.84C867.061 261.856 872.08 257.388 880.774 257.388H920.036C929.168 257.388 933.75 261.856 933.75 270.84V309.922C933.75 318.874 938.769 323.374 947.463 323.374H998.673ZM900.381 85.3961C930.511 85.3961 933.75 96.1924 933.75 117.721V166.233C933.75 175.2 929.168 179.7 920.036 180.129H880.71C872.015 180.129 866.996 175.2 866.996 166.662V117.721C866.996 96.1924 870.251 85.3961 900.381 85.3961ZM1296.63 299.125C1303.11 310.812 1295.72 323.373 1281.56 323.373H1229.44C1227.25 323.456 1225.09 322.905 1223.22 321.788C1221.34 320.671 1219.85 319.038 1218.92 317.093L1171.36 226.78C1170.99 226.142 1170.45 225.605 1169.82 225.215C1169.18 224.824 1168.45 224.592 1167.71 224.538H1149.43C1147.55 224.469 1145.67 224.781 1143.92 225.456C1142.17 226.13 1140.58 227.152 1139.25 228.458C1137.92 229.764 1136.87 231.325 1136.18 233.044C1135.5 234.764 1135.18 236.604 1135.24 238.45V309.461C1135.31 311.305 1134.99 313.143 1134.3 314.86C1133.61 316.577 1132.57 318.137 1131.24 319.441C1129.91 320.746 1128.32 321.769 1126.57 322.445C1124.83 323.122 1122.95 323.438 1121.08 323.373H1069.87C1067.99 323.438 1066.12 323.122 1064.37 322.445C1062.62 321.769 1061.03 320.746 1059.7 319.441C1058.37 318.137 1057.33 316.577 1056.64 314.86C1055.96 313.143 1055.63 311.305 1055.7 309.461V22.9872C1055.63 21.1421 1055.96 19.3035 1056.64 17.5856C1057.33 15.8677 1058.37 14.3072 1059.7 13.001C1061.03 11.6948 1062.62 10.6708 1064.37 9.99259C1066.12 9.3144 1067.99 8.99651 1069.87 9.05866H1169.99C1251.38 9.05866 1284.29 43.1963 1284.29 116.83C1284.29 158.6 1273.77 187.761 1249.55 204.853C1248.68 205.524 1248.07 206.467 1247.82 207.525C1247.57 208.583 1247.69 209.694 1248.17 210.673L1296.63 299.125ZM1149.43 86.3176C1147.55 86.2487 1145.67 86.5608 1143.92 87.2344C1142.17 87.908 1140.58 88.9286 1139.25 90.2326C1137.92 91.5366 1136.88 93.0959 1136.19 94.8133C1135.5 96.5307 1135.18 98.3693 1135.24 100.214V133.446C1135.18 135.292 1135.5 137.132 1136.19 138.851C1136.88 140.57 1137.92 142.131 1139.25 143.438C1140.58 144.744 1142.17 145.768 1143.92 146.445C1145.67 147.122 1147.55 147.439 1149.43 147.374H1172.74C1194.69 147.374 1205.66 144.671 1205.66 116.83C1205.66 88.9888 1194.69 86.3176 1172.74 86.3176H1149.43ZM210.313 670.933C219.461 670.933 224.027 665.542 224.027 655.668V465.28C224.027 408.723 214.895 348.557 112.021 348.557C9.14758 348.557 0 408.723 0 465.28V655.668C0 665.542 5.03517 670.933 13.7132 670.933H64.9235C74.0711 670.933 78.6368 666.433 78.6368 657.481V618.398C78.6368 609.415 83.672 604.947 92.3501 604.947H131.709C140.84 604.947 145.422 609.415 145.422 618.398V657.481C145.422 666.433 150.441 670.933 159.152 670.933H210.313ZM112.021 432.955C142.152 432.955 145.39 443.751 145.39 465.28L145.341 513.791C145.341 522.759 140.759 527.259 131.628 527.688H92.3501C83.672 527.688 78.6368 522.759 78.6368 514.22V465.28C78.6368 443.751 81.8911 432.955 112.021 432.955ZM340.831 356.616C349.978 356.616 354.544 361.131 354.544 370.115V580.22C354.544 588.774 359.579 593.719 368.257 593.719H470.258C479.389 593.719 483.971 598.187 483.971 607.171V657.479C483.971 666.431 479.389 670.93 470.258 670.93H289.62C280.942 670.93 275.906 666.001 275.906 657.479V370.115C275.906 361.131 280.942 356.616 289.62 356.616H340.831ZM606.91 370.115C606.91 361.131 602.361 356.616 593.197 356.616H542.002C533.308 356.616 528.289 361.131 528.289 370.115V657.479C528.289 666.001 533.308 670.93 542.002 670.93H722.641C731.788 670.93 736.354 666.431 736.354 657.479V607.171C736.354 598.187 731.788 593.719 722.641 593.719H620.64C611.962 593.719 606.91 588.774 606.91 580.22V370.115ZM1012.17 655.668C1012.17 665.542 1007.62 670.933 998.455 670.933H947.26C938.566 670.933 933.547 666.433 933.547 657.481V618.398C933.547 609.415 928.965 604.947 919.833 604.947H880.507C871.812 604.947 866.793 609.415 866.793 618.398V657.481C866.793 666.433 862.211 670.933 853.08 670.933H801.869C793.191 670.933 788.156 665.542 788.156 655.668V465.28C788.156 408.723 797.287 348.557 900.178 348.557C1003.07 348.557 1012.17 408.723 1012.17 465.28V655.668ZM933.547 465.28C933.547 443.751 930.309 432.955 900.178 432.955C870.047 432.955 866.793 443.751 866.793 465.28V514.22C866.793 522.759 871.812 527.688 880.507 527.688H919.833C928.965 527.259 933.547 522.759 933.547 513.791V465.28ZM1152.44 366.951C1149.23 359.796 1144.2 356.616 1136.43 356.616H1069.22C1060.53 356.616 1055.51 361.131 1055.51 370.115V657.526C1055.51 666.049 1060.53 670.978 1069.22 670.978H1120.43C1129.58 670.978 1134.13 666.049 1134.13 657.526V512.485C1134.13 507.954 1137.8 507.095 1139.63 511.134L1201.8 660.595C1205.01 667.75 1210.03 670.93 1217.82 670.93H1285.01C1294.16 670.93 1298.74 666.001 1298.74 657.479V370.115C1298.74 361.131 1294.16 356.616 1285.01 356.616H1233.81C1225.12 356.616 1220.08 361.131 1220.08 370.115V515.061C1220.08 519.592 1216.44 520.467 1214.61 516.412L1152.44 366.951Z" fill="white"/>
</svg>
