<svg width="600" height="636" viewBox="0 0 600 636" fill="none" xmlns="http://www.w3.org/2000/svg">
<g clip-path="url(#clip0_3645_10827)">
<path d="M-670.88 1329C-840.763 1329 -1297.19 1291.96 -1297.19 664.295C-1297.19 108.186 -941.177 15.5329 -740.348 2.31002C-693.884 -0.315708 -665.494 23.504 -655.27 71.1438L-590.913 370.486C-580.598 423.471 -603.785 452.636 -657.917 457.888C-781.609 468.391 -853.816 513.499 -853.816 664.202C-853.816 860.199 -732.68 873.422 -534.316 873.422L-163.057 873.422C35.3983 873.422 156.443 860.199 156.443 664.202C156.443 468.204 35.581 454.887 -90.7585 454.887L-90.7585 608.684C-90.7585 659.044 -119.149 688.209 -168.169 688.209L-374.384 688.209C-425.96 688.209 -451.703 659.044 -451.703 608.684L-451.703 79.115C-451.703 26.0986 -425.93 -0.378319 -374.383 -0.315695L-26.3109 -0.315679C143.755 -0.315672 600.001 37.1958 600.001 664.295C600.001 1291.39 143.572 1329 -26.3109 1329L-670.88 1329Z" fill="#390155"/>
</g>
<defs>
<clipPath id="clip0_3645_10827">
<rect width="650" height="600" fill="white" transform="translate(0 650) rotate(-90)"/>
</clipPath>
</defs>
</svg>
