<svg width="600" height="700" viewBox="0 0 600 700" fill="none" xmlns="http://www.w3.org/2000/svg">
<path d="M516.816 752C128.179 752 -0.000108663 598.643 -7.97452e-05 267.857L-4.11293e-05 -173.857C-1.22111e-05 -504.643 128.179 -660 516.816 -660L977.997 -660C1017.31 -660 1040 -637.857 1040 -599.571L1040 689.429C1040 729.786 1019.36 749.929 977.997 752L516.816 752ZM510.593 -313.143C411.33 -313.143 361.771 -296.857 361.771 -175.928L361.771 267.857C361.771 392.929 411.329 404.929 510.593 404.929L622.228 404.929C661.465 404.929 684.305 384.786 684.305 344.429L684.305 -252.5C684.305 -290.928 661.465 -313.143 622.228 -313.143L510.593 -313.143Z" fill="#4FE9A4"/>
</svg>
