<svg width="787" height="622" viewBox="0 0 787 622" fill="none" xmlns="http://www.w3.org/2000/svg">
<path d="M1412.98 106.481C1411.24 495.113 1257.32 622.607 926.534 621.13L484.825 619.159C154.042 617.683 -0.74145 488.812 0.992885 100.179L3.05096 -360.997C3.22638 -400.307 25.4704 -422.901 63.7558 -422.73L1352.74 -416.978C1393.1 -416.798 1413.15 -396.065 1415.04 -354.696L1412.98 106.481ZM347.819 107.949C347.376 207.212 363.44 256.843 484.368 257.383L928.149 259.363C1053.22 259.921 1065.44 210.417 1065.88 111.154L1066.38 -0.480097C1066.56 -39.7167 1046.52 -62.6459 1006.16 -62.826L409.236 -65.4898C370.808 -65.6613 348.492 -42.9212 348.317 -3.68457L347.819 107.949Z" fill="#4FE9A4"/>
</svg>
