<svg width="279" height="701" viewBox="0 0 279 701" fill="none" xmlns="http://www.w3.org/2000/svg">
<g clip-path="url(#clip0_3815_10898)">
<path d="M539.366 1473.64C133.607 1473.64 -0.21875 1313.35 -0.21875 967.608L-0.21875 505.923C-0.21875 160.181 133.607 -2.20068 539.366 -2.20068L1020.86 -2.20068C1061.91 -2.20068 1085.6 20.9433 1085.6 60.9601V1408.24C1085.6 1450.42 1064.05 1471.48 1020.86 1473.64H539.366ZM532.869 360.339C429.232 360.339 377.49 377.361 377.49 503.757V967.608C377.49 1098.33 429.232 1110.88 532.869 1110.88H649.423C690.388 1110.88 714.234 1089.82 714.234 1047.64L714.234 423.724C714.234 383.558 690.388 360.339 649.423 360.339H532.869Z" fill="#4FE9A4"/>
</g>
<defs>
<clipPath id="clip0_3815_10898">
<rect width="600" height="701" fill="white" transform="translate(600 701) rotate(180)"/>
</clipPath>
</defs>
</svg>
