<svg width="32" height="32" viewBox="0 0 32 32" fill="none" xmlns="http://www.w3.org/2000/svg">
<rect x="31.54" y="0.460021" width="31.08" height="31.08" rx="15.54" transform="rotate(90 31.54 0.460021)" fill="black"/>
<path fill-rule="evenodd" clip-rule="evenodd" d="M22.3904 11.3123C22.5629 11.0967 22.528 10.782 22.3123 10.6095C22.0967 10.437 21.7821 10.472 21.6095 10.6876L13.8293 20.413L9.85399 16.4329C9.65885 16.2375 9.34226 16.2373 9.14688 16.4325C8.95151 16.6276 8.95131 16.9442 9.14646 17.1396L13.4317 21.43C13.6015 21.6 13.8631 21.6222 14.057 21.4967C14.1835 21.4822 14.3046 21.4196 14.3904 21.3123L22.3904 11.3123Z" fill="white"/>
<rect x="31.54" y="0.460021" width="31.08" height="31.08" rx="15.54" transform="rotate(90 31.54 0.460021)" stroke="black" stroke-width="0.920043"/>
</svg>
