<svg width="143" height="49" viewBox="0 0 143 49" fill="none" xmlns="http://www.w3.org/2000/svg">
<path d="M51.3036 21.2085C51.3036 19.1613 49.3185 16.9896 45.8769 16.9896C42.0105 16.9896 37.7697 19.8201 37.1133 25.4762C36.4508 31.1945 40.011 33.7212 43.5881 33.7212C47.164 33.7212 49.0465 32.3279 50.9583 30.4601C49.3076 28.3811 47.1786 29.3486 46.776 29.5511C46.3307 29.7743 45.7463 30.083 44.5592 30.083C43.1733 30.083 41.7677 29.456 41.7677 26.8829C50.6276 26.0337 51.3036 23.2569 51.3036 21.2085ZM46.9127 21.5513C46.8553 22.1821 46.5966 23.274 42.1131 23.8743C43.0586 20.5167 44.8618 20.2679 45.695 20.2679C46.4759 20.2679 46.9736 20.873 46.9127 21.5513ZM31.9062 22.0967C31.9062 22.0967 30.0006 28.0724 29.8529 28.5739C29.8017 28.0724 28.4072 17.3386 28.4072 17.3386C25.1618 17.3386 23.4257 19.6445 22.5107 22.0943C22.5107 22.0943 20.1926 28.0871 20.0048 28.5885C19.9938 28.1188 19.6485 22.1565 19.6485 22.1565C19.4521 19.16 16.7168 17.3459 14.5 17.3459L17.1658 33.6077C20.5709 33.5967 22.3936 31.2945 23.355 28.8496C23.355 28.8496 25.3937 23.5619 25.4779 23.3216C25.4986 23.551 26.9444 33.6077 26.9444 33.6077C30.3519 33.6077 32.1905 31.4519 33.18 29.0948L37.9613 17.3459C34.594 17.3459 32.8212 19.6457 31.9062 22.0967ZM63.8186 16.9676C61.7239 16.9676 60.1097 18.106 58.7507 19.7884L58.7531 19.7762L59.961 10.0049C57.1719 10.0049 54.8929 12.4328 54.4598 16.0343L52.3382 33.4808C53.9474 33.4808 55.6518 33.0136 56.5716 31.8314C57.3952 32.8891 58.6189 33.7322 60.4306 33.7322C65.1339 33.7322 68.367 28.2652 68.367 23.1325C68.367 18.4488 66.0879 16.9676 63.8186 16.9676ZM63.3868 25.3493C62.8988 28.2188 61.3042 30.1538 59.7596 30.1538C58.2029 30.1538 57.5453 29.4657 57.5453 29.4657C57.8356 26.9573 58.0284 25.4189 58.5957 24.0939C59.1618 22.769 60.5002 20.6546 61.9007 20.6546C63.2623 20.6546 63.8748 22.481 63.3868 25.3493ZM80.1574 17.3471H76.8645L76.8803 17.1751C77.1048 15.0254 77.6197 13.8968 79.2863 13.7236C80.4245 13.6065 80.9394 13.0148 81.059 12.3755C81.1529 11.874 81.4713 10.1013 81.4713 10.1013C74.8661 10.0635 72.7957 12.9147 72.2674 17.2483L72.2552 17.3459L72.1905 17.3483C71.1181 17.3483 69.9408 18.5623 69.7346 20.1044L69.6627 20.6717H71.8587L70.0152 35.9331L69.4565 38.6757L69.6833 38.6831C72.7664 38.5659 74.7502 36.1344 75.1882 32.5939L76.6278 20.6717H77.66C78.6702 20.6717 79.8572 19.6591 80.0769 17.9669L80.1574 17.3471ZM97.2453 17.0641C93.451 17.0641 89.875 19.8567 88.7755 24.2501C87.6775 28.6422 89.347 33.8285 94.9232 33.8285C100.502 33.8285 103.706 28.4225 103.706 23.9341C103.706 19.4431 100.671 17.0641 97.2453 17.0641ZM98.7835 25.2188C98.587 27.2111 97.7088 30.2209 95.308 30.2209C92.8968 30.2209 93.2395 26.6889 93.4727 25.0126C93.7233 23.2154 94.7327 20.6717 96.8815 20.6717C98.8225 20.6717 99.0055 22.969 98.7835 25.2188ZM122.444 22.0967C122.444 22.0967 120.538 28.0724 120.392 28.5739C120.339 28.0724 118.945 17.3386 118.945 17.3386C115.7 17.3386 113.964 19.6445 113.048 22.0943C113.048 22.0943 110.732 28.0871 110.544 28.5885C110.532 28.1188 110.187 22.1565 110.187 22.1565C109.991 19.16 107.254 17.3459 105.038 17.3459L107.703 33.6077C111.108 33.5967 112.932 31.2945 113.894 28.8496C113.894 28.8496 115.932 23.5619 116.016 23.3216C116.037 23.551 117.482 33.6077 117.482 33.6077C120.89 33.6077 122.728 31.4519 123.717 29.0948L128.5 17.3459C125.132 17.3459 123.359 19.6457 122.444 22.0967ZM83.2563 10.1013L80.4917 32.3987L80.4843 32.395L79.9231 35.1523L80.1488 35.1596C83.1257 35.123 85.2376 32.5109 85.6353 29.2168L87.232 16.4186C87.7165 12.5207 85.3926 10.1013 83.2563 10.1013Z" fill="black"/>
</svg>
