<svg width="143" height="57" viewBox="0 0 143 57" fill="none" xmlns="http://www.w3.org/2000/svg">
<path d="M51.4485 37.3025H55.6071V30.1734H57.4152L61.8321 37.3025H66.2748L61.393 29.4502C63.5628 28.8045 65.19 27.3321 65.19 24.5425V24.4392C65.19 20.6164 62.4262 18.8341 58.061 18.8341H51.4485V37.3025ZM55.6071 27.3321V22.037H57.9576C59.9724 22.037 61.1089 22.6828 61.1089 24.5683V24.6717C61.1089 26.454 60.0499 27.3321 57.9576 27.3321H55.6071Z" fill="black"/>
<path d="M73.4127 37.5865C77.1063 37.5865 79.431 35.9593 79.8701 33.0405H76.3314C76.099 34.177 75.2466 34.9261 73.516 34.9261C71.4755 34.9261 70.2615 33.6346 70.1581 31.3874H79.896V30.3542C79.896 25.524 76.7964 23.4835 73.3094 23.4835C69.3832 23.4835 66.3611 26.2472 66.3611 30.5092V30.7158C66.3611 35.0294 69.3315 37.5865 73.4127 37.5865ZM70.2098 29.0885C70.4939 27.1771 71.6304 26.0665 73.3094 26.0665C75.0917 26.0665 76.1249 27.0479 76.254 29.0885H70.2098Z" fill="black"/>
<path d="M81.676 37.3025H85.3956V17.6718H81.676V37.3025Z" fill="black"/>
<path d="M92.5317 37.5865C94.7533 37.5865 96.1218 36.5533 96.8192 35.1844V37.3024H100.539V23.7934H96.8192V31.7232C96.8192 33.7121 95.5793 34.6936 94.0043 34.6936C92.4031 34.6936 91.6532 33.8154 91.6532 31.9815V23.7934H87.9341V32.4981C87.9341 36.0367 89.8971 37.5865 92.5317 37.5865Z" fill="black"/>
<path d="M103.078 37.3024H106.824V29.321C106.824 27.4871 107.986 26.5572 109.432 26.5572C110.75 26.5572 111.551 27.3321 111.551 29.0627V37.3024H115.27V29.321C115.27 27.4871 116.432 26.5572 117.879 26.5572C119.222 26.5572 119.997 27.3321 119.997 29.0627V37.3024H123.717V28.6495C123.717 25.0591 121.779 23.4835 119.273 23.4835C117.569 23.4835 115.813 24.2066 114.728 25.834C114.082 24.2325 112.739 23.4835 110.957 23.4835C108.941 23.4835 107.495 24.5941 106.824 25.8598V23.7934H103.078V37.3024Z" fill="black"/>
<path d="M132.365 37.5865C136.059 37.5865 138.384 35.9593 138.823 33.0405H135.284C135.051 34.177 134.199 34.9261 132.468 34.9261C130.428 34.9261 129.214 33.6346 129.111 31.3874H138.849V30.3542C138.849 25.524 135.749 23.4835 132.262 23.4835C128.336 23.4835 125.313 26.2472 125.313 30.5092V30.7158C125.313 35.0294 128.284 37.5865 132.365 37.5865ZM129.163 29.0885C129.447 27.1771 130.584 26.0665 132.262 26.0665C134.044 26.0665 135.078 27.0479 135.207 29.0885H129.163Z" fill="black"/>
<path fill-rule="evenodd" clip-rule="evenodd" d="M37.1365 19.9389L36.8854 19.4905C36.5615 18.9482 36.1047 18.4975 35.5581 18.1811L23.522 11.2393C22.977 10.9231 22.3584 10.7561 21.7283 10.7549H21.2081C20.578 10.7561 19.9594 10.9231 19.4143 11.2393L7.37836 18.199C6.83481 18.5133 6.38329 18.9649 6.06893 19.5084L5.81781 19.9569C5.50165 20.5018 5.33462 21.1205 5.3335 21.7505V35.6521C5.33462 36.2822 5.50165 36.9008 5.81781 37.4459L6.06893 37.8943C6.39142 38.4315 6.84111 38.8812 7.37836 39.2037L19.4323 46.1455C19.9746 46.4682 20.5951 46.6357 21.226 46.6298H21.7283C22.3584 46.6286 22.977 46.4616 23.522 46.1455L35.5581 39.1858C36.107 38.8785 36.5602 38.4253 36.8674 37.8764L37.1365 37.4279C37.4489 36.8813 37.6157 36.2636 37.6208 35.6342V21.7326C37.6198 21.1026 37.4527 20.4839 37.1365 19.9389ZM21.2081 14.3424H21.7283L32.2397 20.4052L21.4772 26.6115L10.7147 20.4052L21.2081 14.3424ZM23.2709 42.1456L33.7643 36.0827L34.0333 35.6343V23.5086L23.2709 29.7328V42.1456Z" fill="black"/>
</svg>
