<svg width="250" height="32" viewBox="0 0 250 32" fill="none" xmlns="http://www.w3.org/2000/svg">
<path d="M18.9825 1.49951C19.8249 1.49951 20.2462 1.91613 20.2462 2.74496V7.38202C20.2462 8.16977 19.8249 8.62746 18.9825 8.62746H8.77424C7.9721 8.62746 7.50754 9.04115 7.50754 9.86998V11.1902C7.50754 11.978 7.9721 12.4328 8.77424 12.4328H15.3123C16.1563 12.4328 16.5775 12.8494 16.5775 13.6782V18.3153C16.5775 19.1045 16.1563 19.5607 15.3123 19.5607H8.77424C7.9721 19.5607 7.50754 19.9729 7.50754 20.8018V22.122C7.50754 22.9112 7.9721 23.3675 8.77424 23.3675H18.9825C19.8249 23.3675 20.2462 23.7797 20.2462 24.6085V29.25C20.2462 30.0759 19.8249 30.491 18.9825 30.491H1.26669C0.464553 30.491 0 30.0363 0 29.25V2.74496C0 1.91613 0.464553 1.49951 1.26669 1.49951H18.9825Z" fill="#1169FE"/>
<path d="M34.1572 1.49951C42.0875 1.49951 44.703 4.64907 44.703 11.4426V20.5142C44.703 27.3077 42.0875 30.4984 34.1572 30.4984H24.7466C23.9445 30.4984 23.4814 30.0436 23.4814 29.2573V2.78457C23.4814 1.95574 23.9027 1.54205 24.7466 1.49951H34.1572ZM34.2842 23.3748C36.3097 23.3748 37.321 23.0403 37.321 20.5568V11.4426C37.321 8.87391 36.3097 8.62746 34.2842 8.62746H32.0062C31.2056 8.62746 30.7395 9.04115 30.7395 9.86998V22.1294C30.7395 22.9186 31.2056 23.3748 32.0062 23.3748H34.2842Z" fill="#1169FE"/>
<path d="M48.0674 10.8207C48.0674 8.09065 48.6574 0.755859 58.655 0.755859C67.5129 0.755859 68.9887 6.477 69.1993 9.70431C69.2412 10.451 68.8618 10.9072 68.1029 11.0715L63.3349 12.1057C62.4909 12.2715 62.0264 11.8989 61.9427 11.029C61.7754 9.04124 61.057 7.88088 58.6565 7.88088C55.5346 7.88088 55.324 9.82753 55.324 13.0152V18.9814C55.324 22.1705 55.5346 24.1157 58.6565 24.1157C61.7784 24.1157 61.9905 22.1735 61.9905 20.1432H59.5408C58.7387 20.1432 58.2741 19.687 58.2741 18.8992V15.5853C58.2741 14.7565 58.7387 14.3428 59.5408 14.3428H67.976C68.8204 14.3428 69.2422 14.757 69.2412 15.5853V21.1789C69.2412 23.9118 68.6437 31.2437 58.655 31.2437C48.6664 31.2437 48.0674 23.9089 48.0674 21.1789V10.8207Z" fill="#1169FE"/>
<path d="M93.4008 29.0902C93.4008 30.0011 92.9811 30.4984 92.1371 30.4984H87.4124C86.6103 30.4984 86.1472 30.0833 86.1472 29.2574V25.6516C86.1472 24.8228 85.7245 24.4106 84.882 24.4106H81.2597C80.4575 24.4106 79.9945 24.8228 79.9945 25.6516V29.2574C79.9945 30.0833 79.5717 30.4984 78.7293 30.4984H73.9986C73.198 30.4984 72.7334 30.0011 72.7334 29.0902V11.5248C72.7334 6.30683 73.5759 0.755859 83.0686 0.755859C92.5613 0.755859 93.4008 6.30683 93.4008 11.5248V29.0902ZM86.1472 11.5248C86.1472 9.53854 85.8484 8.54248 83.0686 8.54248C80.2887 8.54248 79.9885 9.53854 79.9885 11.5248V16.0401C79.9885 16.8279 80.4516 17.2826 81.2537 17.2826H84.882C85.7245 17.243 86.1472 16.8279 86.1472 16.0005V11.5248Z" fill="#1169FE"/>
<path d="M119.628 28.2615C120.225 29.3397 119.544 30.4986 118.237 30.4986H113.429C113.227 30.5062 113.027 30.4554 112.854 30.3523C112.682 30.2493 112.544 30.0986 112.458 29.9191L108.07 21.5868C108.036 21.528 107.987 21.4785 107.928 21.4424C107.869 21.4064 107.802 21.3849 107.733 21.38H106.046C105.873 21.3736 105.7 21.4024 105.539 21.4647C105.377 21.5269 105.23 21.6212 105.107 21.7417C104.985 21.8621 104.888 22.0062 104.825 22.1648C104.761 22.3234 104.732 22.4932 104.738 22.6635V29.215C104.744 29.3851 104.714 29.5547 104.651 29.7131C104.587 29.8715 104.491 30.0154 104.369 30.1358C104.246 30.2562 104.099 30.3506 103.938 30.413C103.777 30.4754 103.604 30.5045 103.431 30.4986H98.7062C98.533 30.5045 98.3603 30.4754 98.199 30.413C98.0377 30.3506 97.8912 30.2562 97.7686 30.1358C97.646 30.0154 97.5499 29.8715 97.4864 29.7131C97.4228 29.5547 97.3932 29.3851 97.3992 29.215V2.78478C97.3932 2.61455 97.4228 2.44492 97.4864 2.28643C97.5499 2.12794 97.6459 1.98396 97.7685 1.86345C97.8911 1.74294 98.0376 1.64846 98.1989 1.58589C98.3602 1.52332 98.5329 1.49399 98.7062 1.49973H107.944C115.453 1.49973 118.489 4.64929 118.489 11.4428C118.489 15.2965 117.518 17.9869 115.284 19.5639C115.204 19.6258 115.147 19.7127 115.124 19.8104C115.101 19.908 115.113 20.0104 115.157 20.1008L119.628 28.2615ZM106.046 8.62768C105.873 8.62133 105.7 8.65012 105.539 8.71227C105.377 8.77441 105.231 8.86858 105.108 8.98888C104.985 9.10919 104.889 9.25305 104.825 9.4115C104.762 9.56995 104.732 9.73958 104.738 9.9098V12.9757C104.732 13.1461 104.762 13.3159 104.825 13.4745C104.889 13.6331 104.985 13.7771 105.108 13.8976C105.23 14.0182 105.377 14.1126 105.539 14.1751C105.7 14.2376 105.873 14.2667 106.046 14.2608H108.197C110.223 14.2608 111.234 14.0114 111.234 11.4428C111.234 8.87413 110.223 8.62768 108.197 8.62768H106.046Z" fill="#1169FE"/>
<path d="M155.509 29.0902C155.509 30.0011 155.088 30.4984 154.244 30.4984H149.523C148.72 30.4984 148.257 30.0833 148.257 29.2574V25.6516C148.257 24.8228 147.834 24.4106 146.991 24.4106H143.36C142.559 24.4106 142.095 24.8228 142.095 25.6516V29.2574C142.095 30.0833 141.674 30.4984 140.83 30.4984H136.105C135.304 30.4984 134.84 30.0011 134.84 29.0902V11.5248C134.84 6.30683 135.684 0.755859 145.175 0.755859C154.666 0.755859 155.509 6.30683 155.509 11.5248V29.0902ZM148.254 11.5248C148.254 9.53854 147.955 8.54248 145.175 8.54248C142.395 8.54248 142.095 9.53854 142.095 11.5248V16.0401C142.095 16.8279 142.559 17.2826 143.36 17.2826H146.984C147.826 17.243 148.249 16.8279 148.249 16.0005L148.254 11.5248Z" fill="#1169FE"/>
<path d="M165.496 1.49951C166.34 1.49951 166.761 1.91613 166.761 2.74496V22.1294C166.761 22.9186 167.226 23.3748 168.026 23.3748H177.437C178.279 23.3748 178.702 23.787 178.702 24.6158V29.2573C178.702 30.0832 178.279 30.4984 177.437 30.4984H160.771C159.97 30.4984 159.506 30.0436 159.506 29.2573V2.74496C159.506 1.91613 159.97 1.49951 160.771 1.49951H165.496Z" fill="#1169FE"/>
<path d="M187.294 1.49951C188.14 1.49951 188.559 1.91613 188.559 2.74496V22.1294C188.559 22.9186 189.025 23.3748 189.826 23.3748H199.237C200.081 23.3748 200.502 23.787 200.502 24.6158V29.2573C200.502 30.0832 200.081 30.4984 199.237 30.4984H182.571C181.769 30.4984 181.306 30.0436 181.306 29.2573V2.74496C181.306 1.91613 181.769 1.49951 182.571 1.49951H187.294Z" fill="#1169FE"/>
<path d="M223.561 29.0902C223.561 30.0011 223.141 30.4984 222.296 30.4984H217.573C216.77 30.4984 216.307 30.0833 216.307 29.2574V25.6516C216.307 24.8228 215.885 24.4106 215.042 24.4106H211.414C210.612 24.4106 210.149 24.8228 210.149 25.6516V29.2574C210.149 30.0833 209.726 30.4984 208.883 30.4984H204.159C203.358 30.4984 202.894 30.0011 202.894 29.0902V11.5248C202.894 6.30683 203.736 0.755859 213.229 0.755859C222.721 0.755859 223.561 6.30683 223.561 11.5248V29.0902ZM216.307 11.5248C216.307 9.53854 216.009 8.54248 213.229 8.54248C210.449 8.54248 210.149 9.53854 210.149 11.5248V16.0401C210.149 16.8279 210.612 17.2826 211.414 17.2826H215.042C215.885 17.243 216.307 16.8279 216.307 16.0005V11.5248Z" fill="#1169FE"/>
<path d="M235.025 1.49951C235.742 1.49951 236.207 1.7929 236.503 2.45303L242.239 16.2424C242.407 16.6165 242.743 16.5358 242.743 16.1178V2.74496C242.743 1.91613 243.208 1.49951 244.01 1.49951H248.733C249.577 1.49951 250 1.91613 250 2.74496V29.2573C250 30.0436 249.577 30.4984 248.733 30.4984H242.534C241.816 30.4984 241.353 30.205 241.057 29.5448L235.321 15.7554C235.152 15.3828 234.813 15.462 234.813 15.8801V29.2617C234.813 30.048 234.393 30.5028 233.549 30.5028H228.825C228.023 30.5028 227.56 30.048 227.56 29.2617V2.74496C227.56 1.91613 228.023 1.49951 228.825 1.49951H235.025Z" fill="#1169FE"/>
</svg>
